<?xml version="1.0" encoding="utf-8"?>
<!-- Generator: Adobe Illustrator 18.0.0, SVG Export Plug-In . SVG Version: 6.00 Build 0)  -->
<!DOCTYPE svg PUBLIC "-//W3C//DTD SVG 1.1//EN" "http://www.w3.org/Graphics/SVG/1.1/DTD/svg11.dtd">
<svg version="1.1" id="Layer_1" xmlns="http://www.w3.org/2000/svg" xmlns:xlink="http://www.w3.org/1999/xlink" x="0px" y="0px"
	 viewBox="0 0 48 48" enable-background="new 0 0 48 48" xml:space="preserve">
<g>
	<g>
		<path fill="#c5c5c5" d="M19.3,17.6L19.3,17.6c-3.1,0-5.9-1.9-7.1-4.7c-0.8-1.9-0.8-4,0-5.9c0.8-1.9,2.3-3.4,4.1-4.1
			c0.9-0.4,1.9-0.6,2.9-0.6c3.1,0,5.9,1.9,7.1,4.7c1.6,3.9-0.2,8.4-4.1,10C21.3,17.4,20.3,17.6,19.3,17.6z M19.3,4.3
			c-0.7,0-1.5,0.1-2.2,0.4c-1.4,0.6-2.5,1.7-3.1,3.1c-0.6,1.4-0.6,2.9,0,4.3c0.9,2.1,2.9,3.5,5.2,3.5c0.7,0,1.5-0.1,2.2-0.4
			c2.9-1.2,4.3-4.5,3.1-7.4C23.6,5.6,21.6,4.3,19.3,4.3z"/>
		
			<rect x="20.8" y="16.6" transform="matrix(0.3827 0.9239 -0.9239 0.3827 30.1548 -9.8918)" fill="#c5c5c5" width="3.3" height="2"/>
		
			<rect x="14.4" y="1.2" transform="matrix(0.3827 0.9239 -0.9239 0.3827 12.0019 -13.5024)" fill="#c5c5c5" width="3.3" height="2"/>
		<rect x="15.1" y="16" transform="matrix(0.9238 0.3828 -0.3828 0.9238 7.9714 -4.8229)" fill="#c5c5c5" width="2" height="3.3"/>
		<rect x="21.5" y="0.6" transform="matrix(0.9238 0.3828 -0.3828 0.9238 2.5659 -8.4352)" fill="#c5c5c5" width="2" height="3.3"/>
		
			<rect x="10.6" y="11.4" transform="matrix(0.3829 0.9238 -0.9238 0.3829 19.2706 -2.6222)" fill="#c5c5c5" width="2" height="3.3"/>
		<rect x="26" y="5.1" transform="matrix(0.3828 0.9238 -0.9238 0.3828 22.8806 -20.7732)" fill="#c5c5c5" width="2" height="3.3"/>
		<rect x="9.9" y="5.7" transform="matrix(0.9239 0.3827 -0.3827 0.9239 3.4614 -3.9256)" fill="#c5c5c5" width="3.3" height="2"/>
		<rect x="25.3" y="12.1" transform="matrix(0.9239 0.3827 -0.3827 0.9239 7.0715 -9.329)" fill="#c5c5c5" width="3.3" height="2"/>
	</g>
	<g>
		<path fill="#c5c5c5" d="M30.9,27.2c-3.1,0-5.7-2.5-5.7-5.7c0-3.1,2.5-5.7,5.7-5.7c3.1,0,5.7,2.5,5.7,5.7
			C36.6,24.7,34.1,27.2,30.9,27.2z M30.9,17.9c-2,0-3.7,1.6-3.7,3.7c0,2,1.6,3.7,3.7,3.7c2,0,3.7-1.6,3.7-3.7
			C34.6,19.6,33,17.9,30.9,17.9z"/>
		<rect x="23.9" y="20.6" fill="#c5c5c5" width="2.3" height="2"/>
		<rect x="35.6" y="20.6" fill="#c5c5c5" width="2.3" height="2"/>
		
			<rect x="25.8" y="24.5" transform="matrix(0.7071 0.7071 -0.7071 0.7071 26.0255 -11.4351)" fill="#c5c5c5" width="2" height="2.3"/>
		
			<rect x="34.1" y="16.3" transform="matrix(0.7071 0.7071 -0.7071 0.7071 22.6098 -19.6851)" fill="#c5c5c5" width="2" height="2.3"/>
		<rect x="29.9" y="26.2" fill="#c5c5c5" width="2" height="2.3"/>
		<rect x="29.9" y="14.6" fill="#c5c5c5" width="2" height="2.3"/>
		
			<rect x="33.9" y="24.7" transform="matrix(0.7071 0.7071 -0.7071 0.7071 28.4417 -17.2684)" fill="#c5c5c5" width="2.3" height="2"/>
		
			<rect x="25.6" y="16.4" transform="matrix(0.7071 0.7071 -0.7071 0.7071 20.1922 -13.8513)" fill="#c5c5c5" width="2.3" height="2"/>
	</g>
	<path fill="#c5c5c5" d="M47.5,43.4h-47V8.9h13.1l0,1c0,0.7,0.1,1.5,0.4,2.2c0.9,2.1,2.9,3.5,5.2,3.5c0.7,0,1.5-0.1,2.2-0.4
		c2.1-0.9,3.5-2.9,3.5-5.2l0-1h22.5V43.4z M2.5,41.4h43V10.9H26.9c-0.4,2.7-2.1,5-4.7,6.1c-0.9,0.4-1.9,0.6-2.9,0.6
		c-3.1,0-5.9-1.9-7.1-4.7c-0.3-0.6-0.4-1.3-0.5-1.9H2.5V41.4z"/>
	<rect x="23" y="41.4" fill="#c5c5c5" width="2" height="6.3"/>
	<rect x="6" y="45.7" fill="#c5c5c5" width="36" height="2"/>
	<rect x="9.5" y="25.1" fill="#c5c5c5" width="2" height="18.2"/>
	<rect x="18.5" y="20.8" fill="#c5c5c5" width="2" height="22.5"/>
	<rect x="27.5" y="30.9" fill="#c5c5c5" width="2" height="12.4"/>
	<rect x="36.5" y="28.4" fill="#c5c5c5" width="2" height="15"/>
</g>
</svg>
