<?xml version="1.0" encoding="utf-8"?>
<!-- Generator: Adobe Illustrator 18.0.0, SVG Export Plug-In . SVG Version: 6.00 Build 0)  -->
<!DOCTYPE svg PUBLIC "-//W3C//DTD SVG 1.1//EN" "http://www.w3.org/Graphics/SVG/1.1/DTD/svg11.dtd">
<svg version="1.1" id="Layer_1" xmlns="http://www.w3.org/2000/svg" xmlns:xlink="http://www.w3.org/1999/xlink" x="0px" y="0px"
	 viewBox="0 0 48 48" enable-background="new 0 0 48 48" xml:space="preserve">
<g>
	<path fill="#c5c5c5" d="M39.7,10.3H0.5V0.5h39.2V10.3z M2.5,8.3h35.2V2.5H2.5V8.3z"/>
	<rect x="5.4" y="4.4" fill="#c5c5c5" width="2" height="2"/>
	<rect x="9.3" y="4.4" fill="#c5c5c5" width="2" height="2"/>
	<rect x="13.2" y="4.4" fill="#c5c5c5" width="2" height="2"/>
	<g>
		<path fill="#c5c5c5" d="M31.4,33.2c-3.8,0-7.4-2.1-9.3-5.4C19,22.6,20.8,16,26,13.1c1.6-0.9,3.5-1.4,5.4-1.4
			c3.8,0,7.4,2.1,9.3,5.4c1.4,2.5,1.8,5.4,1.1,8.2c-0.7,2.8-2.5,5.1-5,6.5C35.1,32.7,33.2,33.2,31.4,33.2z M31.3,13.6
			c-1.5,0-3.1,0.4-4.4,1.2c-4.2,2.4-5.7,7.8-3.2,12c1.6,2.7,4.5,4.4,7.6,4.4c1.5,0,3.1-0.4,4.4-1.2c2-1.2,3.5-3.1,4.1-5.4
			c0.6-2.3,0.3-4.6-0.9-6.7C37.4,15.3,34.5,13.6,31.3,13.6z"/>
		<path fill="#c5c5c5" d="M43.6,47.5L43.6,47.5c-1.4,0-2.7-0.8-3.4-2l-6.3-10.9l1.3-0.3c0.9-0.2,1.7-0.5,2.5-1
			c0.8-0.4,1.5-1,2.1-1.7l0.9-1L47,41.6c0.5,0.9,0.7,2,0.4,3c-0.3,1-0.9,1.9-1.8,2.4C44.9,47.3,44.3,47.5,43.6,47.5z M36.9,35.9
			l5,8.6c0.3,0.6,1,1,1.7,1l0,0c0.3,0,0.7-0.1,1-0.3c0.5-0.3,0.8-0.7,0.9-1.2c0.1-0.5,0.1-1-0.2-1.5l-5-8.6c-0.5,0.4-1,0.8-1.6,1.1
			C38.1,35.4,37.5,35.7,36.9,35.9z"/>
	</g>
	<polygon fill="#c5c5c5" points="32,37.7 0.5,37.7 0.5,8.3 38.7,8.3 38.7,10.3 2.5,10.3 2.5,35.7 32,35.7 	"/>
</g>
</svg>
