<?xml version="1.0" encoding="utf-8"?>
<!-- Generator: Adobe Illustrator 18.0.0, SVG Export Plug-In . SVG Version: 6.00 Build 0)  -->
<!DOCTYPE svg PUBLIC "-//W3C//DTD SVG 1.1//EN" "http://www.w3.org/Graphics/SVG/1.1/DTD/svg11.dtd">
<svg version="1.1" id="Layer_1" xmlns="http://www.w3.org/2000/svg" xmlns:xlink="http://www.w3.org/1999/xlink" x="0px" y="0px"
	 viewBox="0 0 48 48" enable-background="new 0 0 48 48" xml:space="preserve">
<g>
	<path fill="#c5c5c5" d="M43.5,37h-39V5h39V37z M6.5,35h35V7h-35V35z"/>
	<rect x="1.5" y="41" fill="#c5c5c5" width="45" height="2"/>
	<g>
		<g>
			<path fill="#c5c5c5" d="M17.2,22.5c-1.4,0-2.5-0.9-2.9-2.2c-0.4-1.6,0.5-3.2,2.1-3.7c1.6-0.4,3.3,0.6,3.7,2.1
				c0.2,0.8,0.1,1.6-0.3,2.3c-0.4,0.7-1,1.2-1.8,1.4C17.7,22.5,17.5,22.5,17.2,22.5z M17.2,18.5c-0.1,0-0.2,0-0.3,0
				c-0.5,0.1-0.8,0.7-0.7,1.2c0.1,0.5,0.7,0.9,1.2,0.7c0.3-0.1,0.5-0.2,0.6-0.5c0.1-0.2,0.2-0.5,0.1-0.8
				C18.1,18.8,17.7,18.5,17.2,18.5z"/>
			<path fill="#c5c5c5" d="M26.5,20c-1.4,0-2.5-0.9-2.9-2.2c-0.4-1.6,0.5-3.2,2.1-3.7c1.6-0.4,3.3,0.6,3.7,2.1
				c0.2,0.8,0.1,1.6-0.3,2.3c-0.4,0.7-1,1.2-1.8,1.4C27,20,26.7,20,26.5,20z M26.5,16c-0.1,0-0.2,0-0.3,0c-0.5,0.1-0.8,0.7-0.7,1.2
				c0.1,0.5,0.7,0.9,1.2,0.7c0.3-0.1,0.5-0.2,0.6-0.5c0.1-0.2,0.2-0.5,0.1-0.8C27.3,16.3,26.9,16,26.5,16z"/>
			<path fill="#c5c5c5" d="M35.7,17.5c-1.4,0-2.5-0.9-2.9-2.2c-0.2-0.8-0.1-1.6,0.3-2.3c0.4-0.7,1-1.2,1.8-1.4
				c0.3-0.1,0.5-0.1,0.8-0.1c1.4,0,2.5,0.9,2.9,2.2c0.4,1.6-0.5,3.2-2.1,3.7C36.2,17.5,36,17.5,35.7,17.5z M35.7,13.5
				c-0.1,0-0.2,0-0.3,0c-0.3,0.1-0.5,0.2-0.6,0.5c-0.1,0.2-0.2,0.5-0.1,0.8c0.1,0.5,0.7,0.8,1.2,0.7c0.5-0.1,0.9-0.7,0.7-1.2
				C36.6,13.8,36.2,13.5,35.7,13.5z"/>
		</g>
		<polygon fill="#c5c5c5" points="34.3,31.4 27,18.9 28.7,17.9 33.2,25.6 34.7,16.4 36.7,16.7 		"/>
		<polygon fill="#c5c5c5" points="22.6,26.3 17.9,21.6 19.3,20.2 22,22.8 24.2,18 26,18.8 		"/>
		
			<rect x="12.1" y="20.1" transform="matrix(0.8432 0.5376 -0.5376 0.8432 15.6158 -3.0591)" fill="#c5c5c5" width="2" height="10.3"/>
	</g>
</g>
</svg>
