<?xml version="1.0" encoding="utf-8"?>
<!-- Generator: Adobe Illustrator 18.0.0, SVG Export Plug-In . SVG Version: 6.00 Build 0)  -->
<!DOCTYPE svg PUBLIC "-//W3C//DTD SVG 1.1//EN" "http://www.w3.org/Graphics/SVG/1.1/DTD/svg11.dtd">
<svg version="1.1" id="Layer_1" xmlns="http://www.w3.org/2000/svg" xmlns:xlink="http://www.w3.org/1999/xlink" x="0px" y="0px"
	 viewBox="0 0 48 48" enable-background="new 0 0 48 48" xml:space="preserve">
<g>
	<path fill="none" d="M24,13.5c-3.9,0-7.3,2.1-9.1,5.3"/>
	<path fill="none" d="M34.5,24c0-5.8-4.7-10.5-10.5-10.5h0"/>
	<path fill="none" d="M14.9,18.8c-0.9,1.5-1.4,3.3-1.4,5.2"/>
	<path fill="none" d="M16.6,31.4c1.9,1.9,4.5,3.1,7.4,3.1c5.8,0,10.5-4.7,10.5-10.5"/>
	<path fill="none" d="M13.5,24c0,2.9,1.2,5.5,3.1,7.4"/>
	<path fill="#c5c5c5" d="M12.3,37.1l-0.7-0.7C8.3,33.1,6.5,28.7,6.5,24v-1h8v1c0,2.5,1,4.9,2.8,6.7l0.7,0.7L12.3,37.1z M8.5,25
		c0.2,3.4,1.6,6.6,3.8,9.2l2.8-2.8c-1.5-1.8-2.4-4-2.7-6.4H8.5z"/>
	<path fill="#c5c5c5" d="M41.5,25h-8v-1c0-5.2-4.3-9.5-9.5-9.5h-1v-8h1c9.6,0,17.5,7.9,17.5,17.5V25z M35.5,23h4
		C39,15.2,32.8,9,25,8.5v4C30.5,13,35,17.5,35.5,23z"/>
	<path fill="#c5c5c5" d="M24,41.5c-4.7,0-9.1-1.8-12.4-5.1l-0.7-0.7l5.7-5.7l0.7,0.7c1.8,1.8,4.2,2.8,6.7,2.8c5.2,0,9.5-4.3,9.5-9.5
		v-1h8v1C41.5,33.6,33.6,41.5,24,41.5z M13.8,35.6c2.8,2.5,6.4,3.9,10.2,3.9c8.2,0,15-6.4,15.5-14.5h-4C34.9,30.9,30,35.5,24,35.5
		c-2.7,0-5.3-1-7.4-2.7L13.8,35.6z"/>
	<path fill="#c5c5c5" d="M15.3,20.1l-12.1-7l0.5-0.9C7.8,5,15.6,0.5,24,0.5h1v14h-1c-3.4,0-6.5,1.8-8.2,4.8L15.3,20.1z M5.9,12.4
		l8.7,5c2-2.8,5-4.6,8.4-4.9v-10C16.1,2.8,9.7,6.5,5.9,12.4z"/>
	<path fill="#c5c5c5" d="M24,47.5c-6.3,0-12.2-2.4-16.6-6.9l-0.7-0.7l5.7-5.7L13,35c2.9,2.9,6.8,4.5,11,4.5c8.5,0,15.5-7,15.5-15.5
		v-1h8v1C47.5,37,37,47.5,24,47.5z M9.5,39.9c4,3.6,9.1,5.6,14.5,5.6c11.5,0,21-9.1,21.5-20.5h-4C41,34.2,33.3,41.5,24,41.5
		c-4.3,0-8.4-1.6-11.6-4.4L9.5,39.9z"/>
	<path fill="#c5c5c5" d="M14.5,25h-14v-1c0-4.1,1.1-8.2,3.2-11.7l0.5-0.9l12.1,7l-0.5,0.9c-0.8,1.4-1.3,3.1-1.3,4.7V25z M2.5,23h10
		c0.1-1.3,0.5-2.6,1-3.9l-8.7-5C3.5,16.9,2.7,19.9,2.5,23z"/>
</g>
</svg>
