<?xml version="1.0" encoding="utf-8"?>
<!-- Generator: Adobe Illustrator 18.0.0, SVG Export Plug-In . SVG Version: 6.00 Build 0)  -->
<!DOCTYPE svg PUBLIC "-//W3C//DTD SVG 1.1//EN" "http://www.w3.org/Graphics/SVG/1.1/DTD/svg11.dtd">
<svg version="1.1" id="Layer_1" xmlns="http://www.w3.org/2000/svg" xmlns:xlink="http://www.w3.org/1999/xlink" x="0px" y="0px"
	 viewBox="0 0 48 48" enable-background="new 0 0 48 48" xml:space="preserve">
<g>
	<polygon fill="none" points="7.6,17.7 11.3,31.5 25.1,35.2 35.2,25.1 31.5,11.3 17.7,7.6 	"/>
	<path fill="#c5c5c5" d="M7.6,18.7c-0.1,0-0.2,0-0.3,0L1.2,17c-0.3-0.1-0.6-0.4-0.7-0.7c-0.1-0.3,0-0.7,0.3-1L15.4,0.8
		c0.3-0.3,0.6-0.4,1-0.3c0.3,0.1,0.6,0.4,0.7,0.7l1.6,6.1c0.1,0.3,0,0.7-0.3,1L8.3,18.4C8.1,18.6,7.9,18.7,7.6,18.7z M3.4,15.6
		l3.9,1l9.3-9.3l-1-3.9L3.4,15.6z"/>
	<path fill="#c5c5c5" d="M6.8,37c-0.1,0-0.2,0-0.3,0c-0.3-0.1-0.6-0.4-0.7-0.7L0.5,16.3c-0.1-0.3,0-0.7,0.3-1c0.3-0.3,0.6-0.4,1-0.3
		l6.1,1.6c0.3,0.1,0.6,0.4,0.7,0.7l3.7,13.8c0.1,0.3,0,0.7-0.3,1l-4.5,4.5C7.4,36.9,7.1,37,6.8,37z M2.9,17.5l4.4,16.6l2.9-2.9
		L6.8,18.5L2.9,17.5z"/>
	<path fill="#c5c5c5" d="M31.5,12.3c-0.1,0-0.2,0-0.3,0L17.5,8.6c-0.3-0.1-0.6-0.4-0.7-0.7l-1.6-6.1c-0.1-0.3,0-0.7,0.3-1
		c0.3-0.3,0.6-0.4,1-0.3l19.9,5.3c0.3,0.1,0.6,0.4,0.7,0.7c0.1,0.3,0,0.7-0.3,1L32.2,12C32,12.2,31.8,12.3,31.5,12.3z M18.5,6.8
		l12.7,3.4l2.9-2.9L17.5,2.9L18.5,6.8z"/>
	<path fill="#c5c5c5" d="M41.3,27.7c-0.1,0-0.2,0-0.3,0l-6.1-1.6c-0.3-0.1-0.6-0.4-0.7-0.7l-3.7-13.8c-0.1-0.3,0-0.7,0.3-1l4.5-4.5
		c0.3-0.3,0.6-0.4,1-0.3c0.3,0.1,0.6,0.4,0.7,0.7l5.3,19.9c0.1,0.3,0,0.7-0.3,1C41.8,27.6,41.6,27.7,41.3,27.7z M36,24.3l3.9,1
		L35.5,8.8l-2.9,2.9L36,24.3z"/>
	<path fill="#c5c5c5" d="M26.7,42.3c-0.1,0-0.2,0-0.3,0L6.6,36.9c-0.3-0.1-0.6-0.4-0.7-0.7c-0.1-0.3,0-0.7,0.3-1l4.5-4.5
		c0.3-0.3,0.6-0.4,1-0.3l13.8,3.7c0.3,0.1,0.6,0.4,0.7,0.7l1.6,6.1c0.1,0.3,0,0.7-0.3,1C27.3,42.2,27,42.3,26.7,42.3z M8.8,35.5
		l16.6,4.4l-1-3.9l-12.7-3.4L8.8,35.5z"/>
	<path fill="#c5c5c5" d="M31.9,47.5c-0.1,0-0.2,0-0.3,0c-0.3-0.1-0.6-0.4-0.7-0.7l-1.6-6.1c-0.1-0.3,0-0.7,0.3-1l10.1-10.1
		c0.3-0.3,0.6-0.4,1-0.3l6.1,1.6c0.3,0.1,0.6,0.4,0.7,0.7c0.1,0.3,0,0.7-0.3,1L32.6,47.2C32.4,47.4,32.2,47.5,31.9,47.5z M31.4,40.7
		l1,3.9l12.1-12.1l-3.9-1L31.4,40.7z"/>
</g>
</svg>
