<?xml version="1.0" encoding="utf-8"?>
<!-- Generator: Adobe Illustrator 18.0.0, SVG Export Plug-In . SVG Version: 6.00 Build 0)  -->
<!DOCTYPE svg PUBLIC "-//W3C//DTD SVG 1.1//EN" "http://www.w3.org/Graphics/SVG/1.1/DTD/svg11.dtd">
<svg version="1.1" id="Layer_1" xmlns="http://www.w3.org/2000/svg" xmlns:xlink="http://www.w3.org/1999/xlink" x="0px" y="0px"
	 viewBox="0 0 48 48" enable-background="new 0 0 48 48" xml:space="preserve">
<g>
	<path fill="#c5c5c5" d="M38.9,38.9H9.1V9.1h29.9V38.9z M11.1,36.9h25.9V11.1H11.1V36.9z"/>
	<path fill="#c5c5c5" d="M33.6,33.6H14.4V14.4h19.1V33.6z M16.4,31.6h15.1V16.4H16.4V31.6z"/>
	<polygon fill="#c5c5c5" points="18,10.1 16,10.1 16,2.5 13,2.5 13,0.5 18,0.5 	"/>
	<rect x="23" y="1.5" fill="#c5c5c5" width="2" height="8.6"/>
	<polygon fill="#c5c5c5" points="32,10.1 30,10.1 30,0.5 35,0.5 35,2.5 32,2.5 	"/>
	<polygon fill="#c5c5c5" points="18,47.5 13,47.5 13,45.5 16,45.5 16,37.9 18,37.9 	"/>
	<rect x="23" y="37.9" fill="#c5c5c5" width="2" height="8.6"/>
	<polygon fill="#c5c5c5" points="35,47.5 30,47.5 30,37.9 32,37.9 32,45.5 35,45.5 	"/>
	<polygon fill="#c5c5c5" points="47.5,35 45.5,35 45.5,32 37.9,32 37.9,30 47.5,30 	"/>
	<rect x="37.9" y="23" fill="#c5c5c5" width="8.6" height="2"/>
	<polygon fill="#c5c5c5" points="47.5,18 37.9,18 37.9,16 45.5,16 45.5,13 47.5,13 	"/>
	<polygon fill="#c5c5c5" points="2.5,35 0.5,35 0.5,30 10.1,30 10.1,32 2.5,32 	"/>
	<rect x="1.5" y="23" fill="#c5c5c5" width="8.6" height="2"/>
	<polygon fill="#c5c5c5" points="10.1,18 0.5,18 0.5,13 2.5,13 2.5,16 10.1,16 	"/>
</g>
</svg>
