<?xml version="1.0" encoding="utf-8"?>
<!-- Generator: Adobe Illustrator 18.0.0, SVG Export Plug-In . SVG Version: 6.00 Build 0)  -->
<!DOCTYPE svg PUBLIC "-//W3C//DTD SVG 1.1//EN" "http://www.w3.org/Graphics/SVG/1.1/DTD/svg11.dtd">
<svg version="1.1" id="Layer_1" xmlns="http://www.w3.org/2000/svg" xmlns:xlink="http://www.w3.org/1999/xlink" x="0px" y="0px"
	 viewBox="0 0 48 48" enable-background="new 0 0 48 48" xml:space="preserve">
<g>
	<path fill="#c5c5c5" d="M28.5,47.5h-1c-14.9,0-27-12.1-27-27v-1l8.9,0v1c0,9.9,8.1,18,18,18h1V47.5z M2.5,21.5
		c0.5,13,11,23.4,23.9,23.9v-4.9C16.2,40,8,31.8,7.4,21.5L2.5,21.5z"/>
	<path fill="#c5c5c5" d="M27.5,40.6c-11,0-20-9-20-20s9-20,20-20h1v19h19v1C47.5,31.6,38.5,40.6,27.5,40.6z M26.5,2.5
		c-9.5,0.5-17,8.4-17,18c0,9.9,8.1,18,18,18c9.6,0,17.5-7.6,18-17h-19V2.5z"/>
</g>
</svg>
