<?xml version="1.0" encoding="utf-8"?>
<!-- Generator: Adobe Illustrator 18.0.0, SVG Export Plug-In . SVG Version: 6.00 Build 0)  -->
<!DOCTYPE svg PUBLIC "-//W3C//DTD SVG 1.1//EN" "http://www.w3.org/Graphics/SVG/1.1/DTD/svg11.dtd">
<svg version="1.1" id="Layer_1" xmlns="http://www.w3.org/2000/svg" xmlns:xlink="http://www.w3.org/1999/xlink" x="0px" y="0px"
	 viewBox="0 0 48 48" enable-background="new 0 0 48 48" xml:space="preserve">
<g>
	<path fill="#c5c5c5" d="M18.6,30.3c-0.4,0-0.7-0.2-0.9-0.5l-8.7-15C9,14.6,8.9,14.4,9,14.1c0.1-0.3,0.2-0.5,0.5-0.6
		c2.8-1.6,5.9-2.5,9.1-2.5c3.2,0,6.4,0.8,9.2,2.5c0.2,0.1,0.4,0.4,0.5,0.6c0.1,0.3,0,0.5-0.1,0.8l-8.7,15
		C19.3,30.2,19,30.3,18.6,30.3z M11.4,14.7l7.3,12.6l7.3-12.6C21.4,12.5,15.9,12.5,11.4,14.7z"/>
	<path fill="#c5c5c5" d="M18.7,47.7c-6.5,0-12.6-3.5-15.9-9.2c-2.4-4.2-3.1-9.2-1.8-13.9c1.3-4.7,4.3-8.7,8.5-11.1
		c0.5-0.3,1.1-0.1,1.4,0.4L19,28l14.1-8.2c0.5-0.3,1.1-0.1,1.4,0.4c2.4,4.2,3.1,9.2,1.8,13.9c-1.3,4.7-4.3,8.7-8.5,11.1
		C25,46.8,21.9,47.7,18.7,47.7z M9.6,15.7c-3.3,2.2-5.7,5.5-6.7,9.4c-1.1,4.2-0.5,8.6,1.6,12.4c2.9,5,8.3,8.2,14.1,8.2
		c2.8,0,5.7-0.8,8.1-2.2c3.8-2.2,6.5-5.7,7.6-9.9c1-3.9,0.6-7.9-1.2-11.5l-14.1,8.1c-0.5,0.3-1.1,0.1-1.4-0.4L9.6,15.7z"/>
	<path fill="#c5c5c5" d="M28.6,19.4l11-19.1l0.9,0.5c2.8,1.6,5.1,3.9,6.7,6.7l0.5,0.9L28.6,19.4z M40.3,3.1L34.1,14l10.9-6.3
		C43.7,5.9,42.2,4.3,40.3,3.1z"/>
</g>
</svg>
