<?xml version="1.0" encoding="utf-8"?>
<!-- Generator: Adobe Illustrator 18.0.0, SVG Export Plug-In . SVG Version: 6.00 Build 0)  -->
<!DOCTYPE svg PUBLIC "-//W3C//DTD SVG 1.1//EN" "http://www.w3.org/Graphics/SVG/1.1/DTD/svg11.dtd">
<svg version="1.1" id="Layer_1" xmlns="http://www.w3.org/2000/svg" xmlns:xlink="http://www.w3.org/1999/xlink" x="0px" y="0px"
	 viewBox="0 0 48 48" enable-background="new 0 0 48 48" xml:space="preserve">
<g>
	<g>
		<rect x="1" y="45.5" fill="#c5c5c5" width="45" height="2"/>
		<path fill="#c5c5c5" d="M14.9,47.5H6.4v-17h8.4V47.5z M8.4,45.5h4.4v-13H8.4V45.5z"/>
		<path fill="#c5c5c5" d="M27.7,47.5h-8.4v-32h8.4V47.5z M21.3,45.5h4.4v-28h-4.4V45.5z"/>
		<path fill="#c5c5c5" d="M40.6,47.5h-8.4v-22h8.4V47.5z M34.1,45.5h4.4v-18h-4.4V45.5z"/>
	</g>
	<g>
		<path fill="#c5c5c5" d="M21.4,28L21.4,28c-3.9,0-7.6-2.1-9.5-5.5c-3-5.3-1.2-12,4-15c1.7-1,3.6-1.5,5.5-1.5c3.9,0,7.6,2.1,9.5,5.5
			c1.5,2.5,1.9,5.5,1.1,8.3c-0.8,2.8-2.6,5.2-5.1,6.7C25.2,27.5,23.3,28,21.4,28z M21.3,8c-1.6,0-3.1,0.4-4.5,1.2
			c-4.3,2.5-5.8,8-3.3,12.3c1.6,2.8,4.6,4.5,7.8,4.5h0c1.6,0,3.1-0.4,4.5-1.2c2.1-1.2,3.6-3.1,4.2-5.5c0.6-2.3,0.3-4.7-0.9-6.8
			C27.5,9.7,24.6,8,21.3,8z"/>
		<path fill="#c5c5c5" d="M33.9,14.4L33.6,13c-0.2-0.9-0.5-1.7-1-2.5c-0.5-0.8-1-1.5-1.7-2.1l-1-0.9L41,1c0.6-0.4,1.3-0.5,2-0.5
			c1.4,0,2.8,0.8,3.5,2C47.6,4.4,46.9,6.9,45,8L33.9,14.4z M33.2,7.9c0.4,0.5,0.8,1.1,1.2,1.6c0.3,0.6,0.6,1.2,0.8,1.8L44,6.2
			c1-0.6,1.3-1.8,0.7-2.7c-0.5-0.9-1.8-1.3-2.7-0.7L33.2,7.9z"/>
	</g>
</g>
</svg>
