<?xml version="1.0" encoding="utf-8"?>
<!-- Generator: Adobe Illustrator 18.0.0, SVG Export Plug-In . SVG Version: 6.00 Build 0)  -->
<!DOCTYPE svg PUBLIC "-//W3C//DTD SVG 1.1//EN" "http://www.w3.org/Graphics/SVG/1.1/DTD/svg11.dtd">
<svg version="1.1" id="Layer_1" xmlns="http://www.w3.org/2000/svg" xmlns:xlink="http://www.w3.org/1999/xlink" x="0px" y="0px"
	 viewBox="0 0 48 48" enable-background="new 0 0 48 48" xml:space="preserve">
<g>
	<g>
		<path fill="#c5c5c5" d="M31.8,41h-0.6c-3.8,0-7.1-3.3-8.1-8.3C20.7,22.1,18.9,22,18.9,22c0,0-1.8,0.1-4.1,10.7
			c-1.1,4.9-4.3,8.3-8.1,8.3H6v-2h0.6c2.8,0,5.3-2.8,6.2-6.7C15.2,21.4,17.3,20,18.9,20c1.6,0,3.7,1.4,6.1,12.3
			c0.8,3.9,3.4,6.7,6.2,6.7h0.6V41z"/>
		<path fill="#c5c5c5" d="M43,41h-0.6c-3.8,0-7.1-3.3-8.1-8.3C31.9,22.1,30.1,22,30.1,22c0,0-1.8,0.1-4.1,10.7
			c-1.1,4.9-4.3,8.3-8.1,8.3h-0.6v-2h0.6c2.8,0,5.3-2.8,6.2-6.7C26.4,21.4,28.5,20,30.1,20c1.6,0,3.7,1.4,6.1,12.3
			c0.8,3.9,3.4,6.7,6.2,6.7H43V41z"/>
	</g>
	<path fill="#c5c5c5" d="M47,47H2c-0.6,0-1-0.4-1-1V1h2v44h44V47z"/>
</g>
</svg>
