<?xml version="1.0" encoding="utf-8"?>
<!-- Generator: Adobe Illustrator 18.0.0, SVG Export Plug-In . SVG Version: 6.00 Build 0)  -->
<!DOCTYPE svg PUBLIC "-//W3C//DTD SVG 1.1//EN" "http://www.w3.org/Graphics/SVG/1.1/DTD/svg11.dtd">
<svg version="1.1" id="Layer_1" xmlns="http://www.w3.org/2000/svg" xmlns:xlink="http://www.w3.org/1999/xlink" x="0px" y="0px"
	 viewBox="0 0 48 48" enable-background="new 0 0 48 48" xml:space="preserve">
<g>
	<path fill="none" d="M17.5,35.2c1.9,1.1,4.1,1.8,6.5,1.8c2.4,0,4.6-0.6,6.5-1.8"/>
	<path fill="none" d="M11,24c0,4.8,2.6,9,6.5,11.2"/>
	<path fill="none" d="M30.5,35.2C34.4,33,37,28.8,37,24"/>
	<path fill="none" d="M37,24c0-4.8-2.6-9-6.5-11.2"/>
	<path fill="none" d="M17.5,12.8C13.6,15,11,19.2,11,24"/>
	<path fill="none" d="M30.5,12.8C28.6,11.6,26.4,11,24,11c-2.4,0-4.6,0.6-6.5,1.8"/>
	<path fill="#c5c5c5" d="M35.2,44.5c-0.4,0-0.7-0.2-0.9-0.5l-4.8-8.2c-0.3-0.5-0.1-1.1,0.4-1.4c3.7-2.1,6-6.1,6-10.4
		c0-0.6,0.4-1,1-1h9.5c0.4,0,0.7,0.2,0.9,0.5c0.2,0.3,0.2,0.7,0,1L36.1,44C35.9,44.3,35.6,44.5,35.2,44.5z M31.8,35.6l3.4,5.9
		L44.8,25H38C37.7,29.3,35.4,33.2,31.8,35.6z"/>
	<path fill="#c5c5c5" d="M12.7,44.5L12.7,44.5c-0.4,0-0.7-0.2-0.9-0.5L0.6,24.5c-0.2-0.3-0.2-0.7,0-1C0.8,23.2,1.1,23,1.5,23H11
		c0.6,0,1,0.4,1,1c0,4.3,2.3,8.2,6,10.4c0.5,0.3,0.6,0.9,0.4,1.4L13.6,44C13.4,44.3,13.1,44.5,12.7,44.5z M3.2,25l9.5,16.5l3.4-5.9
		c-3.5-2.4-5.8-6.3-6.1-10.6H3.2z"/>
	<path fill="#c5c5c5" d="M46.5,25H37c-0.6,0-1-0.4-1-1c0-4.3-2.3-8.2-6-10.4c-0.5-0.3-0.6-0.9-0.4-1.4L34.4,4c0.4-0.6,1.4-0.6,1.7,0
		l11.3,19.5c0.2,0.3,0.2,0.7,0,1C47.2,24.8,46.9,25,46.5,25z M38,23h6.8L35.2,6.5l-3.4,5.9C35.4,14.8,37.7,18.7,38,23z"/>
	<path fill="#c5c5c5" d="M35.2,44.5H12.7c-0.4,0-0.7-0.2-0.9-0.5c-0.2-0.3-0.2-0.7,0-1l4.8-8.2c0.1-0.2,0.4-0.4,0.6-0.5
		c0.3-0.1,0.5,0,0.8,0.1c3.7,2.1,8.3,2.1,12,0c0.2-0.1,0.5-0.2,0.8-0.1c0.3,0.1,0.5,0.2,0.6,0.5l4.8,8.2c0.2,0.3,0.2,0.7,0,1
		C35.9,44.3,35.6,44.5,35.2,44.5z M14.5,42.5h19l-3.4-5.9c-3.8,1.9-8.4,1.9-12.2,0L14.5,42.5z"/>
	<path fill="#c5c5c5" d="M30.5,13.8c-0.2,0-0.3,0-0.5-0.1c-3.7-2.1-8.3-2.1-12,0c-0.2,0.1-0.5,0.2-0.8,0.1c-0.3-0.1-0.5-0.2-0.6-0.5
		L11.9,5c-0.2-0.3-0.2-0.7,0-1c0.2-0.3,0.5-0.5,0.9-0.5h22.5c0.4,0,0.7,0.2,0.9,0.5c0.2,0.3,0.2,0.7,0,1l-4.8,8.2
		c-0.1,0.2-0.4,0.4-0.6,0.5C30.7,13.7,30.6,13.8,30.5,13.8z M24,10c2.1,0,4.2,0.5,6.1,1.4l3.4-5.9h-19l3.4,5.9
		C19.8,10.5,21.9,10,24,10z"/>
	<path fill="#c5c5c5" d="M11,25H1.5c-0.4,0-0.7-0.2-0.9-0.5c-0.2-0.3-0.2-0.7,0-1L11.9,4c0.4-0.6,1.4-0.6,1.7,0l4.8,8.2
		c0.3,0.5,0.1,1.1-0.4,1.4c-3.7,2.1-6,6.1-6,10.4C12,24.6,11.6,25,11,25z M3.2,23H10c0.3-4.3,2.6-8.2,6.1-10.6l-3.4-5.9L3.2,23z"/>
</g>
</svg>
