<?xml version="1.0" encoding="utf-8"?>
<!-- Generator: Adobe Illustrator 18.0.0, SVG Export Plug-In . SVG Version: 6.00 Build 0)  -->
<!DOCTYPE svg PUBLIC "-//W3C//DTD SVG 1.1//EN" "http://www.w3.org/Graphics/SVG/1.1/DTD/svg11.dtd">
<svg version="1.1" id="Layer_1" xmlns="http://www.w3.org/2000/svg" xmlns:xlink="http://www.w3.org/1999/xlink" x="0px" y="0px"
	 viewBox="0 0 48 48" enable-background="new 0 0 48 48" xml:space="preserve">
<g>
	<g>
		<rect x="1.5" y="44.4" fill="#c5c5c5" width="45" height="2"/>
	</g>
	<g>
		<path fill="#c5c5c5" d="M10.8,25.5c-1,0-1.8-0.7-2-1.6c-0.2-1.1,0.5-2.1,1.6-2.4c1.1-0.2,2.1,0.5,2.4,1.6c0.2,1.1-0.5,2.1-1.6,2.4
			C11.1,25.5,10.9,25.5,10.8,25.5z"/>
		<path fill="#c5c5c5" d="M21.8,18.7c-1,0-1.8-0.7-2-1.6c-0.2-1.1,0.5-2.1,1.6-2.4c1.1-0.2,2.1,0.5,2.4,1.6c0.1,0.5,0,1.1-0.3,1.5
			c-0.3,0.4-0.7,0.7-1.3,0.9C22.1,18.7,22,18.7,21.8,18.7z"/>
		<path fill="#c5c5c5" d="M32.6,25.8c-1,0-1.8-0.7-2-1.6c-0.2-1.1,0.5-2.1,1.6-2.4c1.1-0.2,2.1,0.5,2.4,1.6c0.2,1.1-0.5,2.1-1.6,2.4
			C32.9,25.8,32.8,25.8,32.6,25.8z"/>
		<path fill="#c5c5c5" d="M38.9,11.3c-1,0-1.8-0.7-2-1.6c-0.2-1.1,0.5-2.1,1.6-2.4c1.1-0.2,2.1,0.5,2.4,1.6c0.1,0.5,0,1.1-0.3,1.5
			c-0.3,0.4-0.7,0.7-1.3,0.9C39.1,11.2,39,11.3,38.9,11.3z"/>
		<polygon fill="#c5c5c5" points="4.5,34.5 2.9,33.4 10.1,22.8 21.9,15.5 32.2,22.3 38.1,8.7 43.5,1.6 45.1,2.8 39.8,9.8 33.1,25.3 
			21.8,17.9 11.5,24.2 		"/>
	</g>
</g>
</svg>
