<?xml version="1.0" encoding="utf-8"?>
<!-- Generator: Adobe Illustrator 18.0.0, SVG Export Plug-In . SVG Version: 6.00 Build 0)  -->
<!DOCTYPE svg PUBLIC "-//W3C//DTD SVG 1.1//EN" "http://www.w3.org/Graphics/SVG/1.1/DTD/svg11.dtd">
<svg version="1.1" id="Layer_1" xmlns="http://www.w3.org/2000/svg" xmlns:xlink="http://www.w3.org/1999/xlink" x="0px" y="0px"
	 viewBox="0 0 48 48" enable-background="new 0 0 48 48" xml:space="preserve">
<g>
	<g>
		<rect x="1.5" y="45" fill="#c5c5c5" width="45" height="2"/>
	</g>
	<g>
		<g>
			<path fill="#c5c5c5" d="M6.9,26.7c-1.1,0-2.1-0.4-2.8-1.2c-0.8-0.8-1.2-1.8-1.2-2.8c0-1.1,0.4-2.1,1.2-2.8c1.5-1.5,4.1-1.5,5.7,0
				c0.8,0.8,1.2,1.8,1.2,2.8c0,1.1-0.4,2.1-1.2,2.8C9,26.2,8,26.7,6.9,26.7z M6.9,20.7c-0.5,0-1,0.2-1.4,0.6
				c-0.4,0.4-0.6,0.9-0.6,1.4c0,0.5,0.2,1,0.6,1.4c0.8,0.8,2.1,0.8,2.8,0c0.4-0.4,0.6-0.9,0.6-1.4c0-0.5-0.2-1-0.6-1.4
				C8,20.9,7.5,20.7,6.9,20.7z"/>
			<path fill="#c5c5c5" d="M18.3,38c-1.1,0-2.1-0.4-2.8-1.2c-0.8-0.8-1.2-1.8-1.2-2.8c0-1.1,0.4-2.1,1.2-2.8c1.5-1.5,4.1-1.5,5.7,0
				c0.8,0.8,1.2,1.8,1.2,2.8c0,1.1-0.4,2.1-1.2,2.8C20.3,37.6,19.3,38,18.3,38z M18.3,32c-0.5,0-1,0.2-1.4,0.6
				c-0.4,0.4-0.6,0.9-0.6,1.4c0,0.5,0.2,1,0.6,1.4c0.8,0.8,2.1,0.8,2.8,0c0.4-0.4,0.6-0.9,0.6-1.4c0-0.5-0.2-1-0.6-1.4
				C19.3,32.2,18.8,32,18.3,32z"/>
		</g>
		<g>
			<path fill="#c5c5c5" d="M29.7,9c-1.1,0-2.1-0.4-2.8-1.2c-0.8-0.8-1.2-1.8-1.2-2.8s0.4-2.1,1.2-2.8C27.7,1.4,28.7,1,29.7,1
				c1.1,0,2.1,0.4,2.8,1.2c0.8,0.8,1.2,1.8,1.2,2.8s-0.4,2.1-1.2,2.8C31.8,8.6,30.8,9,29.7,9z M29.7,3c-0.5,0-1,0.2-1.4,0.6
				C28,4,27.7,4.5,27.7,5s0.2,1,0.6,1.4c0.8,0.8,2.1,0.8,2.8,0C31.5,6,31.7,5.5,31.7,5s-0.2-1-0.6-1.4C30.8,3.2,30.3,3,29.7,3z"/>
			<path fill="#c5c5c5" d="M41.1,20.3c-1.1,0-2.1-0.4-2.8-1.2c-0.8-0.8-1.2-1.8-1.2-2.8c0-1.1,0.4-2.1,1.2-2.8
				c0.8-0.8,1.8-1.2,2.8-1.2c1.1,0,2.1,0.4,2.8,1.2c0.8,0.8,1.2,1.8,1.2,2.8c0,1.1-0.4,2.1-1.2,2.8C43.1,19.9,42.1,20.3,41.1,20.3z
				 M41.1,14.3c-0.5,0-1,0.2-1.4,0.6c-0.4,0.4-0.6,0.9-0.6,1.4c0,0.5,0.2,1,0.6,1.4c0.8,0.8,2.1,0.8,2.8,0c0.4-0.4,0.6-0.9,0.6-1.4
				c0-0.5-0.2-1-0.6-1.4C42.1,14.5,41.6,14.3,41.1,14.3z"/>
		</g>
		<rect x="30.4" y="9.7" transform="matrix(0.7071 0.7071 -0.7071 0.7071 17.909 -21.908)" fill="#c5c5c5" width="10" height="2"/>
		<rect x="23" y="6.9" transform="matrix(0.9417 0.3365 -0.3365 0.9417 7.9601 -6.9402)" fill="#c5c5c5" width="2" height="25.2"/>
		<rect x="7.6" y="27.3" transform="matrix(0.7071 0.7071 -0.7071 0.7071 23.7166 -0.6153)" fill="#c5c5c5" width="10" height="2"/>
	</g>
</g>
</svg>
