<?xml version="1.0" encoding="utf-8"?>
<!-- Generator: Adobe Illustrator 18.0.0, SVG Export Plug-In . SVG Version: 6.00 Build 0)  -->
<!DOCTYPE svg PUBLIC "-//W3C//DTD SVG 1.1//EN" "http://www.w3.org/Graphics/SVG/1.1/DTD/svg11.dtd">
<svg version="1.1" id="Layer_1" xmlns="http://www.w3.org/2000/svg" xmlns:xlink="http://www.w3.org/1999/xlink" x="0px" y="0px"
	 viewBox="0 0 48 48" enable-background="new 0 0 48 48" xml:space="preserve">
<g>
	<path fill="#c5c5c5" d="M18.7,36.9c-6.5,0-12.5-3.5-15.8-9.1c-5-8.7-2-19.8,6.7-24.8c2.8-1.6,5.9-2.4,9.1-2.4
		c6.5,0,12.5,3.5,15.8,9.1c3.2,5.6,3.2,12.6,0,18.2c-0.1,0.2-0.3,0.4-0.6,0.5c-0.3,0.1-0.5,0-0.8-0.1l-11.7-6.7l6.7,11.7
		c0.1,0.2,0.2,0.5,0.1,0.8c-0.1,0.3-0.2,0.5-0.5,0.6C25,36,21.9,36.9,18.7,36.9z M18.7,2.5c-2.8,0-5.6,0.8-8.1,2.2
		C2.9,9.1,0.2,19,4.7,26.8c2.9,5,8.3,8.1,14,8.1c2.5,0,5-0.6,7.2-1.7l-8.1-14c-0.2-0.4-0.2-0.9,0.2-1.2c0.3-0.3,0.8-0.4,1.2-0.2
		l14,8.1c2.4-4.8,2.2-10.6-0.5-15.3C29.8,5.6,24.4,2.5,18.7,2.5z"/>
	<path fill="#c5c5c5" d="M39.5,47.5L28.5,28.6l18.9,10.9L47,40.3c-1.6,2.8-3.9,5.1-6.7,6.7L39.5,47.5z M34,34l6.2,10.8
		c1.8-1.2,3.4-2.8,4.6-4.6L34,34z"/>
</g>
</svg>
