<?xml version="1.0" encoding="utf-8"?>
<!-- Generator: Adobe Illustrator 18.0.0, SVG Export Plug-In . SVG Version: 6.00 Build 0)  -->
<!DOCTYPE svg PUBLIC "-//W3C//DTD SVG 1.1//EN" "http://www.w3.org/Graphics/SVG/1.1/DTD/svg11.dtd">
<svg version="1.1" id="Layer_1" xmlns="http://www.w3.org/2000/svg" xmlns:xlink="http://www.w3.org/1999/xlink" x="0px" y="0px"
	 viewBox="0 0 48 48" enable-background="new 0 0 48 48" xml:space="preserve">
<g>
	<path fill="#c5c5c5" d="M20.6,24.4H1.5c-0.6,0-1-0.4-1-1c0-11.1,9-20.1,20.1-20.1c0.6,0,1,0.4,1,1v19.1
		C21.6,23.9,21.2,24.4,20.6,24.4z M2.5,22.4h17.1V5.2C10.4,5.7,3,13.1,2.5,22.4z"/>
	<path fill="#c5c5c5" d="M46.5,21.6H27.4c-0.6,0-1-0.4-1-1V1.5c0-0.6,0.4-1,1-1c11.1,0,20.1,9,20.1,20.1
		C47.5,21.2,47.1,21.6,46.5,21.6z M28.4,19.6h17.1C45,10.4,37.6,3,28.4,2.5V19.6z"/>
	<path fill="#c5c5c5" d="M20.6,47.5c-11.1,0-20.1-9-20.1-20.1c0-0.6,0.4-1,1-1h38.3c0.6,0,1,0.4,1,1C40.8,38.5,31.7,47.5,20.6,47.5z
		 M2.5,28.4C3,37.9,11,45.5,20.6,45.5c9.7,0,17.6-7.6,18.1-17.1H2.5z"/>
</g>
</svg>
