<?xml version="1.0" encoding="utf-8"?>
<!-- Generator: Adobe Illustrator 18.0.0, SVG Export Plug-In . SVG Version: 6.00 Build 0)  -->
<!DOCTYPE svg PUBLIC "-//W3C//DTD SVG 1.1//EN" "http://www.w3.org/Graphics/SVG/1.1/DTD/svg11.dtd">
<svg version="1.1" id="Layer_1" xmlns="http://www.w3.org/2000/svg" xmlns:xlink="http://www.w3.org/1999/xlink" x="0px" y="0px"
	 viewBox="0 0 48 48" enable-background="new 0 0 48 48" xml:space="preserve">
<g>
	<path fill="#c5c5c5" d="M24,25c-0.3,0-0.5-0.1-0.7-0.3L7.4,8.8C7.2,8.6,7.1,8.4,7.1,8.1c0-0.3,0.1-0.5,0.3-0.7
		C11.8,2.9,17.7,0.5,24,0.5c6.3,0,12.2,2.4,16.6,6.9c0.2,0.2,0.3,0.4,0.3,0.7c0,0.3-0.1,0.5-0.3,0.7L24.7,24.7
		C24.5,24.9,24.3,25,24,25z M9.5,8.1L24,22.6L38.5,8.1c-4-3.6-9.1-5.6-14.5-5.6C18.6,2.5,13.5,4.5,9.5,8.1z"/>
	<path fill="#c5c5c5" d="M24,47.5c-6.3,0-12.2-2.4-16.6-6.9c-9.2-9.2-9.2-24.1,0-33.2c0.4-0.4,1-0.4,1.4,0L24,22.6L39.2,7.4
		c0.4-0.4,1-0.4,1.4,0c9.2,9.2,9.2,24.1,0,33.2C36.2,45.1,30.3,47.5,24,47.5z M8.1,9.5c-7.7,8.4-7.5,21.5,0.7,29.7
		c4.1,4.1,9.5,6.3,15.2,6.3c5.7,0,11.1-2.2,15.2-6.3c8.1-8.1,8.4-21.3,0.7-29.7L24.7,24.7c-0.4,0.4-1,0.4-1.4,0L8.1,9.5z"/>
</g>
</svg>
