<?xml version="1.0" encoding="utf-8"?>
<!-- Generator: Adobe Illustrator 18.0.0, SVG Export Plug-In . SVG Version: 6.00 Build 0)  -->
<!DOCTYPE svg PUBLIC "-//W3C//DTD SVG 1.1//EN" "http://www.w3.org/Graphics/SVG/1.1/DTD/svg11.dtd">
<svg version="1.1" id="Layer_1" xmlns="http://www.w3.org/2000/svg" xmlns:xlink="http://www.w3.org/1999/xlink" x="0px" y="0px"
	 viewBox="0 0 48 48" enable-background="new 0 0 48 48" xml:space="preserve">
<g>
	<path fill="#c5c5c5" d="M24,47.5C11,47.5,0.5,37,0.5,24S11,0.5,24,0.5c0.6,0,1,0.4,1,1V23h21.5c0.6,0,1,0.4,1,1
		C47.5,37,37,47.5,24,47.5z M23,2.5C11.6,3,2.5,12.5,2.5,24c0,11.9,9.6,21.5,21.5,21.5c11.5,0,21-9.1,21.5-20.5H24c-0.6,0-1-0.4-1-1
		V2.5z"/>
</g>
</svg>
