<?xml version="1.0" encoding="utf-8"?>
<!-- Generator: Adobe Illustrator 18.0.0, SVG Export Plug-In . SVG Version: 6.00 Build 0)  -->
<!DOCTYPE svg PUBLIC "-//W3C//DTD SVG 1.1//EN" "http://www.w3.org/Graphics/SVG/1.1/DTD/svg11.dtd">
<svg version="1.1" id="Layer_1" xmlns="http://www.w3.org/2000/svg" xmlns:xlink="http://www.w3.org/1999/xlink" x="0px" y="0px"
	 viewBox="0 0 48 48" enable-background="new 0 0 48 48" xml:space="preserve">
<g>
	<g>
		<path fill="#c5c5c5" d="M2.4,40.6l-1.4-1.4l16.3-16.3c0.4-0.4,1-0.4,1.4,0l9.9,9.9l17.4-17.4l1.4,1.4L29.2,34.9
			c-0.4,0.4-1,0.4-1.4,0L17.9,25L2.4,40.6z"/>
		<path fill="#c5c5c5" d="M2.2,19.5l-1-1.7l13.6-8.3c0.3-0.2,0.6-0.2,0.9-0.1l8.4,3.9l9.8-7c0.2-0.1,0.4-0.2,0.6-0.2h12.2v2H34.8
			l-10.1,7.2c-0.3,0.2-0.7,0.2-1,0.1l-8.5-3.9L2.2,19.5z"/>
	</g>
	<path fill="#c5c5c5" d="M46.6,47h-45c-0.6,0-1-0.4-1-1V1h2v44h44V47z"/>
</g>
</svg>
