<?xml version="1.0" encoding="utf-8"?>
<!-- Generator: Adobe Illustrator 18.0.0, SVG Export Plug-In . SVG Version: 6.00 Build 0)  -->
<!DOCTYPE svg PUBLIC "-//W3C//DTD SVG 1.1//EN" "http://www.w3.org/Graphics/SVG/1.1/DTD/svg11.dtd">
<svg version="1.1" id="Layer_1" xmlns="http://www.w3.org/2000/svg" xmlns:xlink="http://www.w3.org/1999/xlink" x="0px" y="0px"
	 viewBox="0 0 48 48" enable-background="new 0 0 48 48" xml:space="preserve">
<g>
	<g>
		<polygon fill="#c5c5c5" points="46.7,47.3 0.7,47.3 0.7,1.3 2.7,1.3 2.7,45.3 46.7,45.3 		"/>
		<path fill="#c5c5c5" d="M15.6,47.3H7.1v-14h8.4V47.3z M9.1,45.3h4.4v-10H9.1V45.3z"/>
		<path fill="#c5c5c5" d="M28.4,47.3H20v-24h8.4V47.3z M22,45.3h4.4v-20H22V45.3z"/>
		<path fill="#c5c5c5" d="M41.3,47.3h-8.4v-34h8.4V47.3z M34.9,45.3h4.4v-30h-4.4V45.3z"/>
	</g>
	<polygon fill="#c5c5c5" points="8.5,30.4 7.8,28.6 13.9,26.2 20.4,14.6 27,14.9 33.4,6.5 39.9,7.5 45.8,0.7 47.3,2 40.7,9.6 
		34.3,8.6 27.9,17 21.6,16.7 15.3,27.8 	"/>
</g>
</svg>
