<?xml version="1.0" encoding="utf-8"?>
<!-- Generator: Adobe Illustrator 18.0.0, SVG Export Plug-In . SVG Version: 6.00 Build 0)  -->
<!DOCTYPE svg PUBLIC "-//W3C//DTD SVG 1.1//EN" "http://www.w3.org/Graphics/SVG/1.1/DTD/svg11.dtd">
<svg version="1.1" id="Layer_1" xmlns="http://www.w3.org/2000/svg" xmlns:xlink="http://www.w3.org/1999/xlink" x="0px" y="0px"
	 viewBox="0 0 48 48" enable-background="new 0 0 48 48" xml:space="preserve">
<g>
	<path fill="#c5c5c5" d="M14.6,47H6.2V33h8.4V47z M8.2,45h4.4V35H8.2V45z"/>
	<path fill="#c5c5c5" d="M27.5,47H19V23h8.4V47z M21,45h4.4V25H21V45z"/>
	<path fill="#c5c5c5" d="M40.3,47h-8.4V13h8.4V47z M33.9,45h4.4V15h-4.4V45z"/>
	<g>
		<polygon fill="#c5c5c5" points="11.3,27.4 9.5,26.7 16.3,9.3 22.9,12.7 29.3,2.7 35.9,5.5 38.5,2.9 39.9,4.3 36.3,7.9 30.1,5.2 
			23.6,15.3 17.4,12.1 		"/>
		<g>
			<polygon fill="#c5c5c5" points="35.8,1 41.8,7.1 41.8,1 			"/>
		</g>
	</g>
</g>
</svg>
