<?xml version="1.0" encoding="utf-8"?>
<!-- Generator: Adobe Illustrator 18.0.0, SVG Export Plug-In . SVG Version: 6.00 Build 0)  -->
<!DOCTYPE svg PUBLIC "-//W3C//DTD SVG 1.1//EN" "http://www.w3.org/Graphics/SVG/1.1/DTD/svg11.dtd">
<svg version="1.1" id="Layer_1" xmlns="http://www.w3.org/2000/svg" xmlns:xlink="http://www.w3.org/1999/xlink" x="0px" y="0px"
	 viewBox="0 0 48 48" enable-background="new 0 0 48 48" xml:space="preserve">
<g>
	<path fill="#c5c5c5" d="M12.3,47.7H3.5V36h8.8V47.7z M5.5,45.7h4.8V38H5.5V45.7z"/>
	<path fill="#c5c5c5" d="M25.8,47.7H17V25.5h8.8V47.7z M19,45.7h4.8V27.5H19V45.7z"/>
	<path fill="#c5c5c5" d="M39.3,47.7h-8.8V15h8.8V47.7z M32.5,45.7h4.8V17h-4.8V45.7z"/>
	<path fill="#c5c5c5" d="M39.3,12.2h-8.8V9.9h-5.2l9.6-9.6l9.6,9.6h-5.2V12.2z M32.5,10.2h4.8V7.9h2.4l-4.8-4.8l-4.8,4.8h2.4V10.2z"
		/>
</g>
</svg>
