<?xml version="1.0" encoding="utf-8"?>
<!-- Generator: Adobe Illustrator 18.0.0, SVG Export Plug-In . SVG Version: 6.00 Build 0)  -->
<!DOCTYPE svg PUBLIC "-//W3C//DTD SVG 1.1//EN" "http://www.w3.org/Graphics/SVG/1.1/DTD/svg11.dtd">
<svg version="1.1" id="Layer_1" xmlns="http://www.w3.org/2000/svg" xmlns:xlink="http://www.w3.org/1999/xlink" x="0px" y="0px"
	 viewBox="0 0 48 48" enable-background="new 0 0 48 48" xml:space="preserve">
<g>
	<polygon fill="#c5c5c5" points="47,47 1,47 1,1 3,1 3,45 47,45 	"/>
	<path fill="#c5c5c5" d="M15.9,47H7.4V23h8.4V47z M9.4,45h4.4V25H9.4V45z"/>
	<path fill="#c5c5c5" d="M15.9,21H7.4v-6h8.4V21z M9.4,19h4.4v-2H9.4V19z"/>
	<path fill="#c5c5c5" d="M28.7,47h-8.4V15h8.4V47z M22.3,45h4.4V17h-4.4V45z"/>
	<path fill="#c5c5c5" d="M28.7,13h-8.4V7h8.4V13z M22.3,11h4.4V9h-4.4V11z"/>
	<path fill="#c5c5c5" d="M41.6,47h-8.4V28h8.4V47z M35.1,45h4.4V30h-4.4V45z"/>
	<path fill="#c5c5c5" d="M41.6,26h-8.4v-6h8.4V26z M35.1,24h4.4v-2h-4.4V24z"/>
</g>
</svg>
