<?xml version="1.0" encoding="utf-8"?>
<!-- Generator: Adobe Illustrator 18.0.0, SVG Export Plug-In . SVG Version: 6.00 Build 0)  -->
<!DOCTYPE svg PUBLIC "-//W3C//DTD SVG 1.1//EN" "http://www.w3.org/Graphics/SVG/1.1/DTD/svg11.dtd">
<svg version="1.1" id="Layer_1" xmlns="http://www.w3.org/2000/svg" xmlns:xlink="http://www.w3.org/1999/xlink" x="0px" y="0px"
	 viewBox="0 0 48 48" enable-background="new 0 0 48 48" xml:space="preserve">
<g>
	<polygon fill="#c5c5c5" points="47,47 1,47 1,1 3,1 3,45 47,45 	"/>
	<path fill="#c5c5c5" d="M19.9,47h-8.4V33h8.4V47z M13.4,45h4.4V35h-4.4V45z"/>
	<path fill="#c5c5c5" d="M19.9,35h-8.4V21h8.4V35z M13.4,33h4.4V23h-4.4V33z"/>
	<path fill="#c5c5c5" d="M19.9,23h-8.4v-8h8.4V23z M13.4,21h4.4v-4h-4.4V21z"/>
	<path fill="#c5c5c5" d="M31.7,11h-8.4V3h8.4V11z M25.3,9h4.4V5h-4.4V9z"/>
	<g>
		<path fill="#c5c5c5" d="M31.7,47h-8.4V33h8.4V47z M25.3,45h4.4V35h-4.4V45z"/>
		<path fill="#c5c5c5" d="M31.7,35h-8.4V21h8.4V35z M25.3,33h4.4V23h-4.4V33z"/>
		<path fill="#c5c5c5" d="M31.7,23h-8.4V9h8.4V23z M25.3,21h4.4V11h-4.4V21z"/>
	</g>
	<path fill="#c5c5c5" d="M43.6,47h-8.4V33h8.4V47z M37.1,45h4.4V35h-4.4V45z"/>
	<path fill="#c5c5c5" d="M43.6,35h-8.4V21h8.4V35z M37.1,33h4.4V23h-4.4V33z"/>
	<rect x="2" y="11.3" fill="#c5c5c5" width="4" height="2"/>
	<rect x="2" y="22.5" fill="#c5c5c5" width="4" height="2"/>
	<rect x="2" y="33.8" fill="#c5c5c5" width="4" height="2"/>
</g>
</svg>
