<?xml version="1.0" encoding="utf-8"?>
<!-- Generator: Adobe Illustrator 18.0.0, SVG Export Plug-In . SVG Version: 6.00 Build 0)  -->
<!DOCTYPE svg PUBLIC "-//W3C//DTD SVG 1.1//EN" "http://www.w3.org/Graphics/SVG/1.1/DTD/svg11.dtd">
<svg version="1.1" id="Layer_1" xmlns="http://www.w3.org/2000/svg" xmlns:xlink="http://www.w3.org/1999/xlink" x="0px" y="0px"
	 viewBox="0 0 48 48" enable-background="new 0 0 48 48" xml:space="preserve">
<g>
	<polygon fill="#c5c5c5" points="47,47 1,47 1,1 3,1 3,45 47,45 	"/>
	<path fill="#c5c5c5" d="M39,36.6H1v-8.4h38V36.6z M3,34.6h34v-4.4H3V34.6z"/>
	<path fill="#c5c5c5" d="M27,24.7H1v-8.4h26V24.7z M3,22.7h22v-4.4H3V22.7z"/>
	<path fill="#c5c5c5" d="M15,12.9H1V4.4h14V12.9z M3,10.9h10V6.4H3V10.9z"/>
	<rect x="34.8" y="42" fill="#c5c5c5" width="2" height="4"/>
	<rect x="23.5" y="42" fill="#c5c5c5" width="2" height="4"/>
	<rect x="12.3" y="42" fill="#c5c5c5" width="2" height="4"/>
</g>
</svg>
