<?xml version="1.0" encoding="utf-8"?>
<!-- Generator: Adobe Illustrator 18.0.0, SVG Export Plug-In . SVG Version: 6.00 Build 0)  -->
<!DOCTYPE svg PUBLIC "-//W3C//DTD SVG 1.1//EN" "http://www.w3.org/Graphics/SVG/1.1/DTD/svg11.dtd">
<svg version="1.1" id="Layer_1" xmlns="http://www.w3.org/2000/svg" xmlns:xlink="http://www.w3.org/1999/xlink" x="0px" y="0px"
	 viewBox="0 0 48 48" enable-background="new 0 0 48 48" xml:space="preserve">
<g>
	<polygon fill="#c5c5c5" points="47,47 1,47 1,1 3,1 3,45 47,45 	"/>
	<g>
		<path fill="#c5c5c5" d="M29,38.1H5v-8.4h24V38.1z M7,36.1h20v-4.4H7V36.1z"/>
		<path fill="#c5c5c5" d="M37,38.1h-6v-8.4h6V38.1z M33,36.1h2v-4.4h-2V36.1z"/>
		<path fill="#c5c5c5" d="M37,25.3H5v-8.4h32V25.3z M7,23.3h28v-4.4H7V23.3z"/>
		<path fill="#c5c5c5" d="M45,25.3h-6v-8.4h6V25.3z M41,23.3h2v-4.4h-2V23.3z"/>
		<path fill="#c5c5c5" d="M24,12.4H5V4h19V12.4z M7,10.4h15V6H7V10.4z"/>
		<path fill="#c5c5c5" d="M32,12.4h-6V4h6V12.4z M28,10.4h2V6h-2V10.4z"/>
	</g>
	<rect x="7.4" y="42" fill="#c5c5c5" width="2" height="4"/>
	<rect x="13.9" y="42" fill="#c5c5c5" width="2" height="4"/>
	<rect x="20.3" y="42" fill="#c5c5c5" width="2" height="4"/>
	<rect x="26.7" y="42" fill="#c5c5c5" width="2" height="4"/>
	<rect x="33.1" y="42" fill="#c5c5c5" width="2" height="4"/>
	<rect x="39.6" y="42" fill="#c5c5c5" width="2" height="4"/>
</g>
</svg>
