<?xml version="1.0" encoding="utf-8"?>
<!-- Generator: Adobe Illustrator 18.0.0, SVG Export Plug-In . SVG Version: 6.00 Build 0)  -->
<!DOCTYPE svg PUBLIC "-//W3C//DTD SVG 1.1//EN" "http://www.w3.org/Graphics/SVG/1.1/DTD/svg11.dtd">
<svg version="1.1" id="Layer_1" xmlns="http://www.w3.org/2000/svg" xmlns:xlink="http://www.w3.org/1999/xlink" x="0px" y="0px"
	 viewBox="0 0 48 48" enable-background="new 0 0 48 48" xml:space="preserve">
<g>
	<g>
		<g>
			<path fill="#c5c5c5" d="M7.4,15.8c-0.5,0-1-0.2-1.3-0.5c-0.7-0.7-0.7-1.9,0-2.6c0.7-0.7,1.9-0.7,2.6,0c0.7,0.7,0.7,1.9,0,2.6
				C8.4,15.6,7.9,15.8,7.4,15.8z"/>
			<path fill="#c5c5c5" d="M17.2,6c-0.5,0-1-0.2-1.3-0.5c-0.4-0.4-0.5-0.8-0.5-1.3c0-0.5,0.2-1,0.5-1.3c0.7-0.7,1.9-0.7,2.6,0
				c0.4,0.4,0.5,0.8,0.5,1.3c0,0.5-0.2,1-0.5,1.3C18.2,5.8,17.7,6,17.2,6z"/>
		</g>
		<g>
			<path fill="#c5c5c5" d="M7.4,30c-0.5,0-1-0.2-1.3-0.5c-0.7-0.7-0.7-1.9,0-2.6c0.7-0.7,1.9-0.7,2.6,0c0.7,0.7,0.7,1.9,0,2.6
				C8.4,29.8,7.9,30,7.4,30z"/>
			<path fill="#c5c5c5" d="M17.2,20.2c-0.5,0-1-0.2-1.3-0.5c-0.4-0.4-0.5-0.8-0.5-1.3c0-0.5,0.2-1,0.5-1.3c0.7-0.7,1.9-0.7,2.6,0
				c0.4,0.4,0.5,0.8,0.5,1.3c0,0.5-0.2,1-0.5,1.3C18.2,20,17.7,20.2,17.2,20.2z"/>
		</g>
		<g>
			<path fill="#c5c5c5" d="M7.4,44.2c-0.5,0-1-0.2-1.3-0.5c-0.7-0.7-0.7-1.9,0-2.6c0.7-0.7,1.9-0.7,2.6,0c0.7,0.7,0.7,1.9,0,2.6
				C8.4,44.1,7.9,44.2,7.4,44.2z"/>
			<path fill="#c5c5c5" d="M17.2,34.4c-0.5,0-1-0.2-1.3-0.5c-0.4-0.4-0.5-0.8-0.5-1.3c0-0.5,0.2-1,0.5-1.3c0.7-0.7,1.9-0.7,2.6,0
				c0.4,0.4,0.5,0.8,0.5,1.3c0,0.5-0.2,1-0.5,1.3C18.2,34.3,17.7,34.4,17.2,34.4z"/>
		</g>
		<g>
			<path fill="#c5c5c5" d="M31.8,21.6c-0.5,0-1-0.2-1.3-0.5c-0.7-0.7-0.7-1.9,0-2.6c0.7-0.7,1.9-0.7,2.6,0c0.7,0.7,0.7,1.9,0,2.6
				C32.8,21.4,32.3,21.6,31.8,21.6z"/>
			<path fill="#c5c5c5" d="M41.6,11.8c-0.5,0-1-0.2-1.3-0.5c-0.4-0.4-0.5-0.8-0.5-1.3c0-0.5,0.2-1,0.5-1.3c0.7-0.7,1.9-0.7,2.6,0
				c0.4,0.4,0.5,0.8,0.5,1.3c0,0.5-0.2,1-0.5,1.3C42.6,11.6,42.1,11.8,41.6,11.8z"/>
		</g>
		<g>
			<path fill="#c5c5c5" d="M31.8,31.4c-0.5,0-1-0.2-1.3-0.5c-0.4-0.4-0.5-0.8-0.5-1.3c0-0.5,0.2-1,0.5-1.3c0.7-0.7,1.9-0.7,2.6,0
				c0.4,0.4,0.5,0.8,0.5,1.3c0,0.5-0.2,1-0.5,1.3C32.8,31.2,32.3,31.4,31.8,31.4z"/>
			<path fill="#c5c5c5" d="M41.6,21.6c-0.5,0-1-0.2-1.3-0.5c-0.7-0.7-0.7-1.9,0-2.6c0.7-0.7,1.9-0.7,2.6,0c0.7,0.7,0.7,1.9,0,2.6
				C42.6,21.4,42.1,21.6,41.6,21.6z"/>
		</g>
		<g>
			<path fill="#c5c5c5" d="M31.8,41.2c-0.5,0-1-0.2-1.3-0.5c-0.7-0.7-0.7-1.9,0-2.6c0.7-0.7,1.9-0.7,2.6,0c0.7,0.7,0.7,1.9,0,2.6
				C32.8,41,32.3,41.2,31.8,41.2z"/>
			<path fill="#c5c5c5" d="M41.6,31.4c-0.5,0-1-0.2-1.3-0.5c-0.4-0.4-0.5-0.8-0.5-1.3c0-0.5,0.2-1,0.5-1.3c0.7-0.7,1.9-0.7,2.6,0
				c0.4,0.4,0.5,0.8,0.5,1.3c0,0.5-0.2,1-0.5,1.3C42.6,31.2,42.1,31.4,41.6,31.4z"/>
		</g>
		<polygon fill="#c5c5c5" points="41.6,30.5 31.2,30.5 17,5.7 8.1,14.6 6.7,13.2 17.4,2.5 32.4,28.5 41.6,28.5 		"/>
		<polygon fill="#c5c5c5" points="32,41.2 17.1,19.9 8.1,28.9 6.7,27.4 17.3,16.8 31.7,37.3 40.7,19.2 42.5,20.1 		"/>
		<polygon fill="#c5c5c5" points="8.1,43.1 6.7,41.7 16.5,31.9 31.1,18.9 40.9,9.2 42.3,10.6 32.5,20.4 17.9,33.3 		"/>
	</g>
	<polygon fill="#c5c5c5" points="47,47 1,47 1,1 3,1 3,45 47,45 	"/>
</g>
</svg>
