<?xml version="1.0" encoding="utf-8"?>
<!-- Generator: Adobe Illustrator 18.0.0, SVG Export Plug-In . SVG Version: 6.00 Build 0)  -->
<!DOCTYPE svg PUBLIC "-//W3C//DTD SVG 1.1//EN" "http://www.w3.org/Graphics/SVG/1.1/DTD/svg11.dtd">
<svg version="1.1" id="Layer_1" xmlns="http://www.w3.org/2000/svg" xmlns:xlink="http://www.w3.org/1999/xlink" x="0px" y="0px"
	 viewBox="0 0 48 48" enable-background="new 0 0 48 48" xml:space="preserve">
<g>
	<g>
		<polygon fill="#c5c5c5" points="47,47 1,47 1,1 3,1 3,45 47,45 		"/>
		<rect x="2" y="38.6" fill="#c5c5c5" width="4" height="2"/>
		<rect x="2" y="32.1" fill="#c5c5c5" width="4" height="2"/>
		<rect x="2" y="25.7" fill="#c5c5c5" width="4" height="2"/>
		<rect x="2" y="19.3" fill="#c5c5c5" width="4" height="2"/>
		<rect x="2" y="12.9" fill="#c5c5c5" width="4" height="2"/>
		<rect x="2" y="6.4" fill="#c5c5c5" width="4" height="2"/>
	</g>
	<g>
		<polygon fill="#c5c5c5" points="22.1,24.4 10.4,16.9 11.5,15.2 21.6,21.6 32.2,6.1 41.9,22.5 40.1,23.5 32.1,9.9 		"/>
		<polygon fill="#c5c5c5" points="40.4,32.8 20.2,16.8 11.6,23.8 10.3,22.2 20.1,14.2 41.6,31.3 		"/>
		<polygon fill="#c5c5c5" points="29.4,40.3 21.5,24.4 11.5,30.8 10.4,29.1 22.3,21.6 29.4,35.7 42.8,7.6 44.6,8.4 		"/>
	</g>
</g>
</svg>
