<?xml version="1.0" encoding="utf-8"?>
<!-- Generator: Adobe Illustrator 18.0.0, SVG Export Plug-In . SVG Version: 6.00 Build 0)  -->
<!DOCTYPE svg PUBLIC "-//W3C//DTD SVG 1.1//EN" "http://www.w3.org/Graphics/SVG/1.1/DTD/svg11.dtd">
<svg version="1.1" id="Layer_1" xmlns="http://www.w3.org/2000/svg" xmlns:xlink="http://www.w3.org/1999/xlink" x="0px" y="0px"
	 viewBox="0 0 48 48" enable-background="new 0 0 48 48" xml:space="preserve">
<g>
	<g>
		<g>
			<polygon fill="#c5c5c5" points="46.7,47 0.7,47 0.7,1 2.7,1 2.7,45 46.7,45 			"/>
			<rect x="1.7" y="38.6" fill="#c5c5c5" width="4" height="2"/>
			<rect x="1.7" y="32.1" fill="#c5c5c5" width="4" height="2"/>
			<rect x="1.7" y="25.7" fill="#c5c5c5" width="4" height="2"/>
			<rect x="1.7" y="19.3" fill="#c5c5c5" width="4" height="2"/>
			<rect x="1.7" y="12.9" fill="#c5c5c5" width="4" height="2"/>
			<rect x="1.7" y="6.4" fill="#c5c5c5" width="4" height="2"/>
		</g>
	</g>
	<g>
		<polygon fill="#c5c5c5" points="9.2,17.5 8.2,15.7 21.4,8.6 32.7,13 46,2 47.3,3.6 33.1,15.2 21.5,10.8 		"/>
		<polygon fill="#c5c5c5" points="9.2,26.3 8.2,24.6 19.1,18.5 34.7,20.5 46,10.9 47.3,12.4 35.4,22.5 19.5,20.6 		"/>
		<polygon fill="#c5c5c5" points="9.4,35.1 8,33.6 16.6,25.6 28.7,31.2 46.1,19.7 47.2,21.4 28.9,33.4 17,28 		"/>
		<polygon fill="#c5c5c5" points="9.2,44.1 8.2,42.3 20.6,35.3 34,37.3 46.1,28.6 47.3,30.2 34.5,39.4 21,37.4 		"/>
	</g>
</g>
</svg>
