<?xml version="1.0" encoding="utf-8"?>
<!-- Generator: Adobe Illustrator 18.0.0, SVG Export Plug-In . SVG Version: 6.00 Build 0)  -->
<!DOCTYPE svg PUBLIC "-//W3C//DTD SVG 1.1//EN" "http://www.w3.org/Graphics/SVG/1.1/DTD/svg11.dtd">
<svg version="1.1" id="Layer_1" xmlns="http://www.w3.org/2000/svg" xmlns:xlink="http://www.w3.org/1999/xlink" x="0px" y="0px"
	 viewBox="0 0 48 48" enable-background="new 0 0 48 48" xml:space="preserve">
<g>
	<g>
		<g>
			<g>
				<polygon fill="#c5c5c5" points="47,47.5 1,47.5 1,1.5 3,1.5 3,45.5 47,45.5 				"/>
				<rect x="2" y="39.1" fill="#c5c5c5" width="4" height="2"/>
				<rect x="2" y="32.6" fill="#c5c5c5" width="4" height="2"/>
				<rect x="2" y="26.2" fill="#c5c5c5" width="4" height="2"/>
				<rect x="2" y="19.8" fill="#c5c5c5" width="4" height="2"/>
				<rect x="2" y="13.4" fill="#c5c5c5" width="4" height="2"/>
				<rect x="2" y="6.9" fill="#c5c5c5" width="4" height="2"/>
			</g>
		</g>
	</g>
	<path fill="#c5c5c5" d="M16.1,43.5c-3.3,0-6-2.7-6-6c0-3.3,2.7-6,6-6s6,2.7,6,6C22.1,40.8,19.5,43.5,16.1,43.5z M16.1,33.5
		c-2.2,0-4,1.8-4,4c0,2.2,1.8,4,4,4c2.2,0,4-1.8,4-4C20.1,35.3,18.3,33.5,16.1,33.5z"/>
	<path fill="#c5c5c5" d="M19.4,22.5c-2.8,0-5-2.2-5-5c0-2.8,2.2-5,5-5c2.8,0,5,2.2,5,5C24.4,20.3,22.1,22.5,19.4,22.5z M19.4,14.5
		c-1.7,0-3,1.3-3,3c0,1.7,1.3,3,3,3s3-1.3,3-3C22.4,15.8,21,14.5,19.4,14.5z"/>
	<path fill="#c5c5c5" d="M37.5,20.5c-1.7,0-3-1.3-3-3c0-1.7,1.3-3,3-3c1.7,0,3,1.3,3,3C40.5,19.2,39.1,20.5,37.5,20.5z M37.5,16.5
		c-0.6,0-1,0.4-1,1c0,0.6,0.4,1,1,1c0.6,0,1-0.4,1-1C38.5,16.9,38,16.5,37.5,16.5z"/>
	<path fill="#c5c5c5" d="M32.5,39.5c-1.7,0-3-1.3-3-3c0-1.7,1.3-3,3-3c1.7,0,3,1.3,3,3C35.5,38.2,34.2,39.5,32.5,39.5z M32.5,35.5
		c-0.6,0-1,0.4-1,1c0,0.6,0.4,1,1,1c0.6,0,1-0.4,1-1C33.5,35.9,33.1,35.5,32.5,35.5z"/>
	<g>
		<path fill="#c5c5c5" d="M11.7,8.5c-1.7,0-3-1.3-3-3c0-1.7,1.3-3,3-3s3,1.3,3,3C14.7,7.2,13.4,8.5,11.7,8.5z M11.7,4.5
			c-0.6,0-1,0.4-1,1c0,0.6,0.4,1,1,1c0.6,0,1-0.4,1-1C12.7,4.9,12.3,4.5,11.7,4.5z"/>
		<path fill="#c5c5c5" d="M35,10.5c-2.8,0-5-2.2-5-5c0-2.8,2.2-5,5-5c2.8,0,5,2.2,5,5C40,8.3,37.8,10.5,35,10.5z M35,2.5
			c-1.7,0-3,1.3-3,3c0,1.7,1.3,3,3,3s3-1.3,3-3C38,3.8,36.7,2.5,35,2.5z"/>
	</g>
</g>
</svg>
