<?xml version="1.0" encoding="utf-8"?>
<!-- Generator: Adobe Illustrator 18.0.0, SVG Export Plug-In . SVG Version: 6.00 Build 0)  -->
<!DOCTYPE svg PUBLIC "-//W3C//DTD SVG 1.1//EN" "http://www.w3.org/Graphics/SVG/1.1/DTD/svg11.dtd">
<svg version="1.1" id="Layer_1" xmlns="http://www.w3.org/2000/svg" xmlns:xlink="http://www.w3.org/1999/xlink" x="0px" y="0px"
	 viewBox="0 0 48 48" enable-background="new 0 0 48 48" xml:space="preserve">
<g>
	<polygon fill="#c5c5c5" points="47,47 1,47 1,1 3,1 3,45 47,45 	"/>
	<g>
		<path fill="#c5c5c5" d="M15.9,47H7.4V33h8.4V47z M9.4,45h4.4V35H9.4V45z"/>
		<path fill="#c5c5c5" d="M28.7,47h-8.4V23h8.4V47z M22.3,45h4.4V25h-4.4V45z"/>
		<path fill="#c5c5c5" d="M41.6,47h-8.4V13h8.4V47z M35.1,45h4.4V15h-4.4V45z"/>
	</g>
	<g>
		<path fill="#c5c5c5" d="M10.4,26.2l-0.9-1.8c6.4-3.1,14-10.1,18.6-17l1.7,1.1C25.1,15.7,17.1,23,10.4,26.2z"/>
		<g>
			<polygon fill="#c5c5c5" points="24.4,6 32.8,10.9 31,4.2 			"/>
		</g>
	</g>
</g>
</svg>
