<?xml version="1.0" encoding="utf-8"?>
<!-- Generator: Adobe Illustrator 18.0.0, SVG Export Plug-In . SVG Version: 6.00 Build 0)  -->
<!DOCTYPE svg PUBLIC "-//W3C//DTD SVG 1.1//EN" "http://www.w3.org/Graphics/SVG/1.1/DTD/svg11.dtd">
<svg version="1.1" id="Layer_1" xmlns="http://www.w3.org/2000/svg" xmlns:xlink="http://www.w3.org/1999/xlink" x="0px" y="0px"
	 viewBox="0 0 48 48" enable-background="new 0 0 48 48" xml:space="preserve">
<g>
	<path fill="#c5c5c5" d="M8.9,33.3l-1.9-0.6l2.7-7.9c0.9-2.6,2.2-3.9,3.9-3.9c1.1,0,2,0.7,2.6,1.2c1.2,1.1,2.3,2.3,3.1,3.7l0.3,0.5
		c0.4,0.7,0.8,1.4,1.3,1.8c0.3,0.2,0.7,0.3,1,0.2c0.2,0,0.3-0.1,0.3-0.2c0.1-0.2,0.1-0.5,0.2-0.8c0.4-3.2,1.1-6.4,2-9.5
		c0.3-0.9,0.6-1.8,1.3-2.6c0.7-0.8,2-1.4,3.3-0.9c1.3,0.5,1.7,1.8,2,2.5c1.2,3.3,2.2,6.8,2.9,10.3c0.2,1.1,0.7,1.9,1,1.9
		c0.2,0,0.6-0.3,0.7-0.4c1.3-0.9,2.4-2,3.4-3.2l1.5,1.3c-1.1,1.3-2.4,2.5-3.8,3.5c-0.5,0.4-1.1,0.7-1.8,0.8c-0.8,0-2.4-0.4-3-3.5
		c-0.7-3.4-1.7-6.7-2.8-10c-0.2-0.6-0.5-1.2-0.9-1.4c-0.3-0.1-0.8,0.1-1.1,0.4c-0.4,0.4-0.6,1.1-0.8,1.8c-0.9,3-1.5,6.1-1.9,9.2
		c-0.1,0.5-0.1,1-0.4,1.6c-0.4,0.6-0.9,1-1.7,1.1c-0.9,0.2-1.9,0-2.6-0.6C19,29,18.5,28.1,18,27.3l-0.3-0.4
		c-0.7-1.2-1.7-2.3-2.8-3.3c-0.4-0.3-0.9-0.7-1.4-0.7c0,0,0,0,0,0c-1,0-1.6,1.6-2,2.5L8.9,33.3z"/>
	<g>
		<rect x="6.9" y="1.5" fill="#c5c5c5" width="2" height="3"/>
		<rect x="13.4" y="1.5" fill="#c5c5c5" width="2" height="3"/>
		<rect x="19.8" y="1.5" fill="#c5c5c5" width="2" height="3"/>
		<rect x="26.2" y="1.5" fill="#c5c5c5" width="2" height="3"/>
		<rect x="32.6" y="1.5" fill="#c5c5c5" width="2" height="3"/>
		<rect x="39.1" y="1.5" fill="#c5c5c5" width="2" height="3"/>
	</g>
	<g>
		<rect x="6.9" y="43.5" fill="#c5c5c5" width="2" height="3"/>
		<rect x="13.4" y="43.5" fill="#c5c5c5" width="2" height="3"/>
		<rect x="19.8" y="43.5" fill="#c5c5c5" width="2" height="3"/>
		<rect x="26.2" y="43.5" fill="#c5c5c5" width="2" height="3"/>
		<rect x="32.6" y="43.5" fill="#c5c5c5" width="2" height="3"/>
		<rect x="39.1" y="43.5" fill="#c5c5c5" width="2" height="3"/>
	</g>
	<g>
		<rect x="43.5" y="39.1" fill="#c5c5c5" width="3" height="2"/>
		<rect x="43.5" y="32.6" fill="#c5c5c5" width="3" height="2"/>
		<rect x="43.5" y="26.2" fill="#c5c5c5" width="3" height="2"/>
		<rect x="43.5" y="19.8" fill="#c5c5c5" width="3" height="2"/>
		<rect x="43.5" y="13.4" fill="#c5c5c5" width="3" height="2"/>
		<rect x="43.5" y="6.9" fill="#c5c5c5" width="3" height="2"/>
	</g>
	<g>
		<rect x="1.5" y="39.1" fill="#c5c5c5" width="3" height="2"/>
		<rect x="1.5" y="32.6" fill="#c5c5c5" width="3" height="2"/>
		<rect x="1.5" y="26.2" fill="#c5c5c5" width="3" height="2"/>
		<rect x="1.5" y="19.8" fill="#c5c5c5" width="3" height="2"/>
		<rect x="1.5" y="13.4" fill="#c5c5c5" width="3" height="2"/>
		<rect x="1.5" y="6.9" fill="#c5c5c5" width="3" height="2"/>
	</g>
</g>
</svg>
