<?xml version="1.0" encoding="utf-8"?>
<!-- Generator: Adobe Illustrator 18.0.0, SVG Export Plug-In . SVG Version: 6.00 Build 0)  -->
<!DOCTYPE svg PUBLIC "-//W3C//DTD SVG 1.1//EN" "http://www.w3.org/Graphics/SVG/1.1/DTD/svg11.dtd">
<svg version="1.1" id="Layer_1" xmlns="http://www.w3.org/2000/svg" xmlns:xlink="http://www.w3.org/1999/xlink" x="0px" y="0px"
	 viewBox="0 0 48 48" enable-background="new 0 0 48 48" xml:space="preserve">
<g>
	<rect x="4.2" y="1.5" fill="#c5c5c5" width="2" height="45"/>
	<rect x="1.2" y="41.5" fill="#c5c5c5" width="45" height="2"/>
	<rect x="12.4" y="42.5" fill="#c5c5c5" width="2" height="4"/>
	<rect x="20.6" y="42.5" fill="#c5c5c5" width="2" height="4"/>
	<rect x="28.8" y="42.5" fill="#c5c5c5" width="2" height="4"/>
	<rect x="37" y="42.5" fill="#c5c5c5" width="2" height="4"/>
	<rect x="1.2" y="35.3" fill="#c5c5c5" width="4" height="2"/>
	<rect x="1.2" y="27.1" fill="#c5c5c5" width="4" height="2"/>
	<rect x="1.2" y="18.9" fill="#c5c5c5" width="4" height="2"/>
	<rect x="1.2" y="10.7" fill="#c5c5c5" width="4" height="2"/>
	<circle fill="#c5c5c5" cx="18.4" cy="12.7" r="2"/>
	<g>
		<circle fill="#c5c5c5" cx="14.4" cy="27.1" r="2"/>
		<circle fill="#c5c5c5" cx="21.6" cy="31.3" r="2"/>
	</g>
	<g>
		<circle fill="#c5c5c5" cx="40.6" cy="31.1" r="2"/>
		<circle fill="#c5c5c5" cx="33.4" cy="35.3" r="2"/>
	</g>
	<circle fill="#c5c5c5" cx="37" cy="18.9" r="2"/>
	<polygon fill="#c5c5c5" points="33.1,36.6 17.9,13.8 5.4,16.6 4.9,14.7 18.8,11.6 33.7,34 40,30.3 45.5,25.4 46.8,26.8 41.1,32 	
		"/>
	<polygon fill="#c5c5c5" points="5.8,35.1 4.6,33.5 14.3,25.9 21.5,30.1 36.6,17.9 46.2,17.9 46.2,19.9 37.3,19.9 21.7,32.5 
		14.4,28.3 	"/>
</g>
</svg>
