<?xml version="1.0" encoding="utf-8"?>
<!-- Generator: Adobe Illustrator 18.0.0, SVG Export Plug-In . SVG Version: 6.00 Build 0)  -->
<!DOCTYPE svg PUBLIC "-//W3C//DTD SVG 1.1//EN" "http://www.w3.org/Graphics/SVG/1.1/DTD/svg11.dtd">
<svg version="1.1" id="Layer_1" xmlns="http://www.w3.org/2000/svg" xmlns:xlink="http://www.w3.org/1999/xlink" x="0px" y="0px"
	 viewBox="0 0 48 48" enable-background="new 0 0 48 48" xml:space="preserve">
<g>
	<g>
		<rect x="4.1" y="1.5" fill="#c5c5c5" width="2" height="45"/>
		<rect x="1.1" y="41.5" fill="#c5c5c5" width="45" height="2"/>
	</g>
	<polygon fill="#c5c5c5" points="10.2,38.8 8.7,37.4 14.7,31.5 18.8,35.6 29.1,25.4 32.2,28.5 45.4,15.4 46.8,16.8 32.2,31.4 
		29.1,28.2 18.8,38.4 14.7,34.3 	"/>
	<polygon fill="#c5c5c5" points="45.2,35.5 34.3,18.6 30.4,20.3 24.4,13.9 17.4,17.5 12.1,7 10.1,8.6 8.8,7.1 12.8,4 18.3,14.8 
		24.9,11.5 30.9,17.9 35,16.1 46.9,34.4 	"/>
</g>
</svg>
