<?xml version="1.0" encoding="utf-8"?>
<!-- Generator: Adobe Illustrator 18.0.0, SVG Export Plug-In . SVG Version: 6.00 Build 0)  -->
<!DOCTYPE svg PUBLIC "-//W3C//DTD SVG 1.1//EN" "http://www.w3.org/Graphics/SVG/1.1/DTD/svg11.dtd">
<svg version="1.1" id="Layer_1" xmlns="http://www.w3.org/2000/svg" xmlns:xlink="http://www.w3.org/1999/xlink" x="0px" y="0px"
	 viewBox="0 0 48 48" enable-background="new 0 0 48 48" xml:space="preserve">
<g>
	<g>
		<path fill="#c5c5c5" d="M16.2,31.8c-4.2,0-8.1-1.6-11.1-4.6c-6.1-6.1-6.1-16,0-22.2c3-3,6.9-4.6,11.1-4.6c4.2,0,8.1,1.6,11.1,4.6
			c6.1,6.1,6.1,16,0,22.2C24.3,30.2,20.4,31.8,16.2,31.8z M16.2,2.5c-3.7,0-7.1,1.4-9.7,4c-5.3,5.3-5.3,14,0,19.3c2.6,2.6,6,4,9.7,4
			c3.7,0,7.1-1.4,9.7-4c5.3-5.3,5.3-14,0-19.3C23.3,3.9,19.8,2.5,16.2,2.5z"/>
		<path fill="#c5c5c5" d="M42.1,47.5c-1.4,0-2.8-0.6-3.8-1.6L25.4,33.1l1.2-0.6C27.9,31.8,29,31,30,30c1-1,1.8-2.1,2.5-3.3l0.6-1.2
			l12.8,12.8c2.1,2.1,2.1,5.5,0,7.6C44.9,46.9,43.5,47.5,42.1,47.5z M28.7,33.5l11,11c1.3,1.3,3.5,1.3,4.8,0c1.3-1.3,1.3-3.5,0-4.8
			l-11-11c-0.6,1-1.3,1.9-2.1,2.7C30.6,32.2,29.7,32.9,28.7,33.5z"/>
	</g>
	<polygon fill="#c5c5c5" points="2.4,33.9 0.6,33.2 6.8,17.8 11.4,22.8 14.2,6.3 22.2,14.9 44.7,0.7 45.8,2.3 21.8,17.5 15.5,10.6 
		12.7,27.2 7.5,21.5 	"/>
</g>
</svg>
