<?xml version="1.0" encoding="utf-8"?>
<!-- Generator: Adobe Illustrator 18.0.0, SVG Export Plug-In . SVG Version: 6.00 Build 0)  -->
<!DOCTYPE svg PUBLIC "-//W3C//DTD SVG 1.1//EN" "http://www.w3.org/Graphics/SVG/1.1/DTD/svg11.dtd">
<svg version="1.1" id="Layer_1" xmlns="http://www.w3.org/2000/svg" xmlns:xlink="http://www.w3.org/1999/xlink" x="0px" y="0px"
	 viewBox="0 0 48 48" enable-background="new 0 0 48 48" xml:space="preserve">
<g>
	<path fill="#c5c5c5" d="M47.5,28.9h-47v-28h47V28.9z M2.5,26.9h43v-24h-43V26.9z"/>
	<rect x="23" y="27.9" fill="#c5c5c5" width="2" height="19"/>
	
		<rect x="15.1" y="28.2" transform="matrix(0.9786 0.2056 -0.2056 0.9786 8.0856 -2.4975)" fill="#c5c5c5" width="2" height="18.9"/>
	
		<rect x="22.5" y="36.7" transform="matrix(0.2055 0.9787 -0.9787 0.2055 62.2265 -1.3443)" fill="#c5c5c5" width="18.9" height="2"/>
	<g>
		<g>
			<path fill="#c5c5c5" d="M11.9,21.7c-0.5,0-1-0.2-1.4-0.6c-0.4-0.4-0.6-0.9-0.6-1.4c0-0.5,0.2-1,0.6-1.4c0.8-0.8,2.1-0.8,2.8,0
				c0.4,0.4,0.6,0.9,0.6,1.4c0,0.5-0.2,1-0.6,1.4C13,21.5,12.5,21.7,11.9,21.7z M11.9,19.7C11.9,19.7,11.9,19.7,11.9,19.7l0,1
				L11.9,19.7z"/>
			<path fill="#c5c5c5" d="M19,14.6c-0.5,0-1-0.2-1.4-0.6c-0.8-0.8-0.8-2,0-2.8c0.8-0.8,2.1-0.8,2.8,0c0.4,0.4,0.6,0.9,0.6,1.4
				s-0.2,1-0.6,1.4C20,14.4,19.5,14.6,19,14.6z"/>
		</g>
		<g>
			<path fill="#c5c5c5" d="M29,19.2c-0.5,0-1-0.2-1.4-0.6c-0.4-0.4-0.6-0.9-0.6-1.4c0-0.5,0.2-1,0.6-1.4c0.8-0.8,2.1-0.8,2.8,0
				c0.4,0.4,0.6,0.9,0.6,1.4c0,0.5-0.2,1-0.6,1.4C30,19,29.5,19.2,29,19.2z M29,17.2C29,17.2,29,17.2,29,17.2l0,1L29,17.2z"/>
			<path fill="#c5c5c5" d="M36.1,12.1c-0.5,0-1-0.2-1.4-0.6c-0.4-0.4-0.6-0.9-0.6-1.4c0-0.5,0.2-1,0.6-1.4c0.8-0.8,2.1-0.8,2.8,0
				c0.4,0.4,0.6,0.9,0.6,1.4c0,0.5-0.2,1-0.6,1.4C37.1,11.9,36.6,12.1,36.1,12.1z M36.1,10.1L36.1,10.1l0,1L36.1,10.1z"/>
		</g>
		<polygon fill="#c5c5c5" points="12.6,20.4 11.2,19 18.8,11.4 28.8,16 35.4,9.4 36.8,10.8 29.2,18.4 19.2,13.8 		"/>
	</g>
</g>
</svg>
