<?xml version="1.0" encoding="utf-8"?>
<!-- Generator: Adobe Illustrator 18.0.0, SVG Export Plug-In . SVG Version: 6.00 Build 0)  -->
<!DOCTYPE svg PUBLIC "-//W3C//DTD SVG 1.1//EN" "http://www.w3.org/Graphics/SVG/1.1/DTD/svg11.dtd">
<svg version="1.1" id="Layer_1" xmlns="http://www.w3.org/2000/svg" xmlns:xlink="http://www.w3.org/1999/xlink" x="0px" y="0px"
	 viewBox="0 0 48 48" enable-background="new 0 0 48 48" xml:space="preserve">
<g>
	<g>
		<g>
			<rect x="15" y="17.8" fill="#c5c5c5" width="2" height="7.1"/>
			<rect x="20.3" y="6.8" fill="#c5c5c5" width="2" height="18.1"/>
			<rect x="25.7" y="11.8" fill="#c5c5c5" width="2" height="13.1"/>
			<rect x="31" y="8.8" fill="#c5c5c5" width="2" height="16.1"/>
		</g>
		<g>
			<rect x="36.3" y="6.8" fill="#c5c5c5" width="2" height="18.1"/>
		</g>
		<g>
			<rect x="9.7" y="6.8" fill="#c5c5c5" width="2" height="18.1"/>
			<rect x="15" y="11.8" fill="#c5c5c5" width="2" height="13.1"/>
		</g>
	</g>
	<path fill="#c5c5c5" d="M47.5,28.9h-47v-28h47V28.9z M2.5,26.9h43v-24h-43V26.9z"/>
	<rect x="23" y="27.9" fill="#c5c5c5" width="2" height="19"/>
	
		<rect x="15.1" y="28.2" transform="matrix(0.9786 0.2056 -0.2056 0.9786 8.0852 -2.4974)" fill="#c5c5c5" width="2" height="18.9"/>
	
		<rect x="22.5" y="36.7" transform="matrix(0.2055 0.9787 -0.9787 0.2055 62.2271 -1.3434)" fill="#c5c5c5" width="18.9" height="2"/>
</g>
</svg>
