<?xml version="1.0" encoding="utf-8"?>
<!-- Generator: Adobe Illustrator 18.0.0, SVG Export Plug-In . SVG Version: 6.00 Build 0)  -->
<!DOCTYPE svg PUBLIC "-//W3C//DTD SVG 1.1//EN" "http://www.w3.org/Graphics/SVG/1.1/DTD/svg11.dtd">
<svg version="1.1" id="Layer_1" xmlns="http://www.w3.org/2000/svg" xmlns:xlink="http://www.w3.org/1999/xlink" x="0px" y="0px"
	 viewBox="0 0 48 48" enable-background="new 0 0 48 48" xml:space="preserve">
<g>
	<path fill="#c5c5c5" d="M47.5,30.7h-47V1h47V30.7z M2.5,28.7h43V3h-43V28.7z"/>
	<rect x="23" y="29.7" fill="#c5c5c5" width="2" height="7.4"/>
	<g>
		<g>
			<path fill="#c5c5c5" d="M7.9,23.3c-0.5,0-1-0.2-1.4-0.6c-0.4-0.4-0.6-0.9-0.6-1.4s0.2-1,0.6-1.4c0.8-0.7,2.1-0.7,2.8,0
				c0.4,0.4,0.6,0.9,0.6,1.4s-0.2,1-0.6,1.4C8.9,23.1,8.4,23.3,7.9,23.3z"/>
			<path fill="#c5c5c5" d="M15,16.3c-0.5,0-1-0.2-1.4-0.6c-0.4-0.4-0.6-0.9-0.6-1.4c0-0.5,0.2-1,0.6-1.4c0.8-0.7,2.1-0.7,2.8,0
				c0.4,0.4,0.6,0.9,0.6,1.4c0,0.5-0.2,1-0.6,1.4C16,16.1,15.5,16.3,15,16.3z"/>
		</g>
		<g>
			<path fill="#c5c5c5" d="M24,19.4c-0.5,0-1-0.2-1.4-0.6c-0.4-0.4-0.6-0.9-0.6-1.4c0-0.5,0.2-1,0.6-1.4c0.8-0.7,2.1-0.7,2.8,0
				c0.4,0.4,0.6,0.9,0.6,1.4c0,0.5-0.2,1-0.6,1.4C25,19.2,24.5,19.4,24,19.4z"/>
			<path fill="#c5c5c5" d="M31,12.4c-0.5,0-1-0.2-1.4-0.6C29.2,11.5,29,11,29,10.4c0-0.5,0.2-1,0.6-1.4c0.8-0.7,2.1-0.7,2.8,0
				c0.4,0.4,0.6,0.9,0.6,1.4c0,0.5-0.2,1-0.6,1.4C32.1,12.2,31.6,12.4,31,12.4z"/>
		</g>
		<g>
			<path fill="#c5c5c5" d="M40.1,19.4c-0.5,0-1-0.2-1.4-0.6c-0.4-0.4-0.6-0.9-0.6-1.4c0-0.5,0.2-1,0.6-1.4c0.8-0.7,2.1-0.7,2.8,0
				c0.4,0.4,0.6,0.9,0.6,1.4c0,0.5-0.2,1-0.6,1.4C41.1,19.2,40.6,19.4,40.1,19.4z"/>
		</g>
		<polygon fill="#c5c5c5" points="8.6,22 7.2,20.6 14.7,13.2 23.7,16.3 31,9.1 40.7,16.6 39.5,18.2 31.1,11.7 24.2,18.6 15.2,15.5 
					"/>
	</g>
	<polygon fill="#c5c5c5" points="34.5,47 32.5,47 32.5,43.6 24,38.3 15.5,43.6 15.5,47 13.5,47 13.5,42.5 24,35.9 34.5,42.5 	"/>
	<rect x="23" y="37.1" fill="#c5c5c5" width="2" height="4"/>
</g>
</svg>
