<?xml version="1.0" encoding="utf-8"?>
<!-- Generator: Adobe Illustrator 18.0.0, SVG Export Plug-In . SVG Version: 6.00 Build 0)  -->
<!DOCTYPE svg PUBLIC "-//W3C//DTD SVG 1.1//EN" "http://www.w3.org/Graphics/SVG/1.1/DTD/svg11.dtd">
<svg version="1.1" id="Layer_1" xmlns="http://www.w3.org/2000/svg" xmlns:xlink="http://www.w3.org/1999/xlink" x="0px" y="0px"
	 viewBox="0 0 48 48" enable-background="new 0 0 48 48" xml:space="preserve">
<g>
	<g>
		<path fill="#c5c5c5" d="M24,16.9c-0.3,0-0.5-0.1-0.7-0.3l-5.7-5.7c-0.4-0.4-0.4-1,0-1.4c1.7-1.7,4-2.6,6.4-2.6
			c2.4,0,4.7,0.9,6.4,2.6c0.4,0.4,0.4,1,0,1.4l-5.7,5.7C24.5,16.8,24.3,16.9,24,16.9z M19.8,10.3l4.2,4.2l4.2-4.2
			C27,9.3,25.5,8.9,24,8.9C22.5,8.9,21,9.3,19.8,10.3z"/>
		<path fill="#c5c5c5" d="M24,24.9C24,24.9,24,24.9,24,24.9c-2.4,0-4.7-0.9-6.4-2.6c-3.5-3.5-3.5-9.2,0-12.7c0.4-0.4,1-0.4,1.4,0
			l5,4.9l4.9-4.9c0.4-0.4,1-0.4,1.4,0c3.5,3.5,3.5,9.2,0,12.7C28.7,23.9,26.4,24.9,24,24.9z M18.4,11.7c-2.1,2.7-1.8,6.7,0.7,9.1
			c1.3,1.3,3.1,2.1,4.9,2.1h0c1.9,0,3.6-0.7,4.9-2.1c2.5-2.5,2.7-6.4,0.7-9.1l-4.9,4.9c-0.4,0.4-1,0.4-1.4,0L18.4,11.7z"/>
	</g>
	<path fill="#c5c5c5" d="M47.5,30.7h-47V1h47V30.7z M2.5,28.7h43V3h-43V28.7z"/>
	<rect x="23" y="29.7" fill="#c5c5c5" width="2" height="7.4"/>
	<polygon fill="#c5c5c5" points="34.5,47 32.5,47 32.5,43.6 24,38.3 15.5,43.6 15.5,47 13.5,47 13.5,42.5 24,35.9 34.5,42.5 	"/>
	<rect x="23" y="37.1" fill="#c5c5c5" width="2" height="4"/>
</g>
</svg>
