<?xml version="1.0" encoding="utf-8"?>
<!-- Generator: Adobe Illustrator 18.0.0, SVG Export Plug-In . SVG Version: 6.00 Build 0)  -->
<!DOCTYPE svg PUBLIC "-//W3C//DTD SVG 1.1//EN" "http://www.w3.org/Graphics/SVG/1.1/DTD/svg11.dtd">
<svg version="1.1" id="Layer_1" xmlns="http://www.w3.org/2000/svg" xmlns:xlink="http://www.w3.org/1999/xlink" x="0px" y="0px"
	 viewBox="0 0 48 48" enable-background="new 0 0 48 48" xml:space="preserve">
<g>
	<path fill="#c5c5c5" d="M47.5,39.6h-47V0.5h47V39.6z M2.5,37.6h43V2.5h-43V37.6z"/>
	<rect x="9.4" y="45.5" fill="#c5c5c5" width="28" height="2"/>
	<path fill="#c5c5c5" d="M30.4,47.5h-14v-9.9h14V47.5z M18.4,45.5h10v-5.9h-10V45.5z"/>
	<g>
		<polygon fill="#c5c5c5" points="15.5,14.9 8.4,10 9.6,8.3 15.4,12.4 23.9,5.8 32.4,10.1 36.1,6.4 37.5,7.8 32.8,12.5 24.1,8.2 		
			"/>
		<g>
			<polygon fill="#c5c5c5" points="33.8,4.8 39,10 39,4.8 			"/>
		</g>
	</g>
	<g>
		<path fill="#c5c5c5" d="M22.9,35.6h-6.3v-17h6.3V35.6z M18.6,33.6h2.3v-13h-2.3V33.6z"/>
		<path fill="#c5c5c5" d="M14.3,35.6H8V21.1h6.3V35.6z M10,33.6h2.3V23.1H10V33.6z"/>
		<path fill="#c5c5c5" d="M40,35.6h-6.3V13.8H40V35.6z M35.7,33.6H38V15.8h-2.3V33.6z"/>
		<path fill="#c5c5c5" d="M31.4,35.6h-6.3V16.1h6.3V35.6z M27.1,33.6h2.3V18.1h-2.3V33.6z"/>
	</g>
</g>
</svg>
