<?xml version="1.0" encoding="utf-8"?>
<!-- Generator: Adobe Illustrator 18.0.0, SVG Export Plug-In . SVG Version: 6.00 Build 0)  -->
<!DOCTYPE svg PUBLIC "-//W3C//DTD SVG 1.1//EN" "http://www.w3.org/Graphics/SVG/1.1/DTD/svg11.dtd">
<svg version="1.1" id="Layer_1" xmlns="http://www.w3.org/2000/svg" xmlns:xlink="http://www.w3.org/1999/xlink" x="0px" y="0px"
	 viewBox="0 0 48 48" enable-background="new 0 0 48 48" xml:space="preserve">
<g>
	<path fill="#c5c5c5" d="M47.5,39.6h-47V0.5h47V39.6z M2.5,37.6h43V2.5h-43V37.6z"/>
	<rect x="9.4" y="45.5" fill="#c5c5c5" width="28" height="2"/>
	<path fill="#c5c5c5" d="M30.4,47.5h-14v-9.9h14V47.5z M18.4,45.5h10v-5.9h-10V45.5z"/>
	<rect x="10.6" y="19.1" fill="#c5c5c5" width="2" height="15.6"/>
	<rect x="16.8" y="21.7" fill="#c5c5c5" width="2" height="12.9"/>
	<rect x="23" y="20.1" fill="#c5c5c5" width="2" height="14.5"/>
	<rect x="29.2" y="14.1" fill="#c5c5c5" width="2" height="20.5"/>
	<rect x="35.4" y="17.7" fill="#c5c5c5" width="2" height="17"/>
	<polygon fill="#c5c5c5" points="43.6,34.6 41.6,34.6 41.6,17.6 38.2,20.9 31.6,14.3 20.4,25.6 13.2,18.5 6.4,25.2 6.4,34.6 
		4.4,34.6 4.4,24.4 13.2,15.6 20.4,22.8 31.6,11.5 38.2,18.1 43.6,12.8 	"/>
</g>
</svg>
