<?xml version="1.0" encoding="utf-8"?>
<!-- Generator: Adobe Illustrator 18.0.0, SVG Export Plug-In . SVG Version: 6.00 Build 0)  -->
<!DOCTYPE svg PUBLIC "-//W3C//DTD SVG 1.1//EN" "http://www.w3.org/Graphics/SVG/1.1/DTD/svg11.dtd">
<svg version="1.1" id="Layer_1" xmlns="http://www.w3.org/2000/svg" xmlns:xlink="http://www.w3.org/1999/xlink" x="0px" y="0px"
	 viewBox="0 0 48 48" enable-background="new 0 0 48 48" xml:space="preserve">
<g>
	<path fill="#c5c5c5" d="M47.5,39.6h-47V0.5h47V39.6z M2.5,37.6h43V2.5h-43V37.6z"/>
	<rect x="9.4" y="45.5" fill="#c5c5c5" width="28" height="2"/>
	<path fill="#c5c5c5" d="M30.4,47.5h-14v-9.9h14V47.5z M18.4,45.5h10v-5.9h-10V45.5z"/>
	<g>
		<polygon fill="#c5c5c5" points="14.8,21.5 9.5,16.2 6.2,19.4 4.8,18 9.5,13.3 14.8,18.6 23.9,9.5 27.8,13.4 31.5,9.7 36.3,14.5 
			41.8,9 43.2,10.5 36.3,17.3 31.5,12.5 27.8,16.2 23.9,12.4 		"/>
		<polygon fill="#c5c5c5" points="14.8,31.8 9.5,26.5 6.2,29.7 4.8,28.3 9.5,23.7 14.8,29 23.9,19.8 27.8,23.7 31.5,20 36.3,24.8 
			41.8,19.4 43.2,20.8 36.3,27.6 31.5,22.8 27.8,26.5 23.9,22.7 		"/>
	</g>
</g>
</svg>
