<?xml version="1.0" encoding="utf-8"?>
<!-- Generator: Adobe Illustrator 18.0.0, SVG Export Plug-In . SVG Version: 6.00 Build 0)  -->
<!DOCTYPE svg PUBLIC "-//W3C//DTD SVG 1.1//EN" "http://www.w3.org/Graphics/SVG/1.1/DTD/svg11.dtd">
<svg version="1.1" id="Layer_1" xmlns="http://www.w3.org/2000/svg" xmlns:xlink="http://www.w3.org/1999/xlink" x="0px" y="0px"
	 viewBox="0 0 48 48" enable-background="new 0 0 48 48" xml:space="preserve">
<g>
	<path fill="#c5c5c5" d="M34.8,14.5H13.2v-10h21.6V14.5z M15.2,12.5h17.6v-6H15.2V12.5z"/>
	<path fill="#c5c5c5" d="M41.1,47.5H6.9v-39h8.3v4h17.6v-4h8.3V47.5z M8.9,45.5h30.1v-35h-4.3v4H13.2v-4H8.9V45.5z"/>
	<path fill="#c5c5c5" d="M29.9,6.5H18.1v-6h11.8V6.5z M20.1,4.5h7.8v-2h-7.8V4.5z"/>
	<path fill="#c5c5c5" d="M24,31H13c-0.6,0-1-0.4-1-1c0-6.6,5.4-12,12-12c0.6,0,1,0.4,1,1v11C25,30.6,24.6,31,24,31z M14.1,29h9v-9
		C18.3,20.5,14.5,24.3,14.1,29z"/>
	<path fill="#c5c5c5" d="M31.8,38.8c-0.3,0-0.5-0.1-0.7-0.3l-7.8-7.8C23.1,30.5,23,30.3,23,30V19c0-0.6,0.4-1,1-1
		c6.6,0,12,5.4,12,12c0,3.2-1.2,6.2-3.5,8.5C32.3,38.7,32,38.8,31.8,38.8z M25,29.6l6.7,6.7c1.5-1.8,2.3-4,2.3-6.3c0-5.2-4-9.4-9-10
		V29.6z"/>
	<path fill="#c5c5c5" d="M24,42c-6.6,0-12-5.4-12-12c0-0.6,0.4-1,1-1h11c0.3,0,0.5,0.1,0.7,0.3l7.8,7.8c0.2,0.2,0.3,0.4,0.3,0.7
		c0,0.3-0.1,0.5-0.3,0.7C30.2,40.8,27.2,42,24,42z M14.1,31c0.5,5,4.8,9,10,9c2.3,0,4.5-0.8,6.3-2.3L23.6,31H14.1z"/>
</g>
</svg>
