<?xml version="1.0" encoding="utf-8"?>
<!-- Generator: Adobe Illustrator 18.0.0, SVG Export Plug-In . SVG Version: 6.00 Build 0)  -->
<!DOCTYPE svg PUBLIC "-//W3C//DTD SVG 1.1//EN" "http://www.w3.org/Graphics/SVG/1.1/DTD/svg11.dtd">
<svg version="1.1" id="Layer_1" xmlns="http://www.w3.org/2000/svg" xmlns:xlink="http://www.w3.org/1999/xlink" x="0px" y="0px"
	 viewBox="0 0 48 48" enable-background="new 0 0 48 48" xml:space="preserve">
<g>
	<path fill="#c5c5c5" d="M6.9,17.1c-1.1,0-2.1-0.4-2.8-1.2c-0.8-0.8-1.2-1.8-1.2-2.8c0-1.1,0.4-2.1,1.2-2.8c1.5-1.5,4.1-1.5,5.7,0
		c0.8,0.8,1.2,1.8,1.2,2.8c0,1.1-0.4,2.1-1.2,2.8C9,16.7,8,17.1,6.9,17.1z M6.9,11.1c-0.5,0-1,0.2-1.4,0.6c-0.4,0.4-0.6,0.9-0.6,1.4
		c0,0.5,0.2,1,0.6,1.4c0.8,0.8,2.1,0.8,2.8,0c0.4-0.4,0.6-0.9,0.6-1.4c0-0.5-0.2-1-0.6-1.4C8,11.3,7.5,11.1,6.9,11.1z"/>
	<path fill="#c5c5c5" d="M18.3,28.5c-1.1,0-2.1-0.4-2.8-1.2c-0.8-0.8-1.2-1.8-1.2-2.8c0-1.1,0.4-2.1,1.2-2.8
		c0.8-0.8,1.8-1.2,2.8-1.2c1.1,0,2.1,0.4,2.8,1.2c0.8,0.8,1.2,1.8,1.2,2.8c0,1.1-0.4,2.1-1.2,2.8C20.3,28,19.3,28.5,18.3,28.5z
		 M18.3,22.5c-0.5,0-1,0.2-1.4,0.6c-0.4,0.4-0.6,0.9-0.6,1.4c0,0.5,0.2,1,0.6,1.4c0.8,0.8,2.1,0.8,2.8,0c0.4-0.4,0.6-0.9,0.6-1.4
		c0-0.5-0.2-1-0.6-1.4C19.3,22.7,18.8,22.5,18.3,22.5z"/>
	<path fill="#c5c5c5" d="M29.7,8.5c-1.1,0-2.1-0.4-2.8-1.2c-0.8-0.8-1.2-1.8-1.2-2.8c0-1.1,0.4-2.1,1.2-2.8c1.5-1.5,4.1-1.5,5.7,0
		c0.8,0.8,1.2,1.8,1.2,2.8c0,1.1-0.4,2.1-1.2,2.8C31.8,8.1,30.8,8.5,29.7,8.5z M29.7,2.5c-0.5,0-1,0.2-1.4,0.6
		c-0.4,0.4-0.6,0.9-0.6,1.4c0,0.5,0.2,1,0.6,1.4c0.8,0.8,2.1,0.8,2.8,0c0.4-0.4,0.6-0.9,0.6-1.4c0-0.5-0.2-1-0.6-1.4
		C30.8,2.7,30.3,2.5,29.7,2.5z"/>
	<path fill="#c5c5c5" d="M41.1,19.8c-1.1,0-2.1-0.4-2.8-1.2c-0.8-0.8-1.2-1.8-1.2-2.8c0-1.1,0.4-2.1,1.2-2.8c1.5-1.5,4.1-1.5,5.7,0
		c0.8,0.8,1.2,1.8,1.2,2.8c0,1.1-0.4,2.1-1.2,2.8C43.1,19.4,42.1,19.8,41.1,19.8z M41.1,13.8c-0.5,0-1,0.2-1.4,0.6
		c-0.4,0.4-0.6,0.9-0.6,1.4c0,0.5,0.2,1,0.6,1.4c0.8,0.8,2.1,0.8,2.8,0c0.4-0.4,0.6-0.9,0.6-1.4c0-0.5-0.2-1-0.6-1.4
		C42.1,14,41.6,13.8,41.1,13.8z"/>
	<rect x="30.4" y="9.1" transform="matrix(0.7071 0.7071 -0.7071 0.7071 17.5379 -22.0627)" fill="#c5c5c5" width="10" height="2"/>
	<rect x="23" y="5.9" transform="matrix(0.8666 0.499 -0.499 0.8666 10.4191 -10.0457)" fill="#c5c5c5" width="2" height="17"/>
	<rect x="7.6" y="17.8" transform="matrix(0.7071 0.7071 -0.7071 0.7071 16.9808 -3.405)" fill="#c5c5c5" width="10" height="2"/>
	<path fill="#c5c5c5" d="M47.5,47.5h-6.7v-20h6.7V47.5z M42.8,45.5h2.7v-16h-2.7V45.5z"/>
	<path fill="#c5c5c5" d="M34.1,47.5h-6.7V16.1h6.7V47.5z M29.4,45.5h2.7V18.1h-2.7V45.5z"/>
	<path fill="#c5c5c5" d="M20.6,47.5h-6.7v-11h6.7V47.5z M15.9,45.5h2.7v-7h-2.7V45.5z"/>
	<path fill="#c5c5c5" d="M7.2,47.5H0.5V25.1h6.7V47.5z M2.5,45.5h2.7V27.1H2.5V45.5z"/>
</g>
</svg>
