<?xml version="1.0" encoding="utf-8"?>
<!-- Generator: Adobe Illustrator 18.0.0, SVG Export Plug-In . SVG Version: 6.00 Build 0)  -->
<!DOCTYPE svg PUBLIC "-//W3C//DTD SVG 1.1//EN" "http://www.w3.org/Graphics/SVG/1.1/DTD/svg11.dtd">
<svg version="1.1" id="Layer_1" xmlns="http://www.w3.org/2000/svg" xmlns:xlink="http://www.w3.org/1999/xlink" x="0px" y="0px"
	 viewBox="0 0 48 48" enable-background="new 0 0 48 48" xml:space="preserve">
<g>
	<path fill="#c5c5c5" d="M9.5,14.5L0.3,9.1l0.5-0.9c1.8-3.1,4.4-5.6,7.5-7.4l0.9-0.5l5.2,9.2L13.6,10c-1.5,0.8-2.7,2.1-3.6,3.5
		L9.5,14.5z M3.1,8.4l5.7,3.4c0.8-1.1,1.8-2.1,2.9-2.9L8.5,3.1C6.3,4.4,4.5,6.3,3.1,8.4z"/>
	<path fill="#c5c5c5" d="M10.1,38.2l-0.5-0.9C6,31.1,6.1,23.3,9.8,17l0.5-0.9l9.2,5.4l-0.5,0.9c-1.8,3-1.8,6.7-0.1,9.8l0.5,0.9
		L10.1,38.2z M11,18.9c-2.7,5.2-2.7,11.4-0.1,16.6l5.8-3.3c-1.4-3.2-1.4-6.8,0.1-10L11,18.9z"/>
	<path fill="#c5c5c5" d="M27.3,47.7L27.3,47.7c-7.3,0-14.1-4-17.7-10.3l-0.5-0.9l9.2-5.2l0.5,0.9c1.7,3,5,4.9,8.5,4.9
		c1.7,0,3.3-0.4,4.8-1.3c2.3-1.3,3.9-3.4,4.6-5.9c0.7-2.5,0.4-5.1-0.9-7.4c-1.7-3.1-5-4.9-8.5-4.9c-1.7,0-3.3,0.4-4.8,1.3l-0.9,0.5
		l-5.2-9.2l0.9-0.5c3.1-1.7,6.5-2.7,10-2.7c7.3,0,14.1,4,17.7,10.3c5.5,9.8,2.1,22.2-7.7,27.8C34.3,46.8,30.8,47.7,27.3,47.7z
		 M11.9,37.2c3.4,5.2,9.2,8.5,15.5,8.5c3.2,0,6.3-0.8,9-2.4c8.8-5,11.9-16.2,6.9-25c-3.3-5.7-9.4-9.3-16-9.3c-2.8,0-5.6,0.7-8.2,1.9
		l3.3,5.8c1.5-0.7,3.2-1.1,4.9-1.1c4.2,0,8.2,2.3,10.2,6c1.5,2.7,1.9,5.9,1.1,8.9c-0.8,3-2.8,5.5-5.5,7.1c-1.8,1-3.8,1.5-5.8,1.5
		c-3.9,0-7.5-1.9-9.7-5.1L11.9,37.2z"/>
</g>
</svg>
