<?xml version="1.0" encoding="utf-8"?>
<!-- Generator: Adobe Illustrator 18.0.0, SVG Export Plug-In . SVG Version: 6.00 Build 0)  -->
<!DOCTYPE svg PUBLIC "-//W3C//DTD SVG 1.1//EN" "http://www.w3.org/Graphics/SVG/1.1/DTD/svg11.dtd">
<svg version="1.1" id="Layer_1" xmlns="http://www.w3.org/2000/svg" xmlns:xlink="http://www.w3.org/1999/xlink" x="0px" y="0px"
	 viewBox="0 0 48 48" enable-background="new 0 0 48 48" xml:space="preserve">
<g>
	<polygon fill="#c5c5c5" points="47,47.5 1,47.5 1,24.6 3,24.6 3,45.5 47,45.5 	"/>
	<g>
		<path fill="#c5c5c5" d="M26.1,31.5c-8.6,0-15.6-6.9-15.6-15.5s7-15.5,15.6-15.5c8.6,0,15.6,6.9,15.6,15.5S34.7,31.5,26.1,31.5z
			 M26.1,2.5c-7.5,0-13.6,6-13.6,13.5c0,7.4,6.1,13.5,13.6,13.5c7.5,0,13.6-6,13.6-13.5C39.7,8.5,33.6,2.5,26.1,2.5z"/>
		<path fill="#c5c5c5" d="M26.1,25.9c-5.5,0-10-4.4-10-9.9s4.5-9.9,10-9.9c5.5,0,10,4.4,10,9.9S31.6,25.9,26.1,25.9z M26.1,8.1
			c-4.4,0-8,3.5-8,7.9s3.6,7.9,8,7.9s8-3.5,8-7.9S30.5,8.1,26.1,8.1z"/>
		<path fill="#c5c5c5" d="M26.1,20.3c-2.4,0-4.4-1.9-4.4-4.3s2-4.3,4.4-4.3c2.4,0,4.4,1.9,4.4,4.3S28.5,20.3,26.1,20.3z M26.1,13.6
			c-1.3,0-2.4,1.1-2.4,2.3s1.1,2.3,2.4,2.3c1.3,0,2.4-1.1,2.4-2.3S27.4,13.6,26.1,13.6z"/>
	</g>
</g>
</svg>
