<?xml version="1.0" encoding="utf-8"?>
<!-- Generator: Adobe Illustrator 18.0.0, SVG Export Plug-In . SVG Version: 6.00 Build 0)  -->
<!DOCTYPE svg PUBLIC "-//W3C//DTD SVG 1.1//EN" "http://www.w3.org/Graphics/SVG/1.1/DTD/svg11.dtd">
<svg version="1.1" id="Layer_1" xmlns="http://www.w3.org/2000/svg" xmlns:xlink="http://www.w3.org/1999/xlink" x="0px" y="0px"
	 viewBox="0 0 48 48" enable-background="new 0 0 48 48" xml:space="preserve">
<g>
	<g>
		<polygon fill="#c5c5c5" points="47,47 1,47 1,1 3,1 3,45 47,45 		"/>
	</g>
	<g>
		
			<rect x="30.9" y="28" transform="matrix(0.7071 0.7071 -0.7071 0.7071 36.6197 -11.2948)" fill="#c5c5c5" width="2" height="21.1"/>
		<g>
			<polygon fill="#c5c5c5" points="42,34.5 36,28.5 42,28.5 			"/>
		</g>
	</g>
	<g>
		<rect x="16.2" y="9.3" transform="matrix(0.7071 0.7071 -0.7071 0.7071 26.8208 -3.1315)" fill="#c5c5c5" width="2" height="43"/>
		<g>
			<polygon fill="#c5c5c5" points="35,19 29,13 35,13 			"/>
		</g>
	</g>
	<g>
		
			<rect x="6.3" y="10.6" transform="matrix(0.7071 0.7071 -0.7071 0.7071 14.9981 0.1461)" fill="#c5c5c5" width="2" height="15.1"/>
		<g>
			<polygon fill="#c5c5c5" points="15.2,16.3 9.2,10.3 15.2,10.3 			"/>
		</g>
	</g>
</g>
</svg>
