<?xml version="1.0" encoding="utf-8"?>
<!-- Generator: Adobe Illustrator 18.0.0, SVG Export Plug-In . SVG Version: 6.00 Build 0)  -->
<!DOCTYPE svg PUBLIC "-//W3C//DTD SVG 1.1//EN" "http://www.w3.org/Graphics/SVG/1.1/DTD/svg11.dtd">
<svg version="1.1" id="Layer_1" xmlns="http://www.w3.org/2000/svg" xmlns:xlink="http://www.w3.org/1999/xlink" x="0px" y="0px"
	 viewBox="0 0 48 48" enable-background="new 0 0 48 48" xml:space="preserve">
<g>
	<path fill="#c5c5c5" d="M24,25c-0.2,0-0.3,0-0.5-0.1L4,13.6c-0.2-0.1-0.4-0.3-0.5-0.6c-0.1-0.3,0-0.5,0.1-0.7
		C7.8,5,15.6,0.5,24,0.5c0.5,0,1,0.4,1,1V24c0,0.4-0.2,0.7-0.5,0.8C24.3,24.9,24.2,25,24,25z M5.9,12.4L23,22.3V2.5
		C16.1,2.8,9.6,6.5,5.9,12.4z"/>
	<path fill="#c5c5c5" d="M24,47.5C11,47.5,0.5,37,0.5,24c0-4.1,1.1-8.2,3.2-11.8c0.3-0.5,0.9-0.6,1.3-0.4l39,22.5
		c0.2,0.1,0.4,0.3,0.5,0.6c0.1,0.3,0,0.5-0.1,0.7C40.2,43,32.4,47.5,24,47.5z M4.9,14.1c-1.6,3.1-2.4,6.5-2.4,9.9
		c0,11.9,9.7,21.5,21.5,21.5c7.3,0,14.2-3.8,18.1-9.9L4.9,14.1z"/>
	<g>
		<path fill="#c5c5c5" d="M46.3,27.8H28.9c-0.2,0-0.3,0-0.5-0.1l-4.9-2.8C23.2,24.7,23,24.4,23,24v-5.6c0-0.5,0.4-1,1-1h21.8
			c0.4,0,0.8,0.3,0.9,0.7c0.5,1.9,0.7,3.9,0.7,5.9c0,1-0.1,1.9-0.2,2.9C47.3,27.4,46.8,27.8,46.3,27.8z M29.1,25.8h16.3
			c0.1-0.6,0.1-1.2,0.1-1.8c0-1.6-0.2-3.1-0.5-4.7H25v4.1L29.1,25.8z"/>
		<path fill="#c5c5c5" d="M43.5,36.2c-0.2,0-0.3,0-0.5-0.1l-14.6-8.4c-0.4-0.2-0.6-0.7-0.5-1.1c0.1-0.4,0.5-0.7,0.9-0.7h17.5
			c0.3,0,0.5,0.1,0.7,0.3c0.2,0.2,0.3,0.5,0.2,0.8c-0.4,3.1-1.4,6.1-3,8.8C44.2,36.1,43.8,36.2,43.5,36.2z M32.5,27.8l10.6,6.1
			c1-1.9,1.7-4,2.1-6.1H32.5z"/>
		<path fill="#c5c5c5" d="M45.8,19.3H24c-0.5,0-1-0.4-1-1V9.9c0-0.5,0.4-1,1-1h17.6c0.3,0,0.6,0.1,0.8,0.4c2.1,2.6,3.6,5.6,4.4,8.8
			c0.1,0.3,0,0.6-0.2,0.8C46.4,19.2,46.1,19.3,45.8,19.3z M25,17.4h19.5c-0.8-2.3-1.9-4.5-3.4-6.5H25V17.4z"/>
		<path fill="#c5c5c5" d="M41.6,10.9H24c-0.5,0-1-0.4-1-1V1.5c0-0.5,0.4-1,1-1c7.2,0,13.8,3.2,18.3,8.8c0.2,0.3,0.3,0.7,0.1,1
			C42.3,10.7,42,10.9,41.6,10.9z M25,8.9h14.4C35.6,5,30.5,2.7,25,2.5V8.9z"/>
	</g>
</g>
<g>
	<path fill="#c5c5c5" d="M24,25c-0.2,0-0.3,0-0.5-0.1L4,13.6c-0.2-0.1-0.4-0.3-0.5-0.6c-0.1-0.3,0-0.5,0.1-0.7
		C7.8,5,15.6,0.5,24,0.5c0.5,0,1,0.4,1,1V24c0,0.4-0.2,0.7-0.5,0.8C24.3,24.9,24.2,25,24,25z M5.9,12.4L23,22.3V2.5
		C16.1,2.8,9.6,6.5,5.9,12.4z"/>
	<path fill="#c5c5c5" d="M24,47.5C11,47.5,0.5,37,0.5,24c0-4.1,1.1-8.2,3.2-11.8c0.3-0.5,0.9-0.6,1.3-0.4l39,22.5
		c0.2,0.1,0.4,0.3,0.5,0.6c0.1,0.3,0,0.5-0.1,0.7C40.2,43,32.4,47.5,24,47.5z M4.9,14.1c-1.6,3.1-2.4,6.5-2.4,9.9
		c0,11.9,9.7,21.5,21.5,21.5c7.3,0,14.2-3.8,18.1-9.9L4.9,14.1z"/>
	<g>
		<path fill="#c5c5c5" d="M46.3,27.8H28.9c-0.2,0-0.3,0-0.5-0.1l-4.9-2.8C23.2,24.7,23,24.4,23,24v-5.6c0-0.5,0.4-1,1-1h21.8
			c0.4,0,0.8,0.3,0.9,0.7c0.5,1.9,0.7,3.9,0.7,5.9c0,1-0.1,1.9-0.2,2.9C47.3,27.4,46.8,27.8,46.3,27.8z M29.1,25.8h16.3
			c0.1-0.6,0.1-1.2,0.1-1.8c0-1.6-0.2-3.1-0.5-4.7H25v4.1L29.1,25.8z"/>
		<path fill="#c5c5c5" d="M43.5,36.2c-0.2,0-0.3,0-0.5-0.1l-14.6-8.4c-0.4-0.2-0.6-0.7-0.5-1.1c0.1-0.4,0.5-0.7,0.9-0.7h17.5
			c0.3,0,0.5,0.1,0.7,0.3c0.2,0.2,0.3,0.5,0.2,0.8c-0.4,3.1-1.4,6.1-3,8.8C44.2,36.1,43.8,36.2,43.5,36.2z M32.5,27.8l10.6,6.1
			c1-1.9,1.7-4,2.1-6.1H32.5z"/>
		<path fill="#c5c5c5" d="M45.8,19.3H24c-0.5,0-1-0.4-1-1V9.9c0-0.5,0.4-1,1-1h17.6c0.3,0,0.6,0.1,0.8,0.4c2.1,2.6,3.6,5.6,4.4,8.8
			c0.1,0.3,0,0.6-0.2,0.8C46.4,19.2,46.1,19.3,45.8,19.3z M25,17.4h19.5c-0.8-2.3-1.9-4.5-3.4-6.5H25V17.4z"/>
		<path fill="#c5c5c5" d="M41.6,10.9H24c-0.5,0-1-0.4-1-1V1.5c0-0.5,0.4-1,1-1c7.2,0,13.8,3.2,18.3,8.8c0.2,0.3,0.3,0.7,0.1,1
			C42.3,10.7,42,10.9,41.6,10.9z M25,8.9h14.4C35.6,5,30.5,2.7,25,2.5V8.9z"/>
	</g>
</g>
</svg>
