<?xml version="1.0" encoding="utf-8"?>
<!-- Generator: Adobe Illustrator 18.0.0, SVG Export Plug-In . SVG Version: 6.00 Build 0)  -->
<!DOCTYPE svg PUBLIC "-//W3C//DTD SVG 1.1//EN" "http://www.w3.org/Graphics/SVG/1.1/DTD/svg11.dtd">
<svg version="1.1" id="Layer_1" xmlns="http://www.w3.org/2000/svg" xmlns:xlink="http://www.w3.org/1999/xlink" x="0px" y="0px"
	 viewBox="0 0 48 48" enable-background="new 0 0 48 48" xml:space="preserve">
<g>
	<g>
		<polygon fill="#c5c5c5" points="47,47 1,47 1,1 3,1 3,45 47,45 		"/>
	</g>
	<g>
		<polygon fill="#c5c5c5" points="20.3,17.7 10.6,13.4 11.4,11.6 20.3,15.5 27,12.2 36.7,13.5 42.5,10.1 43.5,11.8 37.2,15.6 
			27.4,14.3 		"/>
		<polygon fill="#c5c5c5" points="15.8,26.3 10.1,17.1 11.9,16 16.4,23.5 24.6,17.6 36.4,21.8 42.3,15.9 43.7,17.3 36.9,24.1 
			24.9,19.8 		"/>
		<polygon fill="#c5c5c5" points="25,34.2 20.4,30.3 10,33.7 9.4,31.8 20.9,28.1 24.6,31.2 29.8,23.4 29.8,7.8 42.6,2.1 43.4,3.9 
			31.8,9.1 31.8,24 		"/>
		<polygon fill="#c5c5c5" points="18.7,42.1 7.9,38.4 8.6,36.5 18.5,39.9 24.4,36.5 35.6,34.2 42.2,24.4 43.8,25.5 36.8,36 
			25.1,38.4 		"/>
	</g>
</g>
</svg>
