<?xml version="1.0" encoding="utf-8"?>
<!-- Generator: Adobe Illustrator 18.0.0, SVG Export Plug-In . SVG Version: 6.00 Build 0)  -->
<!DOCTYPE svg PUBLIC "-//W3C//DTD SVG 1.1//EN" "http://www.w3.org/Graphics/SVG/1.1/DTD/svg11.dtd">
<svg version="1.1" id="Layer_1" xmlns="http://www.w3.org/2000/svg" xmlns:xlink="http://www.w3.org/1999/xlink" x="0px" y="0px"
	 viewBox="0 0 48 48" enable-background="new 0 0 48 48" xml:space="preserve">
<g>
	<rect x="1" y="45.5" fill="#c5c5c5" width="12.3" height="2"/>
	<rect x="1" y="39.8" fill="#c5c5c5" width="12.3" height="2"/>
	<rect x="1" y="34.1" fill="#c5c5c5" width="12.3" height="2"/>
	<rect x="1" y="28.5" fill="#c5c5c5" width="12.3" height="2"/>
	<rect x="34.7" y="45.5" fill="#c5c5c5" width="12.3" height="2"/>
	<rect x="34.7" y="39.8" fill="#c5c5c5" width="12.3" height="2"/>
	<rect x="34.7" y="34.1" fill="#c5c5c5" width="12.3" height="2"/>
	<rect x="34.7" y="28.5" fill="#c5c5c5" width="12.3" height="2"/>
	<rect x="34.7" y="22.8" fill="#c5c5c5" width="12.3" height="2"/>
	<rect x="34.7" y="17.1" fill="#c5c5c5" width="12.3" height="2"/>
	<rect x="34.7" y="11.4" fill="#c5c5c5" width="12.3" height="2"/>
	<rect x="34.7" y="5.8" fill="#c5c5c5" width="12.3" height="2"/>
	<rect x="34.7" y="0.5" fill="#c5c5c5" width="12.3" height="2"/>
	<rect x="17.9" y="45.5" fill="#c5c5c5" width="12.3" height="2"/>
	<rect x="17.9" y="39.8" fill="#c5c5c5" width="12.3" height="2"/>
	<rect x="17.9" y="34.1" fill="#c5c5c5" width="12.3" height="2"/>
	<rect x="17.9" y="28.5" fill="#c5c5c5" width="12.3" height="2"/>
	<rect x="17.9" y="22.8" fill="#c5c5c5" width="12.3" height="2"/>
	<rect x="17.9" y="17.1" fill="#c5c5c5" width="12.3" height="2"/>
</g>
</svg>
