<?xml version="1.0" encoding="utf-8"?>
<!-- Generator: Adobe Illustrator 18.0.0, SVG Export Plug-In . SVG Version: 6.00 Build 0)  -->
<!DOCTYPE svg PUBLIC "-//W3C//DTD SVG 1.1//EN" "http://www.w3.org/Graphics/SVG/1.1/DTD/svg11.dtd">
<svg version="1.1" id="Layer_1" xmlns="http://www.w3.org/2000/svg" xmlns:xlink="http://www.w3.org/1999/xlink" x="0px" y="0px"
	 viewBox="0 0 48 48" enable-background="new 0 0 48 48" xml:space="preserve">
<g>
	<g>
		<path fill="#c5c5c5" d="M9.8,47.5H1.6V32h8.2V47.5z M3.6,45.6h4.3V33.9H3.6V45.6z"/>
		<path fill="#c5c5c5" d="M22.3,47.5h-8.2V26.2h8.2V47.5z M16,45.6h4.3V28.1H16V45.6z"/>
		<path fill="#c5c5c5" d="M34.7,47.5h-8.2V20.4h8.2V47.5z M28.5,45.6h4.3V22.3h-4.3V45.6z"/>
		<path fill="#c5c5c5" d="M47.2,47.5H39v-33h8.2V47.5z M41,45.6h4.3V16.5H41V45.6z"/>
	</g>
	<path fill="#c5c5c5" d="M4.5,27.7l-3.7-6.5L28.4,5.3l-2.8-4.8l14.9,2.1l-5.6,14l-2.8-4.8L4.5,27.7z M3.4,21.9l1.8,3.1L32.8,9.2
		l1.8,3.1l3.2-8L29.2,3L31,6L3.4,21.9z"/>
</g>
</svg>
