<?xml version="1.0" encoding="utf-8"?>
<!-- Generator: Adobe Illustrator 18.0.0, SVG Export Plug-In . SVG Version: 6.00 Build 0)  -->
<!DOCTYPE svg PUBLIC "-//W3C//DTD SVG 1.1//EN" "http://www.w3.org/Graphics/SVG/1.1/DTD/svg11.dtd">
<svg version="1.1" id="Layer_1" xmlns="http://www.w3.org/2000/svg" xmlns:xlink="http://www.w3.org/1999/xlink" x="0px" y="0px"
	 viewBox="0 0 48 48" enable-background="new 0 0 48 48" xml:space="preserve">
<g>
	<g>
		<path fill="#c5c5c5" d="M46.4,47.5h-8.2V35.8h8.2V47.5z M40.2,45.6h4.3v-7.8h-4.3V45.6z"/>
		<path fill="#c5c5c5" d="M33.9,47.5h-8.2V30h8.2V47.5z M27.7,45.6H32V32h-4.3V45.6z"/>
		<path fill="#c5c5c5" d="M21.4,47.5h-8.2V24.2h8.2V47.5z M15.2,45.6h4.3V26.1h-4.3V45.6z"/>
		<path fill="#c5c5c5" d="M8.9,47.5H0.7V18.3h8.2V47.5z M2.7,45.6H7V20.3H2.7V45.6z"/>
	</g>
	<path fill="#c5c5c5" d="M32.3,27.8l2.8-4.8L7.5,7l3.8-6.5l27.6,16l2.8-4.8l5.6,14L32.3,27.8z M10.1,6.3l27.6,16L36,25.3l8.6-1.2
		l-3.2-8l-1.8,3.1l-27.6-16L10.1,6.3z"/>
</g>
</svg>
