<?xml version="1.0" encoding="utf-8"?>
<!-- Generator: Adobe Illustrator 18.0.0, SVG Export Plug-In . SVG Version: 6.00 Build 0)  -->
<!DOCTYPE svg PUBLIC "-//W3C//DTD SVG 1.1//EN" "http://www.w3.org/Graphics/SVG/1.1/DTD/svg11.dtd">
<svg version="1.1" id="Layer_1" xmlns="http://www.w3.org/2000/svg" xmlns:xlink="http://www.w3.org/1999/xlink" x="0px" y="0px"
	 viewBox="0 0 48 48" enable-background="new 0 0 48 48" xml:space="preserve">
<g>
	<path fill="#c5c5c5" d="M39.8,8.9H4V0.5h35.8c2.3,0,4.2,1.9,4.2,4.2C44,7,42.1,8.9,39.8,8.9z M6,6.9h33.8c1.2,0,2.2-1,2.2-2.2
		c0-1.2-1-2.2-2.2-2.2H6V6.9z"/>
	<path fill="#c5c5c5" d="M33.8,21.8H4v-8.4h29.8c2.3,0,4.2,1.9,4.2,4.2C38,19.9,36.1,21.8,33.8,21.8z M6,19.8h27.8
		c1.2,0,2.2-1,2.2-2.2c0-1.2-1-2.2-2.2-2.2H6V19.8z"/>
	<path fill="#c5c5c5" d="M29.8,34.6H4v-8.4h25.8c2.3,0,4.2,1.9,4.2,4.2C34,32.8,32.1,34.6,29.8,34.6z M6,32.6h23.8
		c1.2,0,2.2-1,2.2-2.2c0-1.2-1-2.2-2.2-2.2H6V32.6z"/>
	<path fill="#c5c5c5" d="M37.8,47.5H4v-8.4h33.8c2.3,0,4.2,1.9,4.2,4.2C42,45.6,40.1,47.5,37.8,47.5z M6,45.5h31.8
		c1.2,0,2.2-1,2.2-2.2s-1-2.2-2.2-2.2H6V45.5z"/>
</g>
</svg>
