<?xml version="1.0" encoding="utf-8"?>
<!-- Generator: Adobe Illustrator 18.0.0, SVG Export Plug-In . SVG Version: 6.00 Build 0)  -->
<!DOCTYPE svg PUBLIC "-//W3C//DTD SVG 1.1//EN" "http://www.w3.org/Graphics/SVG/1.1/DTD/svg11.dtd">
<svg version="1.1" id="Layer_1" xmlns="http://www.w3.org/2000/svg" xmlns:xlink="http://www.w3.org/1999/xlink" x="0px" y="0px"
	 viewBox="0 0 48 48" enable-background="new 0 0 48 48" xml:space="preserve">
<g>
	<g>
		<path fill="#c5c5c5" d="M29,47.5H18l8.3-16.6h10.9L29,47.5z M21.2,45.6h6.6l6.3-12.7h-6.6L21.2,45.6z"/>
		<path fill="#c5c5c5" d="M11.4,47.5H0.5l8.3-16.6h10.9L11.4,47.5z M3.7,45.6h6.6l6.3-12.7H10L3.7,45.6z"/>
		<path fill="#c5c5c5" d="M20.2,47.5H9.3l8.3-16.6h10.9L20.2,47.5z M12.4,45.6H19l6.3-12.7h-6.6L12.4,45.6z"/>
		<path fill="#c5c5c5" d="M47.5,47.5H35.6l6-11.9L47.5,47.5z M38.7,45.6h5.6l-2.8-5.6L38.7,45.6z"/>
		<path fill="#c5c5c5" d="M37.8,47.5H26.8l8.3-16.6h4.1l3.4,6.8L37.8,47.5z M30,45.6h6.6l3.9-7.8L38,32.9h-1.7L30,45.6z"/>
	</g>
	<path fill="#c5c5c5" d="M40.2,32.9H7.8l8.3-16.6h15.8L40.2,32.9z M11,30.9H37l-6.3-12.7H17.3L11,30.9z"/>
	<path fill="#c5c5c5" d="M32.9,18.3H15.1L24,0.5L32.9,18.3z M18.3,16.3h11.5L24,4.9L18.3,16.3z"/>
</g>
</svg>
