<?xml version="1.0" encoding="utf-8"?>
<!-- Generator: Adobe Illustrator 18.0.0, SVG Export Plug-In . SVG Version: 6.00 Build 0)  -->
<!DOCTYPE svg PUBLIC "-//W3C//DTD SVG 1.1//EN" "http://www.w3.org/Graphics/SVG/1.1/DTD/svg11.dtd">
<svg version="1.1" id="Layer_1" xmlns="http://www.w3.org/2000/svg" xmlns:xlink="http://www.w3.org/1999/xlink" x="0px" y="0px"
	 viewBox="0 0 48 48" enable-background="new 0 0 48 48" xml:space="preserve">
<g>
	<path fill="#c5c5c5" d="M22.4,38.9c-4,0-7.7-1.6-10.6-4.4c-5.8-5.8-5.8-15.3,0-21.1c2.8-2.8,6.6-4.4,10.6-4.4c4,0,7.7,1.6,10.6,4.4
		c5.8,5.8,5.8,15.3,0,21.1C30.2,37.4,26.4,38.9,22.4,38.9z M22.4,10.9c-3.5,0-6.8,1.4-9.2,3.8c-5.1,5.1-5.1,13.4,0,18.5
		c2.5,2.5,5.8,3.8,9.2,3.8c3.5,0,6.8-1.4,9.2-3.8c5.1-5.1,5.1-13.4,0-18.5C29.2,12.3,25.9,10.9,22.4,10.9z"/>
	<g>
		<path fill="#c5c5c5" d="M22.4,45.9C10.3,45.9,0.5,36.1,0.5,24S10.3,2.1,22.4,2.1C33,2.1,42.1,9.6,44,19.9l-1.8,0.3
			C40.4,10.8,32.1,3.9,22.4,3.9c-11.1,0-20.1,9-20.1,20.1s9,20.1,20.1,20.1V45.9z"/>
		<g>
			<polygon fill="#c5c5c5" points="47.5,19 38.5,20 43.4,24 			"/>
		</g>
	</g>
	<polygon fill="#c5c5c5" points="35.7,28.5 20.6,24.5 31.7,13.4 33,14.8 24.2,23.5 36.2,26.7 	"/>
</g>
</svg>
