<?xml version="1.0" encoding="utf-8"?>
<!-- Generator: Adobe Illustrator 18.0.0, SVG Export Plug-In . SVG Version: 6.00 Build 0)  -->
<!DOCTYPE svg PUBLIC "-//W3C//DTD SVG 1.1//EN" "http://www.w3.org/Graphics/SVG/1.1/DTD/svg11.dtd">
<svg version="1.1" id="Layer_1" xmlns="http://www.w3.org/2000/svg" xmlns:xlink="http://www.w3.org/1999/xlink" x="0px" y="0px"
	 viewBox="0 0 48 48" enable-background="new 0 0 48 48" xml:space="preserve">
<g>
	<path fill="#c5c5c5" d="M27.6,47.5c-7.2,0-14.1-2.8-19.2-7.9C-2.1,29-2.1,11.8,8.4,1.2l0.7-0.7l8,8l-0.7,0.7c-3,3-4.6,7-4.6,11.2
		c0,8.7,7.1,15.8,15.8,15.8c4.2,0,8.2-1.7,11.2-4.6l0.7-0.7l8,8l-0.7,0.7C41.7,44.7,34.9,47.5,27.6,47.5z M9.2,3.3
		C0,13.2,0.3,28.6,9.8,38.2c4.7,4.7,11.1,7.4,17.8,7.4c6.4,0,12.4-2.4,17.1-6.7l-5.2-5.2c-3.3,2.9-7.5,4.5-11.9,4.5
		c-9.8,0-17.8-8-17.8-17.8c0-4.4,1.6-8.6,4.5-11.9L9.2,3.3z"/>
	<path fill="#c5c5c5" d="M27.6,38.2c-9.8,0-17.8-8-17.8-17.8c0-4.8,1.9-9.2,5.2-12.6c3.4-3.4,7.8-5.2,12.6-5.2
		c9.8,0,17.8,8,17.8,17.8c0,4.8-1.9,9.2-5.2,12.6C36.8,36.4,32.4,38.2,27.6,38.2z M27.6,4.5c-4.2,0-8.2,1.7-11.2,4.6
		c-3,3-4.6,7-4.6,11.2c0,8.7,7.1,15.8,15.8,15.8c4.2,0,8.2-1.7,11.2-4.6c3-3,4.6-7,4.6-11.2C43.5,11.6,36.4,4.5,27.6,4.5z"/>
</g>
</svg>
