<?xml version="1.0" encoding="utf-8"?>
<!-- Generator: Adobe Illustrator 18.0.0, SVG Export Plug-In . SVG Version: 6.00 Build 0)  -->
<!DOCTYPE svg PUBLIC "-//W3C//DTD SVG 1.1//EN" "http://www.w3.org/Graphics/SVG/1.1/DTD/svg11.dtd">
<svg version="1.1" id="Layer_1" xmlns="http://www.w3.org/2000/svg" xmlns:xlink="http://www.w3.org/1999/xlink" x="0px" y="0px"
	 viewBox="0 0 48 48" enable-background="new 0 0 48 48" xml:space="preserve">
<g>
	<path fill="#c5c5c5" d="M24,47.5C11,47.5,0.5,37,0.5,24S11,0.5,24,0.5h1v8.4h-1C15.7,8.9,8.9,15.7,8.9,24c0,8.3,6.8,15.1,15.1,15.1
		c8.3,0,15.1-6.8,15.1-15.1v-1h8.4v1C47.5,37,37,47.5,24,47.5z M23,2.5C11.6,3,2.5,12.5,2.5,24c0,11.9,9.6,21.5,21.5,21.5
		c11.5,0,21-9.1,21.5-20.5H41c-0.5,9-8,16.1-17,16.1c-9.4,0-17.1-7.7-17.1-17.1C6.9,14.9,14,7.5,23,7V2.5z"/>
	<path fill="#c5c5c5" d="M24,41.1c-9.4,0-17.1-7.7-17.1-17.1c0-9.4,7.7-17.1,17.1-17.1c9.4,0,17.1,7.7,17.1,17.1
		C41.1,33.4,33.4,41.1,24,41.1z M24,8.9C15.7,8.9,8.9,15.7,8.9,24c0,8.3,6.8,15.1,15.1,15.1c8.3,0,15.1-6.8,15.1-15.1
		C39.1,15.7,32.3,8.9,24,8.9z M24,34.6c-5.9,0-10.6-4.8-10.6-10.6c0-5.9,4.8-10.6,10.6-10.6c5.9,0,10.6,4.8,10.6,10.6
		C34.6,29.9,29.9,34.6,24,34.6z M24,15.4c-4.8,0-8.6,3.9-8.6,8.6s3.9,8.6,8.6,8.6s8.6-3.9,8.6-8.6S28.8,15.4,24,15.4z"/>
</g>
</svg>
