<?xml version="1.0" encoding="utf-8"?>
<!-- Generator: Adobe Illustrator 18.0.0, SVG Export Plug-In . SVG Version: 6.00 Build 0)  -->
<!DOCTYPE svg PUBLIC "-//W3C//DTD SVG 1.1//EN" "http://www.w3.org/Graphics/SVG/1.1/DTD/svg11.dtd">
<svg version="1.1" id="Layer_1" xmlns="http://www.w3.org/2000/svg" xmlns:xlink="http://www.w3.org/1999/xlink" x="0px" y="0px"
	 viewBox="0 0 48 48" enable-background="new 0 0 48 48" xml:space="preserve">
<g>
	<path fill="#c5c5c5" d="M29,47.5C16,47.5,5.5,37,5.5,24C5.5,11,16,0.5,29,0.5c4.5,0,9,1.3,12.7,3.8l-1.1,1.7
		C37.2,3.7,33.1,2.5,29,2.5C17.1,2.5,7.4,12.1,7.4,24c0,11.9,9.7,21.5,21.5,21.5V47.5z"/>
	<path fill="#c5c5c5" d="M29,41.5c-9.6,0-17.5-7.8-17.5-17.5c0-9.6,7.8-17.5,17.5-17.5c4.3,0,8.4,1.6,11.6,4.4
		c0.7,0.6,1.4,1.3,2,2.1L41,14.2c-0.5-0.7-1.1-1.3-1.8-1.9C36.4,9.9,32.7,8.5,29,8.5c-8.6,0-15.5,7-15.5,15.5s7,15.5,15.5,15.5V41.5
		z"/>
	<path fill="#c5c5c5" d="M29,35.5c-6.3,0-11.5-5.2-11.5-11.5c0-6.3,5.2-11.5,11.5-11.5c3.1,0,6,1.2,8.1,3.4c2.2,2.2,3.4,5.1,3.4,8.1
		h-2c0-2.5-1-4.9-2.8-6.7c-1.8-1.8-4.2-2.8-6.7-2.8c-5.2,0-9.5,4.3-9.5,9.5s4.3,9.5,9.5,9.5V35.5z"/>
</g>
</svg>
