<?xml version="1.0" encoding="utf-8"?>
<!-- Generator: Adobe Illustrator 16.0.0, SVG Export Plug-In . SVG Version: 6.00 Build 0)  -->
<!DOCTYPE svg PUBLIC "-//W3C//DTD SVG 1.1//EN" "http://www.w3.org/Graphics/SVG/1.1/DTD/svg11.dtd">
<svg version="1.1" xmlns="http://www.w3.org/2000/svg" xmlns:xlink="http://www.w3.org/1999/xlink" x="0px" y="0px"
	 width="342.51px" height="317px" viewBox="0 0 342.51 317" enable-background="new 0 0 342.51 317" xml:space="preserve">
<g id="Layer_2">
	<g>
		<g>
			<path fill="#3B3B3B" d="M173.839,90.173c0.038,0.055,0.06,0.131,0.069,0.23c0.009,0.098-0.02,0.218-0.088,0.356
				c-0.066,0.137-0.187,0.296-0.359,0.479c-0.172,0.181-0.417,0.382-0.734,0.6c-0.103,0.071-0.208,0.138-0.312,0.2
				s-0.209,0.119-0.319,0.169c-0.048-0.146-0.071-0.218-0.119-0.364c0.153-0.082,0.296-0.169,0.437-0.267
				c0.162-0.113,0.286-0.217,0.368-0.309c0.084-0.094,0.136-0.177,0.159-0.253s0.028-0.149,0.009-0.215
				c-0.02-0.065-0.053-0.13-0.096-0.189c-0.691-0.961-1.039-1.44-1.73-2.401c0.351-0.265,0.526-0.397,0.879-0.66
				C172.736,88.599,173.104,89.124,173.839,90.173z M170.33,87.547c-0.05-0.068-0.031-0.175,0.058-0.323
				c0.087-0.146,0.223-0.292,0.405-0.434c0.181-0.14,0.351-0.231,0.511-0.274c0.162-0.044,0.268-0.032,0.316,0.039
				c0.054,0.077,0.037,0.186-0.051,0.327c-0.086,0.14-0.224,0.283-0.411,0.426c-0.189,0.145-0.359,0.238-0.513,0.282
				C170.49,87.635,170.384,87.622,170.33,87.547z"/>
			<path fill="#3B3B3B" d="M174.199,87.594c-0.116-0.174-0.154-0.381-0.105-0.626c0.049-0.246,0.166-0.511,0.349-0.794
				s0.429-0.578,0.742-0.883s0.68-0.604,1.097-0.891c0.415-0.286,0.815-0.517,1.209-0.694c0.392-0.176,0.752-0.292,1.073-0.344
				c0.321-0.052,0.601-0.044,0.84,0.023s0.415,0.199,0.526,0.398s0.138,0.425,0.082,0.678s-0.178,0.518-0.364,0.791
				s-0.438,0.55-0.751,0.833c-0.315,0.284-0.674,0.554-1.084,0.817c-0.412,0.264-0.812,0.48-1.196,0.648s-0.736,0.284-1.054,0.346
				s-0.599,0.073-0.837,0.029S174.315,87.769,174.199,87.594z M175.15,86.932c0.078,0.12,0.189,0.203,0.343,0.247
				s0.339,0.047,0.555,0.013c0.216-0.034,0.454-0.107,0.714-0.215s0.534-0.254,0.824-0.441c0.288-0.187,0.534-0.375,0.739-0.571
				s0.369-0.389,0.489-0.579c0.12-0.189,0.194-0.367,0.218-0.534s-0.002-0.317-0.077-0.448s-0.187-0.225-0.34-0.278
				s-0.344-0.065-0.562-0.035s-0.457,0.102-0.72,0.213s-0.541,0.265-0.831,0.463c-0.292,0.199-0.539,0.402-0.744,0.608
				s-0.367,0.408-0.485,0.602s-0.188,0.372-0.209,0.535S175.072,86.812,175.15,86.932z"/>
			<path fill="#3B3B3B" d="M179.772,79.997c0.369-0.245,0.556-0.367,0.927-0.608c0.419,0.801,0.628,1.204,1.047,2.005
				c0.009-0.006,0.015-0.008,0.023-0.014c0.035-0.092,0.091-0.2,0.176-0.32c0.083-0.119,0.192-0.248,0.322-0.383
				c0.132-0.137,0.286-0.277,0.464-0.421c0.175-0.143,0.369-0.277,0.584-0.408c0.363-0.22,0.692-0.383,0.985-0.485
				c0.295-0.104,0.553-0.155,0.775-0.156c0.225-0.002,0.408,0.045,0.559,0.142c0.151,0.096,0.271,0.231,0.351,0.402
				c0.329,0.706,0.488,1.058,0.817,1.764c-0.368,0.199-0.553,0.299-0.92,0.501c-0.323-0.675-0.481-1.013-0.805-1.688
				c-0.113-0.236-0.304-0.362-0.573-0.376c-0.271-0.015-0.626,0.108-1.06,0.369c-0.301,0.181-0.549,0.363-0.738,0.544
				c-0.191,0.183-0.333,0.36-0.424,0.536s-0.136,0.346-0.137,0.511c-0.001,0.164,0.04,0.325,0.119,0.477
				c0.271,0.518,0.402,0.776,0.673,1.294c-0.362,0.211-0.544,0.317-0.905,0.531C181.128,82.525,180.678,81.683,179.772,79.997z"/>
			<path fill="#3B3B3B" d="M187.56,78.337c-0.06-0.134-0.123-0.258-0.191-0.365s-0.122-0.209-0.165-0.306
				c0.356-0.201,0.533-0.3,0.891-0.499c0.035,0.081,0.074,0.16,0.117,0.236s0.082,0.156,0.119,0.242
				c0.01-0.005,0.016-0.008,0.025-0.014c0.031-0.107,0.092-0.225,0.181-0.357c0.087-0.132,0.2-0.271,0.339-0.413
				c0.139-0.142,0.303-0.284,0.49-0.426c0.189-0.143,0.4-0.276,0.636-0.402c0.372-0.199,0.71-0.34,1.007-0.42
				c0.299-0.082,0.557-0.11,0.779-0.09c0.225,0.02,0.407,0.09,0.554,0.208c0.147,0.118,0.259,0.272,0.332,0.463
				c0.3,0.787,0.448,1.18,0.748,1.967c-0.376,0.178-0.563,0.267-0.938,0.448c-0.296-0.754-0.441-1.132-0.737-1.886
				c-0.104-0.264-0.29-0.419-0.56-0.461c-0.271-0.042-0.632,0.055-1.076,0.29c-0.308,0.163-0.559,0.333-0.756,0.507
				c-0.199,0.176-0.347,0.352-0.444,0.531s-0.15,0.359-0.157,0.536c-0.007,0.175,0.027,0.351,0.101,0.521
				c0.251,0.583,0.373,0.875,0.624,1.458c-0.37,0.19-0.557,0.286-0.926,0.479C188.153,79.686,187.957,79.236,187.56,78.337z"/>
			<path fill="#3B3B3B" d="M195.706,76.172c0.204-0.093,0.393-0.129,0.562-0.11c0.172,0.019,0.279,0.088,0.32,0.207
				s0,0.256-0.121,0.405c-0.121,0.15-0.275,0.263-0.461,0.346s-0.365,0.12-0.544,0.106c-0.179-0.014-0.289-0.081-0.331-0.198
				s-0.01-0.247,0.104-0.395S195.504,76.264,195.706,76.172z"/>
			<path fill="#3B3B3B" d="M203.166,73.283c-0.01,0.004-0.014,0.006-0.023,0.01c-0.126,0.279-0.362,0.565-0.711,0.858
				c-0.351,0.294-0.779,0.542-1.294,0.748c-0.4,0.161-0.792,0.265-1.173,0.318c-0.379,0.052-0.721,0.052-1.029-0.001
				c-0.309-0.054-0.574-0.158-0.791-0.313c-0.218-0.156-0.369-0.361-0.454-0.62c-0.085-0.258-0.088-0.531-0.012-0.817
				c0.076-0.285,0.222-0.571,0.435-0.854s0.495-0.555,0.845-0.816c0.35-0.261,0.756-0.496,1.215-0.696
				c0.427-0.187,0.833-0.301,1.22-0.345s0.741-0.022,1.065,0.064c0.01-0.004,0.016-0.006,0.025-0.01
				c-0.307-1.112-0.46-1.667-0.767-2.779c0.398-0.175,0.598-0.262,0.997-0.433c0.637,2.389,0.954,3.583,1.591,5.973
				c-0.385,0.144-0.576,0.215-0.96,0.362C203.273,73.671,203.237,73.542,203.166,73.283z M202.842,72.104
				c-0.053-0.192-0.151-0.35-0.292-0.475s-0.323-0.21-0.541-0.255s-0.463-0.051-0.737-0.012s-0.569,0.126-0.887,0.263
				s-0.591,0.295-0.824,0.474s-0.423,0.367-0.568,0.564c-0.147,0.198-0.24,0.394-0.286,0.592s-0.039,0.389,0.019,0.572
				c0.058,0.183,0.158,0.332,0.302,0.447s0.322,0.192,0.539,0.233c0.216,0.041,0.461,0.043,0.731,0.008
				c0.271-0.036,0.559-0.115,0.871-0.241s0.584-0.273,0.814-0.442c0.23-0.169,0.418-0.349,0.564-0.542
				c0.147-0.193,0.248-0.39,0.298-0.591S202.895,72.296,202.842,72.104z"/>
			<path fill="#3B3B3B" d="M205.277,71.157c-0.074-0.295-0.062-0.592,0.037-0.896c0.1-0.304,0.265-0.596,0.5-0.879
				c0.235-0.283,0.535-0.549,0.903-0.796c0.366-0.246,0.782-0.455,1.242-0.625s0.898-0.275,1.312-0.313
				c0.415-0.039,0.786-0.015,1.105,0.073c0.319,0.088,0.582,0.236,0.795,0.44s0.35,0.465,0.412,0.782s0.039,0.629-0.069,0.938
				s-0.283,0.6-0.521,0.873c-0.238,0.273-0.536,0.522-0.898,0.748c-0.36,0.225-0.764,0.411-1.212,0.56s-0.876,0.24-1.279,0.273
				c-0.405,0.033-0.766,0.009-1.082-0.069c-0.316-0.078-0.584-0.208-0.803-0.392S205.352,71.452,205.277,71.157z M206.332,70.763
				c0.049,0.201,0.141,0.371,0.278,0.507s0.311,0.235,0.525,0.298c0.213,0.062,0.456,0.088,0.728,0.074s0.564-0.073,0.882-0.18
				s0.594-0.24,0.832-0.4c0.238-0.161,0.435-0.337,0.591-0.531c0.156-0.193,0.268-0.395,0.327-0.605s0.067-0.422,0.024-0.633
				s-0.132-0.389-0.267-0.534s-0.313-0.253-0.528-0.321s-0.456-0.093-0.731-0.077s-0.575,0.082-0.898,0.2s-0.604,0.263-0.845,0.433
				s-0.44,0.354-0.596,0.551c-0.157,0.198-0.261,0.4-0.315,0.607S206.283,70.562,206.332,70.763z"/>
			<path fill="#3B3B3B" d="M218.665,68.274c-0.31,0.425-0.669,0.757-1.071,0.999c-0.402,0.242-0.877,0.436-1.431,0.586
				c-0.464,0.126-0.891,0.183-1.281,0.173c-0.389-0.011-0.727-0.075-1.019-0.192c-0.291-0.118-0.531-0.287-0.718-0.505
				c-0.188-0.22-0.312-0.478-0.367-0.775c-0.059-0.314-0.038-0.627,0.067-0.942c0.105-0.314,0.278-0.61,0.519-0.889
				s0.539-0.535,0.899-0.761s0.768-0.41,1.218-0.548c0.425-0.13,0.823-0.198,1.193-0.204s0.696,0.052,0.979,0.172
				s0.515,0.301,0.691,0.542c0.177,0.241,0.292,0.546,0.342,0.903c0.013,0.092,0.018,0.138,0.03,0.23
				c-1.939,0.516-2.906,0.791-4.831,1.376c0.048,0.172,0.142,0.322,0.276,0.452c0.134,0.129,0.293,0.233,0.483,0.305
				s0.404,0.111,0.643,0.117c0.24,0.007,0.498-0.027,0.768-0.103c0.431-0.12,0.785-0.273,1.063-0.462s0.521-0.423,0.729-0.701
				C218.175,68.136,218.34,68.182,218.665,68.274z M217.552,66.749c-0.071-0.362-0.284-0.606-0.636-0.733
				c-0.351-0.126-0.807-0.106-1.366,0.063c-0.562,0.17-0.995,0.418-1.3,0.738c-0.307,0.32-0.463,0.667-0.467,1.041
				C215.285,67.393,216.04,67.171,217.552,66.749z"/>
			<path fill="#3B3B3B" d="M226.178,64.723c-0.029,0.087-0.048,0.177-0.062,0.27s-0.022,0.176-0.017,0.248
				c0.011,0.132,0.121,0.177,0.328,0.134s0.416-0.148,0.622-0.314s0.391-0.37,0.548-0.606c0.158-0.238,0.287-0.498,0.382-0.782
				s0.136-0.567,0.116-0.848c-0.026-0.395-0.153-0.729-0.378-1.003s-0.514-0.485-0.868-0.631s-0.756-0.226-1.202-0.24
				c-0.444-0.015-0.898,0.037-1.36,0.153c-0.577,0.144-1.106,0.366-1.584,0.658c-0.479,0.292-0.886,0.627-1.219,1
				c-0.333,0.373-0.581,0.771-0.745,1.191s-0.222,0.832-0.172,1.233c0.052,0.421,0.208,0.785,0.467,1.096
				c0.259,0.312,0.585,0.562,0.976,0.75s0.835,0.308,1.328,0.36c0.493,0.052,1,0.024,1.528-0.086
				c0.639-0.133,1.241-0.361,1.807-0.693c0.563-0.332,1.01-0.713,1.338-1.148c0.326-0.062,0.488-0.093,0.814-0.154
				c-0.188,0.314-0.422,0.605-0.698,0.876c-0.276,0.271-0.584,0.517-0.923,0.732c-0.339,0.215-0.7,0.399-1.084,0.554
				c-0.386,0.156-0.787,0.274-1.204,0.359c-0.672,0.137-1.304,0.176-1.9,0.117c-0.599-0.058-1.133-0.196-1.6-0.412
				c-0.468-0.217-0.854-0.502-1.156-0.861s-0.486-0.779-0.55-1.265s0.005-0.976,0.209-1.471s0.512-0.963,0.923-1.402
				s0.905-0.833,1.489-1.179s1.22-0.609,1.907-0.783c0.616-0.156,1.203-0.226,1.76-0.208c0.555,0.019,1.052,0.118,1.484,0.295
				c0.435,0.177,0.781,0.433,1.044,0.761c0.263,0.328,0.409,0.721,0.437,1.172c0.027,0.438-0.055,0.856-0.236,1.252
				c-0.182,0.396-0.414,0.751-0.699,1.063c-0.287,0.313-0.601,0.574-0.943,0.783c-0.343,0.209-0.665,0.343-0.965,0.404
				c-0.225,0.046-0.416,0.031-0.578-0.041c-0.163-0.072-0.264-0.215-0.301-0.434c-0.011,0.002-0.019,0.003-0.029,0.006
				c-0.182,0.219-0.392,0.417-0.629,0.597c-0.237,0.181-0.542,0.312-0.921,0.396c-0.274,0.061-0.526,0.079-0.758,0.053
				c-0.229-0.025-0.431-0.086-0.603-0.182c-0.173-0.096-0.318-0.225-0.423-0.38c-0.104-0.156-0.171-0.34-0.195-0.549
				c-0.038-0.329-0.006-0.674,0.1-1.033c0.106-0.36,0.28-0.702,0.52-1.025s0.54-0.611,0.902-0.864
				c0.362-0.252,0.775-0.439,1.243-0.553c0.309-0.075,0.599-0.082,0.87-0.022s0.494,0.221,0.669,0.483
				c0.011-0.002,0.016-0.003,0.026-0.006c0.075-0.271,0.112-0.405,0.188-0.676c0.344-0.079,0.516-0.118,0.86-0.195
				C226.699,62.902,226.522,63.512,226.178,64.723z M222.605,65.272c0.029,0.268,0.163,0.462,0.392,0.586s0.505,0.151,0.833,0.077
				c0.283-0.064,0.539-0.194,0.768-0.387c0.227-0.193,0.425-0.414,0.588-0.663s0.287-0.506,0.371-0.771
				c0.084-0.264,0.117-0.5,0.1-0.704c-0.011-0.125-0.053-0.237-0.123-0.333s-0.158-0.178-0.262-0.241
				c-0.104-0.062-0.223-0.104-0.354-0.123s-0.271-0.011-0.411,0.022c-0.309,0.074-0.583,0.209-0.829,0.405
				c-0.244,0.195-0.453,0.417-0.619,0.665s-0.286,0.502-0.365,0.761S222.583,65.062,222.605,65.272z"/>
			<path fill="#3B3B3B" d="M230.441,58.836c0.421-0.088,0.633-0.132,1.055-0.217c0.133,3.12,0.2,4.68,0.333,7.8
				c-0.4,0.061-0.601,0.092-1.001,0.156C230.674,63.48,230.596,61.932,230.441,58.836z"/>
			<path fill="#3B3B3B" d="M239.216,64.568c-0.367,0.43-0.769,0.744-1.199,0.945c-0.431,0.201-0.926,0.333-1.491,0.399
				c-0.474,0.056-0.898,0.037-1.28-0.052c-0.38-0.089-0.702-0.231-0.971-0.426c-0.269-0.194-0.481-0.439-0.633-0.73
				c-0.151-0.292-0.232-0.615-0.243-0.971c-0.012-0.376,0.054-0.733,0.203-1.077c0.149-0.343,0.361-0.651,0.639-0.924
				c0.277-0.273,0.608-0.506,0.996-0.695s0.816-0.318,1.279-0.387c0.437-0.065,0.836-0.063,1.201,0.004s0.678,0.199,0.938,0.393
				s0.461,0.446,0.599,0.759c0.138,0.312,0.204,0.684,0.199,1.105c-0.001,0.109-0.003,0.163-0.004,0.271
				c-1.982,0.219-2.97,0.346-4.945,0.636c0.021,0.208,0.087,0.401,0.2,0.578c0.112,0.177,0.257,0.329,0.433,0.45
				s0.383,0.209,0.615,0.264c0.234,0.055,0.491,0.065,0.768,0.031c0.44-0.054,0.809-0.161,1.11-0.325s0.573-0.385,0.818-0.665
				C238.755,64.317,238.911,64.4,239.216,64.568z M238.351,62.595c-0.016-0.431-0.188-0.755-0.515-0.971
				c-0.325-0.215-0.777-0.282-1.353-0.199c-0.577,0.083-1.04,0.282-1.386,0.59c-0.349,0.308-0.552,0.677-0.61,1.109
				C236.031,62.891,236.803,62.786,238.351,62.595z"/>
			<path fill="#3B3B3B" d="M247.041,64.707c-0.061,0.977-0.393,1.731-0.978,2.256c-0.585,0.525-1.396,0.801-2.444,0.852
				c-0.584,0.029-1.109-0.015-1.574-0.133c-0.465-0.119-0.903-0.344-1.322-0.671c0.291-0.304,0.438-0.456,0.731-0.761
				c0.308,0.271,0.639,0.472,0.987,0.602s0.749,0.181,1.208,0.156c0.442-0.024,0.813-0.1,1.112-0.23
				c0.301-0.131,0.54-0.299,0.722-0.507c0.182-0.208,0.313-0.444,0.396-0.706s0.132-0.532,0.147-0.812
				c0.016-0.273,0.025-0.409,0.04-0.682c-0.01,0-0.018,0.001-0.027,0.001c-0.263,0.355-0.59,0.621-0.985,0.801
				c-0.397,0.181-0.797,0.283-1.203,0.309c-0.474,0.03-0.905-0.006-1.297-0.11c-0.394-0.104-0.728-0.261-1.009-0.473
				c-0.279-0.211-0.493-0.47-0.644-0.778s-0.222-0.653-0.215-1.034c0.008-0.418,0.093-0.803,0.26-1.158s0.395-0.663,0.689-0.927
				s0.652-0.481,1.068-0.651c0.414-0.168,0.871-0.278,1.371-0.326c0.216-0.021,0.431-0.019,0.643,0.003
				c0.215,0.021,0.418,0.067,0.614,0.137c0.196,0.07,0.37,0.164,0.524,0.283c0.154,0.12,0.278,0.264,0.375,0.43
				c0.011-0.001,0.016-0.001,0.026-0.002c0.021-0.364,0.031-0.547,0.052-0.911c0.42-0.033,0.63-0.05,1.05-0.08
				C247.232,61.634,247.168,62.659,247.041,64.707z M241.793,62.678c-0.007,0.266,0.041,0.508,0.148,0.722
				c0.107,0.214,0.257,0.398,0.448,0.549c0.19,0.15,0.413,0.264,0.67,0.341c0.257,0.078,0.531,0.105,0.825,0.085
				c0.347-0.024,0.658-0.095,0.933-0.218c0.274-0.122,0.507-0.278,0.703-0.467c0.196-0.188,0.352-0.402,0.46-0.64
				c0.108-0.237,0.169-0.485,0.184-0.743c0.016-0.288-0.021-0.55-0.113-0.782s-0.232-0.425-0.418-0.584s-0.416-0.275-0.688-0.346
				c-0.271-0.071-0.57-0.09-0.9-0.06c-0.328,0.03-0.632,0.107-0.906,0.234s-0.511,0.288-0.706,0.481s-0.351,0.41-0.463,0.653
				S241.8,62.405,241.793,62.678z"/>
			<path fill="#3B3B3B" d="M249.303,57.353c0.013-0.178,0.103-0.337,0.262-0.479c0.16-0.142,0.349-0.222,0.567-0.237
				s0.401,0.04,0.541,0.163c0.138,0.122,0.197,0.273,0.183,0.453c-0.017,0.195-0.102,0.359-0.256,0.491
				c-0.155,0.133-0.346,0.206-0.571,0.219s-0.408-0.036-0.544-0.149C249.35,57.701,249.288,57.546,249.303,57.353z M249.386,59.457
				c0.42-0.024,0.631-0.037,1.051-0.058c-0.18,2.182-0.268,3.274-0.446,5.457c-0.404,0.008-0.607,0.012-1.012,0.023
				C249.142,62.71,249.222,61.626,249.386,59.457z"/>
			<path fill="#3B3B3B" d="M251.901,62.078c0.04-0.432,0.162-0.827,0.364-1.185c0.202-0.359,0.46-0.669,0.779-0.934
				c0.319-0.264,0.695-0.474,1.124-0.627c0.427-0.153,0.884-0.233,1.368-0.241s0.928,0.06,1.321,0.202
				c0.396,0.143,0.725,0.347,0.985,0.611c0.26,0.265,0.448,0.581,0.568,0.949c0.12,0.368,0.148,0.775,0.088,1.222
				s-0.199,0.853-0.414,1.213s-0.482,0.667-0.802,0.922c-0.319,0.255-0.688,0.45-1.104,0.585c-0.414,0.135-0.852,0.198-1.316,0.191
				s-0.89-0.084-1.271-0.229c-0.383-0.145-0.701-0.344-0.962-0.599c-0.261-0.254-0.457-0.558-0.59-0.909
				S251.861,62.51,251.901,62.078z M253.01,62.056c-0.029,0.292-0.004,0.562,0.071,0.81s0.196,0.463,0.369,0.648
				c0.172,0.185,0.383,0.333,0.636,0.442c0.253,0.108,0.546,0.164,0.876,0.167s0.632-0.046,0.909-0.15
				c0.278-0.104,0.524-0.249,0.739-0.435c0.215-0.185,0.392-0.404,0.524-0.656s0.218-0.529,0.256-0.828
				c0.038-0.299,0.022-0.577-0.047-0.833s-0.191-0.478-0.363-0.667s-0.384-0.339-0.643-0.446s-0.559-0.16-0.898-0.156
				s-0.651,0.064-0.936,0.176s-0.531,0.262-0.746,0.451c-0.216,0.19-0.388,0.411-0.515,0.662S253.039,61.764,253.01,62.056z"/>
			<path fill="#3B3B3B" d="M260.314,60.61c0.038-0.262,0.065-0.507,0.081-0.737s0.042-0.438,0.069-0.627
				c0.398,0.008,0.596,0.011,0.993,0.021c-0.023,0.157-0.041,0.204-0.056,0.361C261.387,59.785,261.365,60,261.34,60
				c0.011,0,0.015,0,0.025,0c0.093,0,0.216-0.162,0.365-0.289c0.15-0.128,0.322-0.185,0.518-0.283
				c0.195-0.097,0.412-0.146,0.647-0.2c0.233-0.054,0.48-0.062,0.741-0.052c0.412,0.017,0.764,0.097,1.043,0.229
				c0.28,0.131,0.499,0.312,0.658,0.533c0.159,0.221,0.26,0.486,0.3,0.79c0.04,0.305,0.025,0.633-0.038,0.986
				c-0.264,1.458-0.394,2.187-0.656,3.645c-0.402-0.035-0.603-0.051-1.005-0.083c0.245-1.411,0.365-2.116,0.61-3.527
				c0.086-0.493,0.04-0.889-0.143-1.186c-0.182-0.295-0.521-0.457-1.011-0.479c-0.34-0.015-0.642,0.027-0.904,0.125
				c-0.264,0.099-0.487,0.246-0.672,0.437c-0.186,0.192-0.339,0.424-0.456,0.693c-0.117,0.269-0.197,0.568-0.247,0.897
				c-0.172,1.126-0.258,1.689-0.43,2.815c-0.403-0.023-0.606-0.034-1.011-0.054C259.932,63.242,260.059,62.365,260.314,60.61z"/>
			<path fill="#3B3B3B" d="M267.771,60.344c0.38-0.29,0.809-0.493,1.282-0.606c0.474-0.114,0.938-0.151,1.396-0.111
				c0.933,0.082,1.56,0.36,1.876,0.827c0.315,0.465,0.376,1.134,0.181,2.001c-0.235,1.044-0.352,1.567-0.586,2.612
				c-0.039,0.173-0.073,0.354-0.099,0.542c-0.025,0.189-0.039,0.363-0.047,0.523c-0.385-0.053-0.58-0.079-0.965-0.129
				c-0.005-0.143,0.011-0.299,0.043-0.468c0.032-0.169,0.062-0.319,0.091-0.448c-0.01-0.001-0.016-0.001-0.025-0.002
				c-0.268,0.286-0.585,0.507-0.958,0.664c-0.373,0.156-0.787,0.207-1.249,0.153c-0.31-0.036-0.59-0.108-0.845-0.214
				c-0.255-0.106-0.47-0.245-0.643-0.414c-0.173-0.169-0.298-0.371-0.377-0.602s-0.09-0.49-0.035-0.778
				c0.094-0.491,0.295-0.865,0.612-1.122c0.317-0.256,0.685-0.438,1.104-0.538c0.418-0.101,0.857-0.146,1.318-0.135
				c0.461,0.011,0.882,0.035,1.26,0.076c0.158,0.017,0.236,0.026,0.395,0.043c0.016-0.072,0.023-0.107,0.039-0.18
				c0.096-0.439,0.035-0.787-0.188-1.039s-0.578-0.401-1.067-0.446c-0.339-0.031-0.683-0.008-1.028,0.07
				c-0.348,0.079-0.667,0.221-0.957,0.421C268.089,60.764,267.982,60.623,267.771,60.344z M270.291,62.959
				c-0.656-0.071-1.197-0.032-1.617,0.109c-0.42,0.142-0.669,0.417-0.75,0.826c-0.074,0.375-0.001,0.652,0.223,0.836
				c0.224,0.185,0.524,0.297,0.903,0.34c0.294,0.033,0.56,0.016,0.8-0.058c0.239-0.073,0.451-0.182,0.634-0.328
				s0.338-0.324,0.464-0.534s0.219-0.441,0.282-0.69c0.034-0.155,0.051-0.232,0.085-0.388
				C270.905,63.027,270.7,63.003,270.291,62.959z"/>
			<path fill="#3B3B3B" d="M274.621,61.708c0.066-0.279,0.12-0.542,0.159-0.787s0.083-0.47,0.131-0.671
				c0.397,0.048,0.595,0.072,0.991,0.123c-0.041,0.167-0.075,0.333-0.107,0.5c-0.032,0.168-0.068,0.34-0.111,0.515
				c0.012,0.001,0.016,0.002,0.027,0.003c0.105-0.14,0.243-0.272,0.406-0.395c0.162-0.122,0.345-0.228,0.551-0.313
				c0.205-0.085,0.429-0.148,0.668-0.184c0.241-0.035,0.489-0.034,0.749,0.003c0.409,0.058,0.75,0.172,1.015,0.34
				c0.267,0.169,0.466,0.381,0.602,0.633c0.137,0.253,0.207,0.546,0.214,0.877c0.007,0.332-0.041,0.685-0.143,1.059
				c-0.42,1.544-0.629,2.316-1.048,3.861c-0.398-0.076-0.597-0.112-0.995-0.185c0.396-1.497,0.595-2.245,0.991-3.741
				c0.139-0.523,0.135-0.956-0.015-1.292c-0.15-0.337-0.47-0.542-0.957-0.613c-0.338-0.049-0.646-0.033-0.917,0.047
				c-0.273,0.081-0.512,0.216-0.719,0.405s-0.383,0.423-0.527,0.702c-0.144,0.277-0.26,0.594-0.345,0.944
				c-0.292,1.199-0.438,1.798-0.73,2.997c-0.399-0.063-0.598-0.095-0.997-0.155C273.956,64.512,274.178,63.577,274.621,61.708z"/>
			<path fill="#3B3B3B" d="M282.086,62.141c0.411-0.275,0.864-0.454,1.348-0.532c0.485-0.078,0.954-0.074,1.407,0.012
				c0.923,0.176,1.52,0.534,1.785,1.063c0.266,0.53,0.252,1.254-0.037,2.166c-0.349,1.1-0.522,1.65-0.87,2.75
				c-0.058,0.183-0.11,0.374-0.156,0.574c-0.046,0.201-0.079,0.386-0.106,0.556c-0.379-0.092-0.566-0.137-0.945-0.227
				c0.013-0.153,0.043-0.319,0.093-0.497c0.05-0.178,0.098-0.337,0.14-0.473c-0.011-0.002-0.016-0.003-0.026-0.006
				c-0.296,0.283-0.641,0.49-1.03,0.625c-0.387,0.134-0.808,0.151-1.263,0.051c-0.303-0.067-0.577-0.169-0.82-0.307
				c-0.242-0.138-0.44-0.306-0.597-0.505c-0.154-0.198-0.258-0.424-0.311-0.682c-0.053-0.256-0.038-0.537,0.048-0.842
				c0.146-0.52,0.389-0.904,0.733-1.15c0.345-0.246,0.731-0.404,1.16-0.473s0.874-0.077,1.333-0.022
				c0.459,0.054,0.875,0.12,1.248,0.199c0.157,0.033,0.236,0.05,0.394,0.084c0.023-0.076,0.036-0.113,0.06-0.189
				c0.144-0.463,0.118-0.842-0.077-1.133s-0.535-0.484-1.02-0.579c-0.336-0.065-0.682-0.072-1.036-0.021
				c-0.353,0.052-0.688,0.174-1.002,0.361C282.358,62.622,282.268,62.461,282.086,62.141z M284.325,65.189
				c-0.649-0.137-1.195-0.147-1.632-0.034c-0.435,0.113-0.713,0.385-0.838,0.816c-0.114,0.396-0.069,0.703,0.134,0.922
				c0.203,0.22,0.492,0.369,0.865,0.45c0.288,0.062,0.558,0.066,0.808,0.01c0.247-0.056,0.47-0.154,0.667-0.293
				c0.196-0.139,0.371-0.319,0.519-0.533c0.147-0.214,0.27-0.451,0.359-0.713c0.051-0.164,0.075-0.246,0.126-0.409
				C284.93,65.318,284.729,65.275,284.325,65.189z"/>
			<path fill="#3B3B3B" d="M290.691,58.775c0.425,0.088,0.637,0.133,1.062,0.224c-1.407,4.175-2.109,6.262-3.513,10.438
				c-0.392-0.104-0.586-0.154-0.979-0.255C288.633,65.018,289.316,62.937,290.691,58.775z"/>
			<path fill="#3B3B3B" d="M291.789,72.084c-0.2,0.249-0.395,0.474-0.579,0.669s-0.381,0.355-0.581,0.474
				c-0.199,0.119-0.414,0.191-0.646,0.218c-0.229,0.027-0.486-0.003-0.77-0.088c-0.139-0.042-0.279-0.093-0.422-0.156
				c-0.145-0.063-0.271-0.152-0.375-0.264c0.179-0.363,0.269-0.543,0.448-0.906c0.082,0.075,0.174,0.134,0.277,0.18
				c0.102,0.044,0.222,0.088,0.361,0.129c0.312,0.092,0.572,0.062,0.79-0.088s0.436-0.373,0.661-0.667
				c0.334-0.444,0.503-0.666,0.84-1.11c-0.019-2.915-0.057-4.358-0.181-7.216c0.48,0.116,0.719,0.176,1.198,0.296
				c0.044,2.232,0.054,3.357,0.037,5.622c0.01,0.003,0.015,0.004,0.024,0.007c1.451-1.848,2.188-2.775,3.695-4.633
				c0.446,0.125,0.671,0.188,1.116,0.316C295.254,67.766,294.077,69.21,291.789,72.084z"/>
			<path fill="#3B3B3B" d="M301.724,67.161c-0.712-0.233-1.069-0.349-1.783-0.572c-0.535,1.327-0.802,1.993-1.337,3.32
				c-0.088,0.217-0.162,0.42-0.227,0.607c-0.064,0.186-0.099,0.36-0.096,0.516c0.003,0.155,0.045,0.296,0.129,0.416
				c0.083,0.119,0.234,0.217,0.448,0.291c0.142,0.049,0.293,0.079,0.458,0.093c0.163,0.014,0.327,0.006,0.49-0.024
				c-0.152,0.41-0.229,0.615-0.383,1.025c-0.2,0.027-0.406,0.023-0.624-0.01c-0.216-0.033-0.412-0.081-0.593-0.144
				c-0.345-0.121-0.602-0.268-0.765-0.441c-0.163-0.174-0.267-0.376-0.308-0.604c-0.041-0.227-0.025-0.486,0.047-0.776
				c0.072-0.29,0.176-0.606,0.311-0.945c0.576-1.454,0.864-2.181,1.44-3.635c-0.528-0.162-0.792-0.241-1.322-0.397
				c0.144-0.372,0.216-0.559,0.36-0.931c0.533,0.155,0.799,0.234,1.331,0.394c0.298-0.752,0.448-1.129,0.746-1.882
				c0.413,0.121,0.619,0.183,1.031,0.306c-0.305,0.754-0.456,1.132-0.761,1.886c0.719,0.222,1.079,0.335,1.796,0.567
				C301.958,66.597,301.88,66.785,301.724,67.161z"/>
			<path fill="#3B3B3B" d="M304.336,63.973c0.093-0.219,0.248-0.385,0.462-0.5c0.214-0.115,0.428-0.139,0.64-0.07
				s0.36,0.208,0.436,0.418c0.075,0.208,0.064,0.425-0.031,0.645c-0.104,0.239-0.26,0.412-0.465,0.518
				c-0.206,0.106-0.419,0.121-0.637,0.049s-0.368-0.206-0.443-0.404C304.222,64.432,304.235,64.211,304.336,63.973z M303.463,66.665
				c0.404,0.135,0.605,0.204,1.01,0.342c-1.158,2.68-1.735,4.02-2.893,6.7c-0.383-0.145-0.576-0.216-0.959-0.357
				C301.757,70.676,302.326,69.339,303.463,66.665z"/>
			<path fill="#3B3B3B" d="M309.934,71.014c-0.072-0.375-0.201-0.674-0.385-0.901s-0.424-0.4-0.72-0.514
				c-0.331-0.128-0.654-0.174-0.969-0.141s-0.604,0.133-0.874,0.301c-0.271,0.169-0.518,0.389-0.736,0.659
				c-0.22,0.271-0.409,0.579-0.565,0.924s-0.253,0.688-0.295,1.027s-0.032,0.659,0.031,0.956s0.184,0.559,0.36,0.785
				c0.176,0.225,0.409,0.397,0.703,0.519c0.625,0.258,1.238,0.184,1.848-0.232c0.131,0.438,0.197,0.659,0.324,1.101
				c-0.456,0.259-0.914,0.395-1.365,0.409c-0.453,0.015-0.882-0.063-1.293-0.235c-0.435-0.182-0.795-0.435-1.08-0.755
				c-0.286-0.322-0.484-0.691-0.599-1.11s-0.147-0.869-0.1-1.354s0.182-0.989,0.411-1.506c0.225-0.507,0.51-0.949,0.849-1.326
				c0.339-0.376,0.717-0.674,1.132-0.891s0.853-0.344,1.316-0.38c0.461-0.037,0.926,0.032,1.387,0.208
				c0.444,0.169,0.825,0.42,1.137,0.749c0.314,0.33,0.525,0.739,0.645,1.227C310.628,70.725,310.398,70.821,309.934,71.014z"/>
			<path fill="#3B3B3B" d="M310.297,75.155c0.048,0.364,0.139,0.677,0.278,0.942c0.141,0.265,0.38,0.474,0.717,0.628
				c0.145,0.066,0.304,0.114,0.47,0.144c0.168,0.029,0.332,0.029,0.496-0.003c0.166-0.032,0.318-0.095,0.458-0.193
				s0.258-0.241,0.353-0.426s0.137-0.352,0.129-0.499c-0.008-0.147-0.047-0.291-0.119-0.426c-0.071-0.134-0.169-0.26-0.291-0.375
				s-0.252-0.228-0.386-0.335c-0.236-0.189-0.456-0.38-0.659-0.576c-0.201-0.194-0.36-0.402-0.477-0.622
				c-0.115-0.221-0.175-0.468-0.178-0.737c-0.003-0.27,0.081-0.579,0.251-0.928c0.161-0.33,0.364-0.595,0.613-0.796
				c0.248-0.2,0.521-0.335,0.813-0.413c0.291-0.077,0.593-0.106,0.898-0.083c0.306,0.022,0.597,0.094,0.875,0.212
				c0.423,0.181,0.764,0.446,1.021,0.797s0.372,0.794,0.343,1.323c-0.455,0.105-0.68,0.159-1.132,0.266
				c-0.001-0.299-0.065-0.571-0.192-0.811c-0.128-0.241-0.338-0.425-0.633-0.552c-0.133-0.058-0.279-0.097-0.436-0.117
				c-0.159-0.021-0.31-0.016-0.458,0.016c-0.146,0.031-0.287,0.093-0.419,0.184s-0.234,0.216-0.311,0.371
				c-0.072,0.146-0.096,0.285-0.067,0.421s0.094,0.274,0.19,0.41c0.099,0.137,0.218,0.272,0.368,0.409
				c0.148,0.136,0.311,0.266,0.477,0.39c0.226,0.168,0.432,0.355,0.614,0.553c0.181,0.195,0.316,0.413,0.407,0.647
				s0.124,0.492,0.1,0.771s-0.128,0.591-0.306,0.933c-0.204,0.391-0.442,0.693-0.711,0.904c-0.27,0.212-0.553,0.354-0.85,0.424
				c-0.298,0.07-0.604,0.081-0.908,0.033s-0.598-0.137-0.875-0.266c-0.478-0.222-0.843-0.501-1.102-0.837s-0.41-0.809-0.457-1.416
				C309.64,75.375,309.857,75.301,310.297,75.155z"/>
			<path fill="#3B3B3B" d="M316.032,78.001c0.198,0.099,0.323,0.271,0.37,0.512c0.047,0.242-0.001,0.485-0.134,0.729
				c-0.134,0.245-0.319,0.417-0.556,0.514c-0.238,0.098-0.449,0.1-0.629,0.009c-0.182-0.092-0.297-0.259-0.352-0.503
				c-0.055-0.244-0.018-0.488,0.112-0.733c0.13-0.244,0.313-0.419,0.544-0.521C315.617,77.905,315.832,77.902,316.032,78.001z"/>
			<path fill="#3B3B3B" d="M324.57,77.918c-0.025-0.405-0.117-0.737-0.273-0.994c-0.158-0.259-0.381-0.464-0.667-0.614
				c-0.316-0.166-0.64-0.246-0.96-0.239c-0.318,0.007-0.626,0.087-0.919,0.242c-0.294,0.155-0.566,0.366-0.822,0.634
				s-0.482,0.581-0.683,0.935s-0.344,0.708-0.428,1.065s-0.112,0.699-0.085,1.021s0.116,0.61,0.267,0.867
				c0.15,0.256,0.364,0.462,0.644,0.617c0.601,0.333,1.227,0.308,1.896-0.079c0.078,0.479,0.118,0.717,0.191,1.198
				c-0.493,0.234-0.97,0.337-1.43,0.312c-0.458-0.025-0.881-0.147-1.274-0.367c-0.416-0.233-0.749-0.533-0.997-0.9
				c-0.247-0.368-0.4-0.779-0.465-1.235s-0.043-0.94,0.064-1.455c0.107-0.514,0.311-1.035,0.605-1.565
				c0.289-0.52,0.627-0.966,1.017-1.336c0.39-0.371,0.804-0.652,1.249-0.845s0.903-0.288,1.374-0.285
				c0.47,0.004,0.929,0.121,1.373,0.351c0.428,0.222,0.783,0.523,1.06,0.903c0.274,0.379,0.442,0.836,0.5,1.365
				C325.311,77.675,325.063,77.755,324.57,77.918z"/>
			<path fill="#3B3B3B" d="M324.992,80.461c0.329-0.543,0.704-0.994,1.126-1.353c0.423-0.359,0.861-0.625,1.324-0.798
				c0.462-0.172,0.938-0.242,1.421-0.208c0.481,0.033,0.94,0.175,1.376,0.427s0.784,0.577,1.038,0.974
				c0.256,0.398,0.41,0.839,0.463,1.32c0.052,0.481,0.003,0.99-0.141,1.53c-0.144,0.539-0.396,1.083-0.754,1.627
				s-0.759,0.993-1.196,1.346s-0.887,0.611-1.345,0.773c-0.458,0.163-0.915,0.221-1.377,0.179c-0.459-0.042-0.893-0.19-1.299-0.444
				s-0.729-0.576-0.968-0.966c-0.239-0.392-0.388-0.824-0.443-1.296c-0.057-0.471-0.021-0.971,0.101-1.501
				S324.663,81.004,324.992,80.461z M325.984,81.032c-0.225,0.366-0.387,0.73-0.489,1.094s-0.139,0.712-0.112,1.045
				c0.026,0.333,0.111,0.638,0.261,0.914c0.15,0.275,0.371,0.502,0.661,0.681s0.591,0.274,0.908,0.286
				c0.317,0.011,0.633-0.047,0.951-0.175c0.317-0.127,0.623-0.319,0.913-0.576s0.558-0.566,0.796-0.933
				c0.238-0.367,0.412-0.735,0.524-1.103s0.155-0.721,0.132-1.059s-0.116-0.645-0.273-0.923s-0.385-0.507-0.689-0.686
				s-0.621-0.269-0.948-0.277s-0.651,0.056-0.97,0.186c-0.32,0.131-0.62,0.328-0.902,0.587S326.209,80.666,325.984,81.032z"/>
			<path fill="#3B3B3B" d="M333.47,83.046c0.213-0.317,0.404-0.618,0.575-0.905s0.331-0.544,0.484-0.773
				c0.352,0.221,0.527,0.331,0.878,0.555c-0.128,0.189-0.25,0.381-0.37,0.575c-0.121,0.194-0.248,0.39-0.383,0.588
				c0.009,0.006,0.016,0.009,0.024,0.015c0.178-0.128,0.376-0.236,0.597-0.32c0.222-0.085,0.454-0.14,0.696-0.162
				c0.242-0.021,0.489-0.005,0.738,0.05c0.247,0.053,0.485,0.156,0.714,0.307c0.298,0.196,0.516,0.409,0.649,0.637
				c0.132,0.228,0.218,0.453,0.255,0.676c0.037,0.222,0.037,0.439,0.001,0.642c-0.036,0.202-0.111,0.532-0.111,0.532
				c0.037,0.028,0.963-0.445,1.394-0.496c0.432-0.051,0.857,0.07,1.275,0.363c0.388,0.272,0.662,0.568,0.824,0.889
				s0.231,0.667,0.203,1.036s-0.146,0.763-0.349,1.173c-0.204,0.412-0.472,0.842-0.807,1.288c-1.269,1.69-1.904,2.535-3.173,4.225
				c-0.334-0.26-0.498-0.39-0.833-0.647c1.236-1.667,1.85-2.499,3.086-4.165c0.177-0.238,0.335-0.487,0.466-0.742
				s0.209-0.508,0.243-0.758s0.004-0.491-0.083-0.72c-0.088-0.229-0.259-0.438-0.52-0.622c-0.191-0.135-0.412-0.212-0.652-0.231
				s-0.488,0.018-0.741,0.107c-0.255,0.09-0.508,0.236-0.762,0.439s-0.491,0.458-0.711,0.765c-1.149,1.608-1.72,2.412-2.869,4.02
				c-0.34-0.249-0.511-0.373-0.853-0.619c1.113-1.578,1.667-2.367,2.781-3.945c0.547-0.774,0.854-1.377,0.918-1.809
				c0.065-0.433-0.089-0.774-0.461-1.022c-0.297-0.197-0.598-0.301-0.9-0.313c-0.304-0.012-0.604,0.058-0.901,0.207
				c-0.298,0.149-0.593,0.366-0.882,0.65c-0.288,0.284-0.566,0.625-0.836,1.022c-0.923,1.357-1.383,2.036-2.306,3.393
				c-0.346-0.237-0.518-0.355-0.865-0.59C331.331,86.234,332.044,85.171,333.47,83.046z"/>
		</g>
	</g>
</g>
<g id="Layer_3">
	<g>
		<g>
			<path fill="#3B3B3B" d="M3.262,70.109c0.014,0.24,0.006,0.52-0.021,0.839s-0.093,0.625-0.199,0.914
				c-0.107,0.289-0.266,0.543-0.479,0.768c-0.213,0.224-0.494,0.36-0.844,0.409c-0.114,0.016-0.228,0.018-0.339,0.006
				c-0.112-0.012-0.225-0.049-0.337-0.116c0.005-0.56,0.008-0.84,0.015-1.399c0.162,0.062,0.321,0.082,0.477,0.062
				c0.181-0.023,0.324-0.096,0.428-0.217s0.179-0.277,0.226-0.465c0.046-0.188,0.072-0.404,0.077-0.648s0-0.501-0.017-0.769
				c-0.273-4.329-0.411-6.495-0.684-10.824c0.411-0.013,0.616-0.019,1.027-0.029C2.859,63.228,2.994,65.521,3.262,70.109z
				 M1.089,54.983c-0.02-0.31,0.037-0.579,0.171-0.808c0.133-0.229,0.309-0.344,0.524-0.343s0.405,0.116,0.566,0.343
				c0.162,0.228,0.249,0.493,0.267,0.8c0.019,0.333-0.037,0.607-0.167,0.822c-0.13,0.214-0.306,0.324-0.528,0.326
				c-0.222,0.002-0.41-0.102-0.565-0.315C1.202,55.595,1.111,55.32,1.089,54.983z"/>
			<path fill="#3B3B3B" d="M4.608,59.787c0.29-0.494,0.647-0.857,1.07-1.088c0.423-0.232,0.86-0.345,1.306-0.344
				c0.911,0.003,1.579,0.328,1.998,0.958c0.419,0.63,0.643,1.578,0.677,2.852C9.7,63.698,9.721,64.466,9.762,66
				c0.007,0.255,0.022,0.52,0.046,0.792c0.024,0.273,0.051,0.523,0.083,0.751c-0.376,0.018-0.564,0.026-0.94,0.046
				c-0.04-0.203-0.066-0.554-0.079-0.803C8.86,66.538,8.852,66,8.846,66c-0.01,0-0.015,0-0.025,0c-0.179,1-0.427,0.986-0.738,1.301
				c-0.312,0.314-0.693,0.55-1.145,0.581c-0.301,0.021-0.584,0.013-0.853-0.085c-0.269-0.099-0.507-0.241-0.715-0.457
				c-0.208-0.215-0.38-0.481-0.515-0.816c-0.135-0.333-0.215-0.722-0.238-1.171c-0.039-0.765,0.06-1.372,0.294-1.819
				c0.235-0.446,0.54-0.779,0.913-1.001s0.78-0.363,1.222-0.425c0.44-0.062,0.847-0.096,1.217-0.101
				C8.417,62.003,8.494,62.002,8.649,62c-0.003-0.107-0.006-0.161-0.01-0.269c-0.021-0.653-0.167-1.147-0.443-1.48
				c-0.276-0.333-0.654-0.502-1.132-0.499c-0.331,0.002-0.652,0.086-0.962,0.253c-0.311,0.167-0.579,0.425-0.806,0.771
				C5.023,60.382,4.884,60.184,4.608,59.787z M7.688,63.294c-0.641,0.018-1.146,0.173-1.509,0.463c-0.364,0.29-0.529,0.75-0.5,1.379
				c0.026,0.577,0.17,0.979,0.429,1.206c0.26,0.228,0.572,0.329,0.942,0.308c0.286-0.017,0.533-0.105,0.743-0.265
				c0.209-0.159,0.382-0.363,0.518-0.613c0.135-0.25,0.236-0.541,0.302-0.871c0.065-0.33,0.096-0.681,0.093-1.053
				c-0.007-0.231-0.01-0.345-0.017-0.576C8.289,63.28,8.088,63.283,7.688,63.294z"/>
			<path fill="#3B3B3B" d="M11.477,60.747c-0.007-0.402-0.023-0.777-0.047-1.13s-0.04-0.674-0.045-0.964
				c0.388,0.011,0.582,0.018,0.969,0.031c0.003,0.238,0.011,0.412,0.023,0.649C12.388,59.571,12.397,60,12.4,60
				c0.01,0,0.015,0,0.025,0c0.066,0,0.162-0.349,0.285-0.544c0.124-0.195,0.271-0.337,0.444-0.485
				c0.173-0.148,0.367-0.249,0.584-0.332c0.217-0.083,0.453-0.109,0.705-0.097c0.401,0.02,0.748,0.128,1.039,0.315
				c0.292,0.186,0.531,0.438,0.721,0.751c0.189,0.313,0.329,0.689,0.417,1.122c0.088,0.434,0.129,0.902,0.126,1.41
				c-0.013,2.094-0.019,3.142-0.032,5.236c-0.391,0.001-0.586,0.001-0.978,0.005c0.003-2.052,0.005-3.078,0.009-5.129
				c0.001-0.717-0.111-1.289-0.335-1.712c-0.225-0.424-0.575-0.648-1.051-0.667c-0.33-0.013-0.614,0.058-0.85,0.211
				c-0.236,0.153-0.429,0.378-0.577,0.673c-0.147,0.294-0.255,0.647-0.322,1.058c-0.067,0.41-0.098,0.866-0.091,1.364
				c0.023,1.706,0.035,2.557,0.058,4.263c-0.392,0.012-0.585,0.018-0.977,0.032C11.551,64.783,11.525,63.437,11.477,60.747z"/>
			<path fill="#3B3B3B" d="M23.852,66.07c-0.377,0.596-0.777,1.01-1.202,1.242c-0.425,0.231-0.913,0.342-1.462,0.328
				c-0.458-0.011-0.867-0.134-1.229-0.37c-0.363-0.237-0.668-0.552-0.917-0.949c-0.249-0.396-0.438-0.865-0.57-1.404
				c-0.132-0.541-0.195-1.116-0.187-1.725c0.009-0.645,0.095-1.232,0.257-1.766c0.163-0.533,0.385-0.984,0.668-1.35
				c0.283-0.365,0.617-0.639,1.003-0.819s0.804-0.248,1.254-0.206c0.424,0.04,0.811,0.175,1.158,0.399s0.643,0.531,0.883,0.916
				c0.24,0.385,0.418,0.843,0.534,1.373c0.116,0.531,0.159,1.125,0.131,1.784c-0.007,0.17-0.012,0.256-0.019,0.427
				c-1.918-0.143-2.879-0.2-4.804-0.284c0.01,0.356,0.066,0.698,0.166,1.026c0.099,0.329,0.229,0.617,0.393,0.864
				c0.163,0.247,0.356,0.444,0.579,0.592c0.223,0.147,0.468,0.226,0.736,0.235c0.427,0.015,0.789-0.075,1.09-0.27
				c0.3-0.195,0.576-0.486,0.826-0.873C23.426,65.573,23.568,65.739,23.852,66.07z M23.131,62.738
				c0.008-0.689-0.139-1.254-0.442-1.696s-0.736-0.692-1.295-0.739c-0.56-0.047-1.018,0.13-1.371,0.53s-0.569,0.955-0.651,1.661
				C20.877,62.574,21.63,62.623,23.131,62.738z"/>
			<path fill="#3B3B3B" d="M26.429,65.747c0.209,0.016,0.382,0.129,0.518,0.334c0.135,0.206,0.194,0.445,0.179,0.721
				c-0.016,0.277-0.105,0.507-0.27,0.691c-0.165,0.184-0.343,0.271-0.534,0.26s-0.358-0.119-0.502-0.324
				c-0.144-0.205-0.21-0.446-0.196-0.727c0.014-0.28,0.098-0.515,0.255-0.701C26.034,65.816,26.219,65.731,26.429,65.747z"/>
			<path fill="#3B3B3B" d="M33.931,66.992c-0.01-0.001-0.016-0.001-0.025-0.002c-0.221,0.395-0.541,0.712-0.958,0.959
				c-0.418,0.247-0.888,0.349-1.409,0.3c-0.406-0.038-0.777-0.171-1.119-0.401c-0.342-0.23-0.633-0.534-0.871-0.914
				c-0.238-0.381-0.416-0.824-0.535-1.329c-0.118-0.505-0.161-1.046-0.124-1.625c0.037-0.578,0.148-1.104,0.333-1.576
				c0.185-0.472,0.426-0.869,0.724-1.188s0.648-0.549,1.053-0.689c0.403-0.14,0.841-0.17,1.312-0.094
				c0.436,0.07,0.826,0.248,1.17,0.529c0.343,0.281,0.633,0.642,0.869,1.083c0.01,0.001,0.016,0.002,0.026,0.004
				c0.201-2.221,0.3-3.331,0.5-5.552c0.406,0.086,0.608,0.129,1.014,0.218c-0.444,4.673-0.666,7.009-1.11,11.682
				c-0.386-0.045-0.58-0.065-0.966-0.107C33.86,67.769,33.884,67.51,33.931,66.992z M34.142,64.637
				c0.035-0.385,0.018-0.747-0.05-1.09s-0.182-0.652-0.347-0.926c-0.165-0.275-0.372-0.504-0.618-0.686
				c-0.247-0.183-0.533-0.3-0.856-0.349s-0.62-0.021-0.89,0.086c-0.271,0.106-0.509,0.273-0.714,0.501
				c-0.205,0.228-0.368,0.506-0.489,0.833s-0.197,0.691-0.225,1.091c-0.028,0.4-0.004,0.776,0.068,1.126s0.192,0.663,0.357,0.934
				c0.166,0.272,0.371,0.491,0.614,0.662c0.243,0.17,0.522,0.269,0.838,0.302S32.434,67.113,32.7,67
				c0.265-0.114,0.501-0.282,0.707-0.506c0.205-0.223,0.369-0.492,0.494-0.808S34.107,65.022,34.142,64.637z"/>
			<path fill="#3B3B3B" d="M36.592,65.006c0.057-0.559,0.189-1.053,0.396-1.481c0.207-0.429,0.467-0.78,0.781-1.055
				c0.314-0.274,0.675-0.463,1.084-0.563c0.409-0.101,0.843-0.102,1.299-0.004s0.868,0.278,1.233,0.538
				c0.365,0.26,0.668,0.577,0.904,0.949c0.236,0.374,0.405,0.791,0.506,1.255c0.101,0.463,0.116,0.957,0.046,1.48
				s-0.213,0.985-0.427,1.386s-0.477,0.733-0.789,1c-0.312,0.267-0.668,0.46-1.067,0.577c-0.4,0.116-0.821,0.143-1.265,0.079
				s-0.843-0.209-1.202-0.441c-0.358-0.232-0.656-0.529-0.894-0.895c-0.238-0.365-0.413-0.788-0.523-1.267
				S36.535,65.564,36.592,65.006z M37.645,65.176c-0.04,0.373-0.029,0.724,0.032,1.055s0.171,0.629,0.327,0.891
				c0.157,0.263,0.353,0.479,0.59,0.651c0.236,0.172,0.512,0.28,0.826,0.328s0.603,0.027,0.871-0.064
				c0.268-0.091,0.507-0.232,0.718-0.43c0.21-0.196,0.382-0.438,0.516-0.725s0.225-0.606,0.271-0.963
				c0.046-0.356,0.041-0.696-0.016-1.019s-0.164-0.618-0.319-0.884c-0.156-0.266-0.353-0.491-0.592-0.676
				c-0.24-0.185-0.521-0.311-0.841-0.375s-0.616-0.056-0.887,0.027c-0.272,0.083-0.514,0.226-0.726,0.426
				c-0.211,0.201-0.381,0.452-0.512,0.751S37.685,64.804,37.645,65.176z"/>
			<path fill="#3B3B3B" d="M49.179,69.585c-0.423,0.401-0.853,0.659-1.292,0.769c-0.438,0.109-0.927,0.113-1.464,0.01
				c-0.448-0.086-0.837-0.251-1.169-0.498c-0.333-0.248-0.602-0.548-0.807-0.903c-0.206-0.354-0.346-0.757-0.422-1.206
				c-0.077-0.45-0.082-0.915-0.015-1.395c0.071-0.508,0.211-0.961,0.421-1.355c0.21-0.394,0.471-0.71,0.782-0.95
				c0.311-0.239,0.663-0.394,1.056-0.468s0.806-0.053,1.24,0.061c0.409,0.107,0.772,0.282,1.09,0.522s0.574,0.533,0.772,0.879
				c0.198,0.346,0.328,0.737,0.392,1.174c0.063,0.437,0.052,0.909-0.036,1.421c-0.022,0.132-0.034,0.2-0.057,0.333
				c-1.859-0.452-2.793-0.665-4.667-1.061c-0.024,0.283-0.001,0.562,0.064,0.838c0.065,0.276,0.165,0.526,0.301,0.749
				c0.136,0.222,0.306,0.411,0.51,0.565c0.204,0.154,0.438,0.256,0.699,0.31c0.417,0.084,0.779,0.076,1.092-0.025
				c0.312-0.102,0.609-0.283,0.89-0.543C48.808,69.123,48.932,69.276,49.179,69.585z M48.782,66.846
				c0.072-0.54-0.018-1.008-0.271-1.41s-0.652-0.675-1.192-0.811c-0.541-0.136-1.003-0.08-1.386,0.173s-0.646,0.656-0.794,1.199
				C46.601,66.32,47.329,66.489,48.782,66.846z"/>
			<path fill="#3B3B3B" d="M56.927,69.195c-0.053,0.087-0.101,0.182-0.144,0.285s-0.074,0.199-0.092,0.288
				c-0.034,0.162,0.046,0.271,0.24,0.328s0.409,0.041,0.643-0.046c0.233-0.087,0.457-0.228,0.672-0.419
				c0.214-0.192,0.407-0.424,0.581-0.698s0.297-0.578,0.371-0.909c0.103-0.465,0.103-0.916-0.003-1.357s-0.284-0.851-0.538-1.23
				s-0.567-0.715-0.939-1.005s-0.774-0.511-1.203-0.661c-0.537-0.188-1.059-0.255-1.563-0.196c-0.505,0.058-0.965,0.219-1.378,0.479
				c-0.413,0.261-0.765,0.614-1.054,1.053s-0.483,0.938-0.583,1.49c-0.104,0.578-0.099,1.145,0.014,1.696
				c0.113,0.552,0.307,1.054,0.58,1.506c0.272,0.452,0.615,0.836,1.029,1.155c0.413,0.319,0.87,0.541,1.37,0.67
				c0.605,0.156,1.207,0.17,1.811,0.055c0.604-0.115,1.118-0.338,1.543-0.675c0.304,0.09,0.456,0.137,0.759,0.229
				c-0.265,0.263-0.562,0.481-0.892,0.659c-0.33,0.179-0.677,0.313-1.045,0.404c-0.368,0.09-0.747,0.137-1.137,0.138
				c-0.39,0.002-0.782-0.045-1.176-0.143c-0.636-0.159-1.204-0.422-1.707-0.798s-0.917-0.831-1.248-1.363
				c-0.331-0.532-0.565-1.12-0.697-1.766s-0.141-1.311-0.021-1.99s0.354-1.282,0.704-1.8s0.776-0.924,1.279-1.218
				c0.502-0.293,1.06-0.467,1.671-0.519s1.238,0.04,1.875,0.268c0.571,0.204,1.088,0.491,1.553,0.857
				c0.464,0.365,0.85,0.783,1.16,1.243c0.31,0.461,0.527,0.952,0.647,1.473c0.121,0.521,0.122,1.041,0.004,1.562
				c-0.114,0.507-0.313,0.935-0.596,1.288c-0.283,0.354-0.599,0.637-0.947,0.85c-0.348,0.214-0.706,0.359-1.072,0.431
				c-0.367,0.072-0.691,0.069-0.973-0.01c-0.21-0.059-0.374-0.174-0.492-0.345c-0.119-0.171-0.16-0.396-0.119-0.679
				c-0.01-0.003-0.013-0.004-0.023-0.007c-0.231,0.167-0.482,0.299-0.749,0.396c-0.268,0.097-0.579,0.099-0.935,0.005
				c-0.26-0.068-0.484-0.18-0.676-0.336c-0.192-0.156-0.348-0.342-0.464-0.56c-0.117-0.217-0.193-0.457-0.23-0.717
				c-0.037-0.26-0.031-0.531,0.022-0.812c0.083-0.443,0.232-0.863,0.449-1.257s0.483-0.722,0.799-0.982
				c0.316-0.261,0.671-0.437,1.065-0.527c0.395-0.089,0.809-0.059,1.245,0.087c0.288,0.097,0.539,0.262,0.75,0.495
				c0.211,0.232,0.346,0.553,0.409,0.963c0.01,0.003,0.016,0.007,0.026,0.01c0.152-0.276,0.228-0.414,0.38-0.688
				c0.319,0.11,0.48,0.166,0.799,0.277C57.976,67.331,57.624,67.946,56.927,69.195z M53.658,67.9
				c-0.068,0.354-0.022,0.673,0.134,0.955c0.156,0.281,0.386,0.463,0.695,0.548c0.268,0.074,0.532,0.053,0.795-0.06
				c0.263-0.112,0.508-0.274,0.732-0.485c0.224-0.211,0.417-0.452,0.577-0.723c0.16-0.271,0.268-0.531,0.32-0.783
				c0.032-0.154,0.033-0.31,0.004-0.467c-0.029-0.157-0.077-0.302-0.145-0.438c-0.069-0.135-0.155-0.254-0.262-0.354
				c-0.106-0.1-0.224-0.171-0.355-0.214c-0.288-0.094-0.569-0.095-0.846-0.001c-0.276,0.093-0.528,0.245-0.756,0.455
				s-0.42,0.454-0.578,0.732C53.816,67.342,53.711,67.622,53.658,67.9z"/>
			<path fill="#3B3B3B" d="M65.933,75.068c-0.242,0.902-0.684,1.503-1.324,1.823c-0.64,0.319-1.447,0.348-2.424,0.082
				c-0.544-0.148-1.017-0.354-1.419-0.621c-0.402-0.267-0.758-0.638-1.067-1.12c0.335-0.223,0.502-0.334,0.839-0.551
				c0.222,0.386,0.478,0.702,0.77,0.947c0.291,0.245,0.65,0.426,1.077,0.547c0.41,0.117,0.767,0.16,1.068,0.127
				c0.301-0.033,0.554-0.121,0.761-0.263c0.208-0.143,0.375-0.325,0.501-0.548s0.225-0.467,0.294-0.731
				c0.067-0.257,0.102-0.386,0.169-0.643c-0.009-0.003-0.014-0.004-0.023-0.007c-0.306,0.247-0.657,0.388-1.053,0.426
				c-0.396,0.038-0.779,0.001-1.152-0.114c-0.436-0.135-0.82-0.324-1.153-0.57c-0.333-0.246-0.604-0.529-0.809-0.853
				c-0.206-0.323-0.341-0.676-0.406-1.058c-0.065-0.382-0.053-0.774,0.04-1.174c0.102-0.438,0.266-0.81,0.493-1.113
				c0.228-0.303,0.502-0.526,0.821-0.672c0.319-0.146,0.677-0.213,1.079-0.203c0.401,0.011,0.829,0.103,1.278,0.276
				c0.193,0.074,0.38,0.168,0.562,0.283s0.354,0.25,0.513,0.403c0.159,0.154,0.294,0.321,0.405,0.502
				c0.111,0.182,0.193,0.374,0.246,0.575c0.01,0.004,0.015,0.006,0.025,0.01c0.09-0.343,0.134-0.516,0.224-0.859
				c0.374,0.148,0.561,0.225,0.934,0.375C66.693,72.234,66.44,73.178,65.933,75.068z M61.631,71.099
				c-0.065,0.272-0.072,0.542-0.023,0.806c0.049,0.264,0.143,0.509,0.281,0.735c0.139,0.227,0.316,0.425,0.531,0.598
				c0.215,0.173,0.458,0.301,0.728,0.388c0.318,0.102,0.613,0.144,0.885,0.123c0.272-0.021,0.515-0.087,0.729-0.199
				c0.214-0.111,0.395-0.261,0.539-0.449c0.144-0.188,0.248-0.402,0.312-0.645c0.071-0.271,0.089-0.537,0.053-0.798
				c-0.037-0.261-0.122-0.507-0.254-0.739s-0.312-0.44-0.536-0.625c-0.225-0.184-0.486-0.334-0.783-0.445s-0.58-0.16-0.85-0.149
				c-0.27,0.011-0.512,0.075-0.728,0.19c-0.216,0.115-0.4,0.275-0.554,0.479C61.808,70.575,61.698,70.819,61.631,71.099z"/>
			<path fill="#3B3B3B" d="M68.6,72.194c0.061-0.219,0.11-0.429,0.148-0.628s0.078-0.376,0.123-0.535
				c0.353,0.147,0.528,0.221,0.88,0.37c-0.037,0.129-0.069,0.26-0.098,0.392c-0.029,0.132-0.063,0.266-0.102,0.401
				c0.009,0.004,0.015,0.006,0.024,0.01c0.096-0.089,0.217-0.162,0.362-0.222c0.146-0.06,0.31-0.098,0.492-0.114
				c0.182-0.016,0.379-0.006,0.591,0.03c0.211,0.036,0.431,0.105,0.66,0.206c0.299,0.132,0.539,0.274,0.72,0.426
				c0.181,0.151,0.328,0.3,0.435,0.446s0.182,0.285,0.225,0.417c0.044,0.132,0.092,0.342,0.101,0.345
				c0.059,0.024,0.585-0.279,0.897-0.305s0.68,0.059,1.101,0.257c0.39,0.184,0.703,0.381,0.94,0.589s0.411,0.427,0.523,0.657
				s0.165,0.472,0.162,0.722c-0.003,0.25-0.049,0.51-0.139,0.777c-0.34,1.014-0.51,1.52-0.851,2.534
				c-0.361-0.148-0.542-0.223-0.903-0.369c0.334-1.017,0.502-1.523,0.837-2.54c0.048-0.145,0.074-0.295,0.081-0.453
				s-0.021-0.315-0.086-0.471s-0.171-0.306-0.32-0.453c-0.149-0.146-0.357-0.281-0.622-0.402c-0.195-0.089-0.387-0.141-0.579-0.156
				c-0.191-0.015-0.37,0.006-0.535,0.062c-0.164,0.057-0.309,0.149-0.433,0.278s-0.216,0.294-0.277,0.491
				c-0.319,1.029-0.479,1.544-0.797,2.574c-0.364-0.139-0.546-0.208-0.911-0.344c0.312-1.026,0.468-1.54,0.78-2.566
				c0.153-0.503,0.178-0.894,0.077-1.176s-0.34-0.508-0.718-0.67c-0.299-0.128-0.57-0.195-0.812-0.2
				c-0.241-0.005-0.455,0.046-0.64,0.15c-0.184,0.104-0.341,0.254-0.472,0.45c-0.13,0.196-0.235,0.429-0.312,0.699
				c-0.264,0.924-0.396,1.387-0.659,2.312c-0.367-0.129-0.551-0.193-0.919-0.32C67.983,74.397,68.19,73.663,68.6,72.194z"/>
			<path fill="#3B3B3B" d="M78.661,76.122c0.352-0.077,0.734-0.068,1.149,0.026s0.817,0.245,1.207,0.448
				c0.795,0.415,1.315,0.854,1.566,1.3c0.25,0.446,0.276,0.928,0.074,1.455c-0.243,0.636-0.364,0.954-0.607,1.59
				c-0.041,0.105-0.076,0.219-0.104,0.339c-0.028,0.121-0.049,0.233-0.062,0.338c-0.341-0.157-0.512-0.235-0.854-0.39
				c0.001-0.1,0.021-0.203,0.056-0.309c0.036-0.106,0.069-0.201,0.099-0.281c-0.009-0.004-0.013-0.006-0.022-0.011
				c-0.248,0.112-0.541,0.165-0.88,0.159c-0.34-0.007-0.716-0.098-1.129-0.278c-0.275-0.12-0.522-0.257-0.746-0.412
				c-0.223-0.155-0.407-0.32-0.552-0.498s-0.246-0.365-0.301-0.562c-0.055-0.196-0.051-0.394,0.018-0.59
				c0.116-0.336,0.323-0.547,0.619-0.631c0.297-0.083,0.633-0.092,1.006-0.02s0.762,0.194,1.164,0.365
				c0.401,0.17,0.765,0.337,1.093,0.5c0.137,0.068,0.205,0.103,0.341,0.172c0.017-0.045,0.026-0.069,0.043-0.114
				c0.103-0.274,0.065-0.54-0.115-0.8c-0.18-0.26-0.48-0.5-0.9-0.714c-0.29-0.148-0.588-0.256-0.892-0.326
				c-0.305-0.07-0.592-0.083-0.859-0.04C78.907,76.554,78.826,76.41,78.661,76.122z M80.705,78.93
				c-0.572-0.276-1.047-0.435-1.426-0.475c-0.379-0.039-0.618,0.082-0.714,0.354c-0.088,0.25-0.038,0.479,0.15,0.683
				c0.189,0.205,0.451,0.381,0.787,0.532c0.26,0.116,0.498,0.187,0.716,0.212c0.218,0.026,0.409,0.017,0.577-0.025
				c0.167-0.043,0.312-0.116,0.432-0.221c0.12-0.105,0.212-0.233,0.278-0.385c0.036-0.097,0.055-0.146,0.091-0.242
				C81.24,79.189,81.062,79.103,80.705,78.93z"/>
			<path fill="#3B3B3B" d="M85.27,77.299c0.046-0.118,0.148-0.183,0.307-0.196c0.158-0.013,0.328,0.035,0.508,0.144
				s0.315,0.244,0.404,0.403c0.09,0.16,0.112,0.295,0.066,0.41c-0.05,0.124-0.151,0.189-0.304,0.198
				c-0.153,0.009-0.322-0.041-0.509-0.15c-0.188-0.109-0.326-0.238-0.414-0.389C85.238,77.567,85.219,77.427,85.27,77.299z
				 M84.92,78.813c0.353,0.196,0.528,0.294,0.879,0.493c-0.564,1.398-0.847,2.097-1.411,3.496c-0.352-0.17-0.529-0.255-0.882-0.423
				C84.071,80.952,84.354,80.239,84.92,78.813z"/>
			<path fill="#3B3B3B" d="M88.483,78.286c0.348,0.22,0.522,0.331,0.869,0.554c-0.906,2.119-1.359,3.176-2.266,5.295
				c-0.349-0.177-0.525-0.264-0.875-0.438C87.121,81.532,87.575,80.45,88.483,78.286z"/>
			<path fill="#3B3B3B" d="M89.878,84.654c0.185,0.102,0.323,0.227,0.418,0.374c0.094,0.147,0.118,0.274,0.068,0.381
				c-0.049,0.108-0.16,0.162-0.331,0.165c-0.171,0.003-0.342-0.04-0.513-0.13s-0.307-0.209-0.409-0.359s-0.129-0.28-0.079-0.392
				c0.05-0.111,0.156-0.171,0.321-0.179C89.517,84.506,89.693,84.553,89.878,84.654z"/>
			<path fill="#3B3B3B" d="M96.542,86.808c-0.122-0.228-0.275-0.437-0.458-0.624s-0.401-0.365-0.654-0.53
				c-0.281-0.183-0.543-0.318-0.786-0.404c-0.244-0.086-0.459-0.125-0.648-0.119c-0.188,0.007-0.35,0.05-0.484,0.132
				s-0.236,0.198-0.307,0.343s-0.094,0.306-0.071,0.482s0.085,0.357,0.188,0.54c0.103,0.183,0.249,0.361,0.434,0.537
				s0.409,0.339,0.67,0.492c0.56,0.328,1.046,0.474,1.46,0.445c0.188,0.275,0.284,0.412,0.472,0.683
				c-0.319-0.008-0.664-0.076-1.032-0.204c-0.368-0.128-0.737-0.297-1.109-0.509c-0.393-0.225-0.736-0.464-1.03-0.721
				c-0.294-0.257-0.526-0.517-0.692-0.781s-0.27-0.527-0.31-0.787c-0.04-0.259-0.006-0.501,0.1-0.726
				c0.104-0.22,0.264-0.386,0.479-0.493c0.216-0.107,0.472-0.155,0.77-0.142c0.297,0.013,0.626,0.087,0.984,0.223
				c0.358,0.136,0.732,0.334,1.121,0.593c0.375,0.249,0.711,0.522,1.01,0.813s0.536,0.59,0.715,0.896
				C97.036,86.888,96.873,86.861,96.542,86.808z"/>
			<path fill="#3B3B3B" d="M97.522,88.294c0.104-0.194,0.266-0.327,0.486-0.394s0.479-0.077,0.774-0.027s0.622,0.159,0.98,0.329
				s0.726,0.394,1.105,0.669s0.713,0.56,1.002,0.852c0.289,0.291,0.52,0.569,0.691,0.834c0.172,0.266,0.284,0.514,0.336,0.741
				s0.031,0.418-0.067,0.577s-0.252,0.258-0.466,0.299s-0.466,0.031-0.757-0.025c-0.291-0.056-0.616-0.161-0.975-0.314
				c-0.359-0.154-0.732-0.351-1.117-0.592s-0.727-0.492-1.023-0.755c-0.296-0.264-0.532-0.523-0.708-0.782
				c-0.176-0.258-0.289-0.509-0.341-0.752S97.419,88.488,97.522,88.294z M98.423,88.879c-0.069,0.127-0.092,0.271-0.068,0.432
				s0.092,0.33,0.205,0.508c0.114,0.18,0.267,0.36,0.46,0.543c0.192,0.183,0.425,0.359,0.695,0.532s0.525,0.309,0.767,0.407
				c0.241,0.098,0.46,0.163,0.658,0.194c0.198,0.031,0.366,0.027,0.504-0.013s0.239-0.114,0.306-0.226s0.088-0.243,0.064-0.395
				s-0.092-0.318-0.204-0.5c-0.112-0.182-0.263-0.372-0.453-0.567s-0.417-0.389-0.685-0.579s-0.522-0.338-0.762-0.444
				c-0.241-0.106-0.461-0.173-0.661-0.201c-0.2-0.028-0.371-0.015-0.511,0.038S98.492,88.753,98.423,88.879z"/>
			<path fill="#3B3B3B" d="M104.419,92.269c0.056-0.088,0.1-0.175,0.135-0.263s0.074-0.162,0.114-0.226
				c0.306,0.235,0.458,0.353,0.763,0.59c-0.033,0.051-0.063,0.103-0.088,0.158c-0.026,0.056-0.057,0.111-0.092,0.164
				c0.008,0.006,0.012,0.01,0.021,0.016c0.084-0.003,0.191,0.013,0.317,0.047c0.127,0.035,0.271,0.088,0.429,0.163
				c0.158,0.075,0.329,0.171,0.512,0.288c0.183,0.116,0.373,0.254,0.569,0.412c0.258,0.207,0.466,0.392,0.623,0.554
				c0.157,0.162,0.282,0.306,0.375,0.43s0.158,0.229,0.197,0.316c0.039,0.087,0.065,0.201,0.088,0.221
				c0.094,0.081,0.501,0.138,0.768,0.274s0.579,0.356,0.939,0.66c0.333,0.281,0.603,0.531,0.807,0.75s0.357,0.413,0.457,0.58
				s0.153,0.311,0.158,0.429c0.004,0.119-0.029,0.219-0.097,0.302c-0.258,0.317-0.387,0.476-0.645,0.792
				c-0.317-0.24-0.477-0.36-0.795-0.598c0.259-0.329,0.389-0.493,0.649-0.821c0.037-0.047,0.058-0.107,0.06-0.18
				s-0.027-0.163-0.086-0.27s-0.155-0.232-0.284-0.376c-0.13-0.145-0.307-0.312-0.535-0.499c-0.167-0.138-0.333-0.256-0.497-0.355
				c-0.164-0.099-0.316-0.174-0.457-0.224c-0.14-0.05-0.264-0.072-0.37-0.066s-0.184,0.046-0.234,0.116
				c-0.263,0.365-0.395,0.546-0.658,0.911c-0.322-0.231-0.483-0.345-0.806-0.574c0.262-0.374,0.393-0.561,0.655-0.934
				c0.129-0.183,0.149-0.369,0.06-0.558s-0.297-0.415-0.624-0.671c-0.259-0.204-0.493-0.362-0.704-0.475
				c-0.21-0.112-0.396-0.185-0.558-0.213c-0.161-0.029-0.3-0.02-0.416,0.023s-0.207,0.119-0.275,0.225
				c-0.235,0.362-0.353,0.542-0.588,0.904c-0.327-0.222-0.49-0.332-0.818-0.552C103.859,93.151,104.045,92.857,104.419,92.269z"/>
		</g>
	</g>
</g>
<g id="Layer_4">
	<g>
		<g>
			<path fill="#3B3B3B" d="M152.017,94.452c0.506,0.28,0.815,0.576,0.937,0.897c0.12,0.321,0.101,0.693-0.057,1.123
				c-0.131,0.359-0.353,0.688-0.654,0.999c-0.302,0.312-0.649,0.595-1.039,0.849c-0.389,0.254-0.812,0.478-1.269,0.668
				c-0.458,0.191-0.918,0.337-1.394,0.427c-0.503,0.095-0.951,0.117-1.357,0.057c-0.405-0.061-0.748-0.192-1.03-0.397
				c-0.282-0.205-0.5-0.477-0.643-0.813s-0.198-0.723-0.156-1.151c0.04-0.403,0.162-0.781,0.374-1.127s0.502-0.645,0.872-0.893
				c0.369-0.248,0.81-0.437,1.32-0.571c0.512-0.134,1.084-0.202,1.711-0.211c0.162-0.002,0.243-0.004,0.405-0.006
				c-0.352,1.671-0.54,2.501-0.937,4.141c0.294-0.059,0.584-0.152,0.876-0.279c0.292-0.126,0.562-0.271,0.807-0.436
				c0.245-0.164,0.457-0.345,0.637-0.542c0.179-0.196,0.304-0.4,0.373-0.617c0.109-0.345,0.106-0.629-0.013-0.858
				c-0.119-0.229-0.339-0.436-0.662-0.619C151.474,94.832,151.655,94.703,152.017,94.452z M148.785,95.273
				c-0.64,0.041-1.176,0.212-1.599,0.524s-0.663,0.734-0.73,1.252c-0.067,0.519,0.063,0.92,0.374,1.187s0.744,0.38,1.312,0.353
				C148.403,97.271,148.532,96.607,148.785,95.273z"/>
			<path fill="#3B3B3B" d="M147.882,92.91c-0.353-0.008-0.685-0.007-0.996,0.003s-0.592,0.011-0.846,0.006
				c0.05-0.365,0.075-0.547,0.128-0.913c0.211,0.009,0.422,0.014,0.634,0.015c0.213,0.001,0.431,0.005,0.653,0.015
				c0.001-0.01,0.002-0.014,0.003-0.023c-0.179-0.072-0.348-0.171-0.508-0.297c-0.16-0.126-0.298-0.275-0.413-0.447
				c-0.114-0.172-0.2-0.365-0.252-0.577c-0.053-0.212-0.057-0.438-0.02-0.678c0.05-0.314,0.144-0.572,0.285-0.771
				c0.141-0.199,0.299-0.358,0.474-0.48s0.356-0.21,0.542-0.266c0.187-0.056,0.494-0.131,0.494-0.131
				c0.006-0.036-0.759-0.56-0.972-0.875s-0.276-0.7-0.193-1.145c0.077-0.412,0.219-0.745,0.42-0.996s0.457-0.434,0.767-0.548
				s0.667-0.166,1.073-0.154c0.407,0.012,0.851,0.072,1.335,0.175c1.835,0.392,2.755,0.588,4.59,0.98
				c-0.032,0.326-0.05,0.489-0.088,0.813c-1.834-0.351-2.751-0.527-4.585-0.878c-0.262-0.05-0.521-0.08-0.779-0.089
				s-0.494,0.02-0.71,0.086s-0.401,0.177-0.555,0.332c-0.153,0.155-0.255,0.372-0.305,0.645c-0.036,0.201-0.014,0.4,0.066,0.593
				c0.08,0.193,0.209,0.368,0.387,0.527c0.178,0.159,0.403,0.293,0.675,0.405s0.582,0.188,0.928,0.232
				c1.812,0.232,2.718,0.351,4.53,0.583c-0.055,0.322-0.082,0.481-0.143,0.802c-1.783-0.192-2.674-0.288-4.457-0.48
				c-0.875-0.094-1.51-0.079-1.902,0.051c-0.393,0.13-0.622,0.391-0.685,0.778c-0.05,0.306-0.02,0.576,0.09,0.805
				c0.109,0.229,0.288,0.421,0.532,0.574c0.245,0.152,0.545,0.269,0.901,0.352c0.355,0.083,0.756,0.133,1.2,0.152
				c1.521,0.067,2.279,0.099,3.8,0.167c-0.078,0.316-0.118,0.476-0.201,0.791C151.421,92.988,150.243,92.962,147.882,92.91z"/>
			<path fill="#3B3B3B" d="M148.823,82.686c-0.329-0.387-0.538-0.809-0.627-1.261c-0.089-0.453-0.08-0.891,0.018-1.306
				c0.2-0.847,0.586-1.375,1.124-1.573c0.537-0.198,1.243-0.112,2.148,0.244c1.091,0.429,1.636,0.645,2.727,1.074
				c0.181,0.071,0.37,0.138,0.564,0.2c0.195,0.062,0.372,0.115,0.534,0.158c0.005,0.316,0.007,0.476,0.007,0.792
				c-0.149-0.026-0.23-0.071-0.412-0.133c-0.183-0.063-0.396-0.121-0.396-0.171c0,0.009,0,0.012,0,0.021
				c0,0.288,0.515,0.605,0.731,0.951c0.215,0.346,0.28,0.705,0.27,1.082c-0.007,0.251-0.083,0.472-0.185,0.667
				c-0.103,0.194-0.261,0.35-0.454,0.467s-0.435,0.191-0.716,0.223c-0.28,0.031-0.603,0.006-0.959-0.083
				c-0.608-0.151-1.075-0.382-1.386-0.696c-0.311-0.315-0.522-0.667-0.633-1.053s-0.152-0.785-0.128-1.193
				c0.023-0.408,0.064-0.779,0.117-1.11c0.022-0.138,0.033-0.207,0.055-0.345c-0.079-0.028-0.118-0.042-0.196-0.071
				c-0.478-0.173-0.862-0.185-1.158-0.031c-0.296,0.155-0.494,0.455-0.585,0.893c-0.063,0.303-0.063,0.618,0.004,0.944
				c0.068,0.328,0.214,0.641,0.44,0.934C149.368,82.456,149.188,82.532,148.823,82.686z M152.036,80.857
				c-0.074,0.565-0.03,1.046,0.139,1.438c0.17,0.392,0.503,0.653,0.995,0.788c0.451,0.124,0.783,0.106,0.987-0.052
				c0.205-0.158,0.313-0.393,0.332-0.707c0.014-0.243-0.032-0.473-0.134-0.693c-0.102-0.22-0.238-0.422-0.412-0.608
				c-0.173-0.186-0.378-0.354-0.613-0.506c-0.235-0.152-0.487-0.282-0.758-0.387c-0.169-0.061-0.253-0.092-0.422-0.153
				C152.106,80.328,152.082,80.504,152.036,80.857z"/>
			<path fill="#3B3B3B" d="M147.059,75.154c-0.193-0.088-0.336-0.235-0.424-0.441c-0.088-0.205-0.09-0.41-0.008-0.614
				c0.082-0.203,0.221-0.341,0.411-0.411c0.19-0.07,0.374-0.057,0.554,0.037c0.195,0.102,0.33,0.253,0.409,0.449
				s0.084,0.396,0.015,0.602c-0.07,0.206-0.193,0.345-0.372,0.416S147.269,75.25,147.059,75.154z M149.425,75.991
				c0.099-0.375,0.148-0.561,0.249-0.934c2.219,1.133,3.328,1.701,5.547,2.833c0.021,0.33,0.029,0.494,0.044,0.824
				C152.929,77.625,151.761,77.08,149.425,75.991z"/>
			<path fill="#3B3B3B" d="M147.205,71.253c0.189-0.395,0.285-0.59,0.481-0.982c2.927,2.034,4.39,3.052,7.317,5.086
				c0.037,0.329,0.053,0.493,0.084,0.823C151.934,74.21,150.357,73.223,147.205,71.253z"/>
		</g>
	</g>
	<g>
		<g>
			<path fill="#3B3B3B" d="M115.297,46.165c-0.786-0.05-1.343-0.236-1.685-0.569c-0.342-0.334-0.542-0.816-0.613-1.455
				c-0.059-0.532,0.011-1.084,0.188-1.661c0.178-0.576,0.429-1.144,0.748-1.699c0.319-0.556,0.696-1.093,1.136-1.611
				c0.44-0.517,0.913-0.978,1.436-1.378c0.554-0.424,1.086-0.722,1.616-0.89c0.529-0.168,1.028-0.208,1.497-0.118
				c0.468,0.09,0.895,0.303,1.274,0.643s0.683,0.793,0.892,1.36c0.197,0.534,0.276,1.086,0.229,1.651
				c-0.047,0.564-0.218,1.117-0.516,1.654c-0.298,0.536-0.721,1.042-1.261,1.52c-0.541,0.478-1.192,0.908-1.95,1.297
				c-0.196,0.101-0.294,0.152-0.49,0.252c-0.588-2.326-0.866-3.491-1.38-5.804c-0.322,0.251-0.617,0.547-0.896,0.883
				c-0.278,0.337-0.517,0.682-0.714,1.037c-0.198,0.354-0.349,0.711-0.447,1.067c-0.099,0.356-0.127,0.689-0.08,1.005
				c0.077,0.503,0.254,0.861,0.539,1.08c0.285,0.218,0.676,0.345,1.181,0.384C115.726,45.358,115.584,45.628,115.297,46.165z
				 M118.729,43.179c0.754-0.438,1.304-0.977,1.628-1.626c0.325-0.649,0.36-1.329,0.127-2.025s-0.637-1.124-1.176-1.274
				c-0.54-0.15-1.137-0.034-1.812,0.344C117.979,40.422,118.225,41.339,118.729,43.179z"/>
			<path fill="#3B3B3B" d="M121.266,45.624c0.434-0.203,0.838-0.403,1.21-0.603c0.373-0.199,0.714-0.373,1.026-0.519
				c0.162,0.493,0.242,0.74,0.401,1.234c-0.262,0.116-0.524,0.237-0.783,0.365c-0.259,0.126-0.526,0.25-0.802,0.372
				c0.004,0.013,0.005,0.02,0.009,0.033c0.261-0.017,0.529,0.006,0.8,0.069c0.271,0.063,0.529,0.169,0.773,0.318
				c0.244,0.148,0.462,0.34,0.655,0.578c0.193,0.237,0.34,0.518,0.44,0.844c0.131,0.428,0.171,0.814,0.121,1.15
				c-0.05,0.337-0.145,0.634-0.284,0.893c-0.138,0.26-0.306,0.48-0.499,0.664c-0.193,0.183-0.521,0.461-0.521,0.461
				c0.015,0.052,1.262,0.253,1.712,0.524c0.45,0.271,0.763,0.717,0.932,1.331c0.157,0.568,0.188,1.075,0.095,1.514
				c-0.093,0.438-0.292,0.825-0.599,1.156c-0.307,0.33-0.713,0.609-1.215,0.839c-0.502,0.23-1.079,0.424-1.732,0.585
				c-2.471,0.611-3.708,0.917-6.179,1.527c-0.159-0.431-0.236-0.647-0.388-1.081c2.445-0.661,3.669-0.993,6.114-1.654
				c0.35-0.094,0.683-0.213,1.003-0.358c0.319-0.145,0.591-0.323,0.812-0.537s0.379-0.465,0.471-0.754
				c0.092-0.288,0.085-0.623-0.021-0.998c-0.078-0.277-0.226-0.515-0.44-0.71c-0.215-0.196-0.479-0.342-0.792-0.435
				c-0.314-0.094-0.67-0.128-1.068-0.105c-0.399,0.022-0.823,0.111-1.271,0.264c-2.346,0.798-3.52,1.197-5.865,1.995
				c-0.129-0.44-0.192-0.661-0.313-1.103c2.286-0.832,3.428-1.248,5.714-2.079c1.121-0.408,1.884-0.81,2.283-1.21
				c0.398-0.401,0.52-0.868,0.361-1.395c-0.125-0.417-0.329-0.741-0.601-0.966c-0.273-0.225-0.605-0.358-0.996-0.404
				c-0.39-0.046-0.826-0.013-1.309,0.097c-0.482,0.11-0.999,0.288-1.551,0.531c-1.891,0.832-2.837,1.247-4.728,2.079
				c-0.098-0.447-0.145-0.671-0.234-1.12C116.91,47.66,118.362,46.98,121.266,45.624z"/>
			<path fill="#3B3B3B" d="M126.341,59.128c0.635,0.292,1.145,0.698,1.528,1.217c0.383,0.519,0.639,1.076,0.772,1.661
				c0.272,1.191,0.121,2.093-0.411,2.668c-0.532,0.574-1.445,0.889-2.762,0.983c-1.588,0.114-2.383,0.172-3.971,0.286
				c-0.264,0.019-0.533,0.047-0.807,0.085c-0.274,0.038-0.523,0.081-0.747,0.124c-0.199-0.397-0.297-0.597-0.489-0.997
				c0.198-0.057,0.428-0.102,0.688-0.133c0.261-0.031,0.492-0.055,0.693-0.075c-0.005-0.011-0.006-0.016-0.011-0.027
				c-0.577-0.165-1.104-0.401-1.577-0.709c-0.473-0.308-0.822-0.695-1.039-1.179c-0.144-0.322-0.214-0.637-0.208-0.944
				c0.006-0.307,0.09-0.591,0.253-0.856s0.407-0.503,0.729-0.711c0.322-0.209,0.73-0.368,1.218-0.47
				c0.832-0.175,1.534-0.165,2.104,0.046c0.571,0.211,1.042,0.528,1.411,0.95c0.369,0.422,0.66,0.904,0.879,1.435
				c0.22,0.53,0.397,1.021,0.534,1.472c0.057,0.188,0.086,0.283,0.144,0.471c0.113-0.012,0.169-0.018,0.282-0.029
				c0.688-0.07,1.16-0.285,1.427-0.659c0.266-0.374,0.325-0.872,0.17-1.481c-0.107-0.421-0.301-0.821-0.583-1.195
				c-0.282-0.373-0.649-0.679-1.103-0.913C125.814,59.747,125.989,59.544,126.341,59.128z M123.542,63.375
				c-0.254-0.76-0.6-1.343-1.043-1.735c-0.444-0.393-1.01-0.52-1.69-0.394c-0.624,0.115-1.014,0.338-1.166,0.661
				c-0.152,0.322-0.143,0.685,0.026,1.094c0.13,0.315,0.326,0.579,0.583,0.795s0.548,0.391,0.872,0.521s0.675,0.222,1.054,0.272
				s0.762,0.062,1.157,0.033c0.243-0.024,0.364-0.037,0.606-0.062C123.779,64.087,123.7,63.849,123.542,63.375z"/>
			<path fill="#3B3B3B" d="M133.065,67.593c0.29-0.005,0.553,0.093,0.785,0.3c0.231,0.206,0.359,0.466,0.383,0.773
				c0.024,0.306-0.062,0.563-0.251,0.767c-0.189,0.203-0.418,0.296-0.693,0.286c-0.299-0.011-0.555-0.119-0.771-0.32
				s-0.345-0.45-0.385-0.752c-0.04-0.303,0.023-0.552,0.198-0.749S132.751,67.599,133.065,67.593z M129.679,67.958
				c0.108,0.533,0.162,0.799,0.266,1.332c-3.389-0.096-5.083-0.144-8.471-0.24c-0.225-0.404-0.336-0.608-0.555-1.016
				C124.423,68.003,126.175,67.988,129.679,67.958z"/>
			<path fill="#3B3B3B" d="M135.26,72.613c0.01,0.613,0.012,0.919,0.012,1.533c-4.798-0.809-7.198-1.216-11.994-2.025
				c-0.244-0.394-0.364-0.592-0.603-0.99C127.709,71.724,130.227,72.021,135.26,72.613z"/>
		</g>
	</g>
	<g>
		<g>
			<path fill="#3B3B3B" d="M162.057,43.51c0.913,0.561,1.464,1.115,1.658,1.681c0.193,0.567,0.121,1.194-0.212,1.901
				c-0.278,0.59-0.723,1.117-1.313,1.599s-1.265,0.904-2.012,1.274c-0.747,0.37-1.554,0.682-2.422,0.934
				c-0.868,0.251-1.741,0.422-2.633,0.499c-0.945,0.081-1.781,0.044-2.529-0.124c-0.748-0.169-1.375-0.449-1.88-0.845
				c-0.506-0.395-0.879-0.894-1.115-1.491c-0.235-0.596-0.304-1.263-0.186-1.986c0.112-0.681,0.377-1.303,0.803-1.858
				c0.426-0.554,0.995-1.015,1.704-1.378c0.709-0.362,1.549-0.615,2.512-0.76c0.963-0.145,2.033-0.167,3.2-0.08
				c0.302,0.022,0.453,0.034,0.754,0.056c-0.813,2.789-1.239,4.172-2.132,6.901c0.552-0.051,1.103-0.164,1.658-0.333
				c0.556-0.168,1.068-0.372,1.538-0.612s0.882-0.51,1.234-0.815c0.353-0.306,0.605-0.635,0.754-0.993
				c0.236-0.57,0.258-1.054,0.058-1.464c-0.2-0.41-0.59-0.795-1.173-1.161C161.012,44.068,161.359,43.879,162.057,43.51z
				 M155.97,44.38c-1.195-0.034-2.209,0.169-3.025,0.632c-0.816,0.462-1.304,1.143-1.478,2.015
				c-0.174,0.874,0.031,1.576,0.583,2.082c0.552,0.505,1.348,0.77,2.409,0.815C155.07,47.722,155.373,46.612,155.97,44.38z"/>
			<path fill="#3B3B3B" d="M154.513,40.207c-0.655-0.071-1.272-0.123-1.852-0.157c-0.579-0.034-1.104-0.078-1.575-0.128
				c0.127-0.614,0.192-0.922,0.324-1.536c0.392,0.049,0.785,0.092,1.179,0.128c0.395,0.037,0.798,0.081,1.21,0.133
				c0.004-0.016,0.006-0.025,0.01-0.041c-0.325-0.152-0.631-0.347-0.917-0.588c-0.286-0.241-0.527-0.516-0.725-0.828
				c-0.196-0.312-0.335-0.653-0.413-1.023s-0.069-0.758,0.024-1.161c0.122-0.527,0.323-0.952,0.604-1.268s0.591-0.564,0.927-0.743
				s0.682-0.298,1.034-0.363c0.354-0.064,0.931-0.142,0.931-0.142c0.014-0.056-1.356-1.076-1.722-1.648
				c-0.366-0.571-0.45-1.237-0.253-1.981c0.182-0.69,0.475-1.235,0.874-1.63c0.399-0.396,0.893-0.666,1.479-0.809
				c0.586-0.143,1.258-0.171,2.014-0.085c0.756,0.087,1.576,0.259,2.468,0.515c3.377,0.966,5.064,1.449,8.441,2.415
				c-0.091,0.55-0.136,0.824-0.236,1.371c-3.379-0.897-5.07-1.345-8.448-2.242c-0.482-0.128-0.963-0.222-1.442-0.279
				c-0.479-0.057-0.922-0.046-1.33,0.032c-0.408,0.079-0.762,0.237-1.062,0.476c-0.299,0.239-0.51,0.589-0.627,1.047
				c-0.086,0.338-0.062,0.681,0.068,1.021c0.131,0.342,0.353,0.663,0.669,0.963c0.316,0.299,0.723,0.566,1.219,0.801
				c0.496,0.234,1.065,0.416,1.705,0.548c3.348,0.691,5.022,1.037,8.37,1.729c-0.132,0.54-0.199,0.809-0.342,1.346
				c-3.297-0.618-4.947-0.928-8.245-1.546c-1.618-0.303-2.798-0.379-3.541-0.223s-1.194,0.563-1.348,1.212
				c-0.122,0.513-0.089,0.978,0.093,1.387c0.183,0.41,0.494,0.766,0.935,1.065s0.987,0.547,1.64,0.746
				c0.653,0.199,1.394,0.35,2.219,0.456c2.822,0.362,4.232,0.543,7.053,0.906c-0.174,0.526-0.265,0.788-0.45,1.311
				C161.09,40.917,158.899,40.68,154.513,40.207z"/>
			<path fill="#3B3B3B" d="M157.227,22.938c-0.574-0.712-0.923-1.466-1.046-2.25c-0.124-0.786-0.066-1.529,0.155-2.221
				c0.451-1.41,1.222-2.248,2.239-2.498c1.018-0.25,2.323,0.015,3.971,0.769c1.988,0.91,2.983,1.363,4.971,2.272
				c0.33,0.151,0.674,0.295,1.029,0.433c0.356,0.138,0.682,0.257,0.979,0.357c-0.021,0.541-0.032,0.811-0.062,1.35
				c-0.275-0.07-0.581-0.174-0.915-0.31s-0.632-0.26-0.888-0.37c-0.002,0.015,0.001,0.021-0.001,0.036
				c0.587,0.544,1.068,1.129,1.437,1.754c0.368,0.624,0.536,1.254,0.48,1.895c-0.037,0.427-0.159,0.794-0.367,1.109
				c-0.208,0.314-0.496,0.556-0.865,0.725c-0.369,0.168-0.815,0.259-1.341,0.267s-1.121-0.091-1.776-0.301
				c-1.116-0.357-1.957-0.823-2.506-1.41s-0.906-1.221-1.076-1.897c-0.168-0.677-0.208-1.362-0.125-2.054s0.192-1.317,0.321-1.87
				c0.054-0.232,0.081-0.348,0.135-0.58c-0.144-0.062-0.216-0.094-0.36-0.155c-0.874-0.372-1.584-0.453-2.148-0.238
				c-0.564,0.215-0.965,0.692-1.176,1.424c-0.146,0.507-0.176,1.046-0.081,1.614c0.096,0.568,0.34,1.122,0.734,1.658
				C158.265,22.636,157.922,22.736,157.227,22.938z M163.376,20.349c-0.191,0.952-0.158,1.78,0.121,2.475s0.876,1.191,1.778,1.502
				c0.827,0.285,1.444,0.305,1.838,0.068c0.396-0.236,0.622-0.616,0.686-1.148c0.049-0.411-0.014-0.811-0.183-1.201
				c-0.169-0.392-0.407-0.759-0.711-1.104s-0.67-0.667-1.093-0.965c-0.422-0.297-0.879-0.557-1.373-0.783
				c-0.308-0.131-0.462-0.198-0.771-0.329C163.554,19.458,163.496,19.755,163.376,20.349z"/>
			<path fill="#3B3B3B" d="M154.658,9.819c-0.352-0.182-0.604-0.456-0.749-0.82c-0.144-0.365-0.128-0.712,0.044-1.046
				c0.171-0.332,0.444-0.544,0.803-0.632c0.36-0.088,0.698-0.038,1.023,0.151c0.353,0.205,0.59,0.482,0.719,0.83
				c0.129,0.348,0.122,0.69-0.028,1.03s-0.391,0.553-0.729,0.645C155.403,10.068,155.04,10.017,154.658,9.819z M158.978,11.633
				c0.219-0.622,0.329-0.933,0.551-1.552c4.02,2.292,6.03,3.439,10.049,5.73c0.007,0.565,0.008,0.847,0.005,1.411
				C165.341,14.988,163.22,13.869,158.978,11.633z"/>
			<path fill="#3B3B3B" d="M155.296,3.199c0.389-0.641,0.586-0.959,0.987-1.594c5.251,3.94,7.879,5.916,13.128,9.856
				c0.037,0.566,0.052,0.85,0.079,1.416C163.814,9.008,160.974,7.068,155.296,3.199z"/>
		</g>
	</g>
</g>
<g id="Layer_1">
	<polygon fill="#C5C5C5" points="115.649,317 115.756,265 19.951,107 272.639,107 189.51,265 189.51,317 	"/>
</g>
<g id="Layer_5">
	<text transform="matrix(1 0 0 1 96.5098 156.0005)" fill="#3B3B3B" font-family="'Avenir-Heavy'" font-size="36">Legion</text>
	<text transform="matrix(1 0 0 1 118.5098 192.0103)" fill="#3B3B3B" font-family="'Avenir-Roman'" font-size="18">Analytics</text>
</g>
</svg>
