<?xml version="1.0" encoding="utf-8"?>
<!-- Generator: Adobe Illustrator 16.0.0, SVG Export Plug-In . SVG Version: 6.00 Build 0)  -->
<!DOCTYPE svg PUBLIC "-//W3C//DTD SVG 1.1//EN" "http://www.w3.org/Graphics/SVG/1.1/DTD/svg11.dtd">
<svg version="1.1" xmlns="http://www.w3.org/2000/svg" xmlns:xlink="http://www.w3.org/1999/xlink" x="0px" y="0px"
	 width="342.51px" height="317px" viewBox="0 0 342.51 317" enable-background="new 0 0 342.51 317" xml:space="preserve">
<g id="Layer_3">
	<rect x="-0.49" y="0" fill="#F8F8F8" width="343" height="317"/>
</g>
<g id="Layer_2">
	<line fill="none" x1="60.51" y1="43" x2="60.51" y2="260"/>
	<line x1="49.51" y1="39" x2="49.51" y2="256"/>
	<line x1="49.51" y1="256" x2="297.51" y2="256"/>
	<text transform="matrix(1 0 0 1 27.8442 79.6836)"><tspan x="0" y="0" fill="#3B3B3B" font-family="'Avenir-Roman'" font-size="10">250</tspan><tspan x="0" y="36" fill="#3B3B3B" font-family="'Avenir-Roman'" font-size="10">200</tspan><tspan x="0" y="72" fill="#3B3B3B" font-family="'Avenir-Roman'" font-size="10">150</tspan><tspan x="0" y="108" fill="#3B3B3B" font-family="'Avenir-Roman'" font-size="10">100</tspan><tspan x="0" y="144" fill="#3B3B3B" font-family="'Avenir-Roman'" font-size="10">50</tspan></text>
	<text transform="matrix(1 0 0 1 19.5039 35.333)" font-family="'Avenir-Roman'" font-size="18">&gt;Age Range</text>
	<rect x="63.51" y="148" fill="#CD5452" width="34" height="108"/>
	<rect x="111.51" y="136" fill="#CD5452" width="34" height="120"/>
	<rect x="158.51" y="75" fill="#CD5452" width="34" height="181"/>
	<rect x="206.51" y="114" fill="#CD5452" width="34" height="142"/>
	<rect x="255.51" y="232" fill="#CD5452" width="34" height="24"/>
	
		<text transform="matrix(0.8362 -0.5484 0.5484 0.8362 70.5146 281.6353)" fill="#3B3B3B" font-family="'Avenir-Roman'" font-size="10">18-25</text>
	
		<text transform="matrix(0.8362 -0.5484 0.5484 0.8362 114.8433 281.6353)" fill="#3B3B3B" font-family="'Avenir-Roman'" font-size="10">26-35</text>
	
		<text transform="matrix(0.8362 -0.5484 0.5484 0.8362 166.251 282.6353)" fill="#3B3B3B" font-family="'Avenir-Roman'" font-size="10">36-45</text>
	
		<text transform="matrix(0.8362 -0.5484 0.5484 0.8362 210.251 282.6353)" fill="#3B3B3B" font-family="'Avenir-Roman'" font-size="10">46-60</text>
	
		<text transform="matrix(0.8362 -0.5484 0.5484 0.8362 267.5869 279.6323)" fill="#3B3B3B" font-family="'Avenir-Roman'" font-size="10">60+</text>
</g>
<g id="Layer_4">
</g>
<g id="Layer_1">
</g>
<g id="Layer_5">
</g>
</svg>
