<?xml version="1.0" encoding="utf-8"?>
<!-- Generator: Adobe Illustrator 16.0.0, SVG Export Plug-In . SVG Version: 6.00 Build 0)  -->
<!DOCTYPE svg PUBLIC "-//W3C//DTD SVG 1.1//EN" "http://www.w3.org/Graphics/SVG/1.1/DTD/svg11.dtd">
<svg version="1.1" xmlns="http://www.w3.org/2000/svg" xmlns:xlink="http://www.w3.org/1999/xlink" x="0px" y="0px" width="356px"
	 height="352px" viewBox="-1.5 0.5 356 352" enable-background="new -1.5 0.5 356 352" xml:space="preserve">
<g id="Layer_1">
	<g id="Layer_1_1_">
		<g>
			<path fill="none" d="M353.499,349.99c-115.377,0-230.756,0-346.134,0c0-115.377,0-230.756,0-346.134
				c115.378,0,230.755,0,346.134,0C353.499,119.234,353.499,234.613,353.499,349.99z M287.136,258.035
				c0.021-0.08,0.049-0.162,0.072-0.242c0.26-0.014,0.521-0.035,0.781-0.037c4.047-0.025,8.07-0.393,12.08-0.889
				c3.705-0.457,7.357-1.217,10.99-2.082c4.834-1.15,9.561-2.615,14.102-4.662c5.043-2.273,9.645-5.232,13.826-8.836
				c3.219-2.773,5.852-6.061,8.205-9.578c1.895-2.834,3.293-5.889,4.104-9.215c0.492-2.02,0.744-4.035,0.73-6.119
				c-0.012-1.775-0.225-3.492-0.666-5.201c-0.695-2.699-1.656-5.248-3.369-7.514c-1.658-2.195-3.713-3.84-6.137-5.061
				c-0.621-0.312-1.301-0.529-1.973-0.725c-0.844-0.242-1.713-0.396-2.561-0.621c-2.375-0.637-4.795-0.654-7.195-0.336
				c-3.047,0.408-6.059,1.078-8.938,2.172c-4.185,1.592-8.355,3.225-12.479,4.967c-5.215,2.207-10.596,3.711-16.23,4.285
				c-0.324,0.033-0.654,0.006-1.08,0.006c0.312-0.521,0.77-0.719,1.146-0.986c4.729-3.369,9.234-7.006,13.467-10.986
				c4.51-4.242,8.34-9.029,11.564-14.301c1.291-2.109,2.256-4.37,2.884-6.763c0.337-1.272,0.604-2.563,0.901-3.846
				c0.584-2.527,0.576-5.049-0.059-7.566c-0.143-0.553-0.291-1.104-0.406-1.663c-0.738-3.635-2.797-6.503-5.357-9.042
				c-0.863-0.858-1.928-1.522-2.926-2.237c-1.371-0.982-2.891-1.666-4.516-2.099c-1.356-0.362-2.725-0.694-4.096-0.998
				c-1.902-0.421-3.846-0.496-5.77-0.257c-2.791,0.347-5.529,0.99-8.186,1.93c-4.39,1.554-8.058,4.248-11.428,7.378
				c-1.447,1.344-2.799,2.794-4.236,4.149c-4.006,3.771-8.228,7.271-12.949,10.128c-3.885,2.349-7.945,4.311-12.27,5.709
				c-1.309,0.422-2.648,0.619-4.014,0.688c-0.256,0.013-0.514-0.035-0.734-0.052c-0.311-0.431-0.289-0.876-0.305-1.312
				c-0.068-2.439,0.21-4.824,1.145-7.101c0.531-1.3,1.051-2.606,1.621-3.89c3.562-8.025,7.133-16.048,10.713-24.066
				c2.098-4.696,4.008-9.465,5.381-14.424c1.055-3.805,1.979-7.648,2.896-11.49c1.688-7.082,2.353-14.284,2.394-21.552
				c0.004-0.92-0.082-1.841-0.098-2.762c-0.064-3.87-0.361-7.722-1.068-11.529c-0.496-2.675-1.062-5.338-1.676-7.989
				c-1.52-6.572-3.756-12.887-6.809-18.913c-2.527-4.998-5.609-9.634-9.036-14.051c-2.563-3.304-5.38-6.379-8.45-9.217
				c-2.395-2.209-4.986-4.167-7.641-6.051c-6.129-4.355-12.762-7.708-19.881-10.119c-3.332-1.128-6.737-1.966-10.155-2.767
				c-6.136-1.438-12.341-2.304-18.655-2.207c-1.627,0.025-3.254-0.038-4.877,0.015c-2.019,0.065-4.042,0.133-6.049,0.333
				c-3.892,0.387-7.727,1.129-11.536,2.019c-7.767,1.814-15.248,4.433-22.435,7.888c-5.363,2.578-10.361,5.747-15.096,9.346
				c-3.086,2.346-5.985,4.901-8.616,7.742c-5.591,6.038-10.137,12.792-13.665,20.23c-2.702,5.698-4.657,11.647-6.057,17.792
				c-0.732,3.213-1.368,6.441-1.767,9.713c-0.324,2.661-0.465,5.337-0.518,8.014c-0.037,1.886,0.064,3.774,0.088,5.662
				c0.043,3.433,0.384,6.841,0.944,10.223c1.178,7.114,2.833,14.119,5.145,20.953c4.301,12.718,10.193,24.652,17.753,35.758
				c1.135,1.667,2.162,3.412,3.176,5.158c0.927,1.597,1.651,3.298,2.261,5.042c0.461,1.317,0.5,2.835,0.126,4.023
				c-0.692,0.235-1.434,0.318-2.176,0.288c-2.24-0.092-4.467-0.298-6.633-0.935c-2.873-0.845-5.621-1.999-8.31-3.303
				c-7.688-3.728-14.627-8.544-20.835-14.408c-2.401-2.268-4.953-4.34-7.68-6.202c-1.854-1.265-3.792-2.373-5.827-3.326
				c-2.643-1.237-5.434-1.975-8.264-2.615c-1.72-0.39-3.45-0.642-5.213-0.676c-3.25-0.063-6.354,0.706-9.42,1.672
				c-1.574,0.496-2.87,1.49-4.202,2.425c-2.372,1.665-3.934,3.977-5.284,6.465c-0.187,0.345-0.343,0.719-0.437,1.099
				c-0.421,1.703-0.84,3.407-1.205,5.123c-0.135,0.638-0.148,1.308-0.167,1.964c-0.055,1.946,0.312,3.837,0.705,5.735
				c0.881,4.268,2.51,8.221,4.851,11.883c1.728,2.707,3.614,5.299,5.743,7.707c3.974,4.494,8.446,8.438,13.277,11.986
				c2.798,2.053,5.643,4.037,8.61,5.842c0.264,0.162,0.628,0.258,0.702,0.664c-0.144,0.016-0.232,0.041-0.316,0.031
				c-3.061-0.303-6.099-0.76-9.11-1.385c-2.372-0.492-4.629-1.354-6.905-2.152c-3.436-1.209-6.861-2.447-10.32-3.59
				c-4.382-1.443-8.857-2.553-13.421-3.238c-1.687-0.254-3.394-0.352-5.119-0.236c-2.036,0.135-3.979,0.65-5.942,1.117
				c-1.212,0.289-2.307,0.82-3.353,1.484c-1.99,1.27-3.667,2.838-4.971,4.822c-0.855,1.303-1.528,2.662-1.894,4.174
				c-0.238,0.979-0.506,1.957-0.681,2.951c-0.19,1.078-0.376,2.17-0.409,3.262c-0.128,4.203,0.911,8.174,2.548,12.01
				c0.018,0.041,0.037,0.08,0.057,0.119c2.572,4.943,6.047,9.135,10.47,12.537c5.859,4.512,12.333,7.92,19.2,10.58
				c6.871,2.664,14.021,4.223,21.331,5.092c4.629,0.551,9.271,0.834,13.932,0.775c0.189-0.002,0.378,0.016,0.566,0.021
				c-0.699,0.453-1.423,0.73-2.152,0.996c-2.929,1.062-5.878,2.07-8.784,3.191c-4.774,1.842-9.25,4.234-13.34,7.344
				c-2.596,1.975-4.646,4.404-6.324,7.17c-0.664,1.094-1.146,2.271-1.43,3.525c-0.194,0.854-0.412,1.707-0.612,2.562
				c-0.363,1.557-0.471,3.131-0.181,4.707c0.222,1.207,0.528,2.396,0.773,3.602c0.709,3.484,2.563,6.359,5.015,8.807
				c2.221,2.221,4.86,3.916,7.88,4.898c3.726,1.209,7.527,2.107,11.447,2.379c4.965,0.344,9.927,0.268,14.848-0.523
				c5.164-0.83,10.238-2.053,15.173-3.812c4.309-1.539,8.439-3.475,12.481-5.605c0.219-0.113,0.452-0.201,0.678-0.305
				c-0.109,0.383-0.306,0.646-0.544,0.865c-2,1.85-3.972,3.729-6.02,5.521c-2.904,2.543-5.281,5.514-7.328,8.764
				c-1.155,1.834-2.029,3.789-2.475,5.924c-0.17,0.814-0.388,1.621-0.574,2.436c-0.457,1.99-0.61,3.998-0.193,6.01
				c0.312,1.504,0.672,2.998,1.072,4.479c0.182,0.674,0.466,1.328,0.785,1.95c0.988,1.927,2.225,3.695,3.734,5.238
				c2.203,2.252,4.788,3.979,7.687,5.228c2.069,0.892,4.263,1.349,6.439,1.866c3.683,0.882,7.391,0.869,11.124,0.375
				c2.007-0.266,3.967-0.739,5.935-1.188c4.669-1.061,9.015-2.891,13.052-5.465c6.283-4.008,11.707-8.957,16.301-14.821
				c4.839-6.179,8.931-12.826,12.445-19.834c1.949-3.888,3.721-7.854,5.32-11.898c0.123-0.305,0.186-0.663,0.56-0.967
				c0.165,0.347,0.302,0.604,0.412,0.873c0.631,1.545,1.239,3.099,1.888,4.637c3.717,8.863,8.271,17.257,14.084,24.941
				c2.067,2.735,4.235,5.385,6.641,7.836c3.496,3.562,7.439,6.563,11.666,9.196c2.994,1.863,6.168,3.375,9.554,4.375
				c4.131,1.222,8.328,2.113,12.659,2.326c2.789,0.135,5.523-0.063,8.232-0.705c0.598-0.142,1.192-0.293,1.789-0.444
				c4.985-1.277,9.014-3.945,12.127-8.084c2.446-3.255,3.327-7.011,3.918-10.9c0.021-0.129,0.019-0.262,0.021-0.396
				c0.068-1.807-0.041-3.598-0.502-5.356c-0.199-0.764-0.373-1.534-0.543-2.307c-0.734-3.351-2.16-6.39-4.062-9.228
				c-2.236-3.341-4.895-6.313-7.771-9.104c-1.166-1.134-2.323-2.272-3.478-3.42c-0.125-0.125-0.385-0.226-0.219-0.566
				c0.278,0.147,0.545,0.285,0.81,0.429c4.955,2.66,10.028,5.069,15.276,7.092c7.752,2.984,15.742,4.896,24.08,5.212
				c4.237,0.159,8.41-0.181,12.558-1.099c4.168-0.924,8.036-2.414,11.491-5.004c2.27-1.699,4.025-3.781,5.408-6.205
				c0.43-0.752,0.709-1.604,0.967-2.438c0.295-0.963,0.52-1.951,0.727-2.938c0.241-1.162,0.432-2.343,0.248-3.531
				c-0.342-2.217-0.736-4.437-1.604-6.508c-1.83-4.383-4.668-8.015-8.428-10.935c-3.701-2.873-7.74-5.157-12.039-6.996
				c-2.744-1.172-5.507-2.308-8.257-3.465C287.722,258.346,287.433,258.184,287.136,258.035z"/>
			<path d="M287.136,258.035c0.297,0.148,0.586,0.311,0.891,0.439c2.75,1.156,5.512,2.293,8.256,3.465
				c4.299,1.838,8.338,4.123,12.039,6.996c3.76,2.92,6.598,6.551,8.428,10.934c0.865,2.072,1.264,4.291,1.604,6.508
				c0.184,1.189-0.006,2.369-0.248,3.531c-0.207,0.988-0.43,1.977-0.727,2.939c-0.258,0.834-0.535,1.686-0.967,2.438
				c-1.383,2.424-3.141,4.506-5.408,6.205c-3.455,2.59-7.324,4.08-11.492,5.004c-4.146,0.918-8.316,1.258-12.557,1.098
				c-8.338-0.316-16.328-2.227-24.08-5.211c-5.248-2.021-10.322-4.432-15.277-7.092c-0.264-0.143-0.527-0.279-0.809-0.428
				c-0.166,0.342,0.094,0.439,0.219,0.564c1.152,1.146,2.312,2.287,3.479,3.421c2.877,2.788,5.535,5.765,7.771,9.104
				c1.899,2.838,3.326,5.877,4.062,9.227c0.17,0.771,0.344,1.543,0.543,2.307c0.461,1.762,0.571,3.553,0.502,5.357
				c-0.004,0.133,0,0.266-0.021,0.395c-0.59,3.893-1.473,7.646-3.918,10.9c-3.113,4.139-7.143,6.807-12.127,8.084
				c-0.598,0.152-1.191,0.305-1.789,0.445c-2.709,0.641-5.443,0.84-8.232,0.705c-4.332-0.213-8.529-1.105-12.66-2.326
				c-3.385-1-6.559-2.512-9.553-4.375c-4.227-2.633-8.17-5.635-11.666-9.197c-2.404-2.451-4.572-5.1-6.641-7.836
				c-5.812-7.686-10.367-16.078-14.084-24.941c-0.646-1.539-1.256-3.092-1.889-4.637c-0.109-0.27-0.248-0.527-0.412-0.873
				c-0.373,0.303-0.438,0.662-0.559,0.967c-1.601,4.047-3.372,8.014-5.321,11.898c-3.514,7.008-7.606,13.656-12.445,19.834
				c-4.594,5.865-10.018,10.814-16.301,14.822c-4.037,2.574-8.382,4.404-13.052,5.465c-1.968,0.447-3.928,0.922-5.935,1.188
				c-3.733,0.494-7.44,0.508-11.124-0.375c-2.176-0.52-4.371-0.977-6.439-1.865c-2.899-1.246-5.484-2.977-7.687-5.229
				c-1.509-1.543-2.746-3.312-3.734-5.238c-0.319-0.623-0.604-1.275-0.785-1.949c-0.4-1.479-0.76-2.977-1.072-4.479
				c-0.417-2.013-0.264-4.021,0.193-6.011c0.186-0.813,0.403-1.619,0.574-2.437c0.445-2.135,1.319-4.09,2.475-5.924
				c2.047-3.25,4.423-6.22,7.328-8.763c2.047-1.793,4.02-3.672,6.02-5.521c0.239-0.222,0.436-0.483,0.544-0.866
				c-0.227,0.103-0.459,0.188-0.678,0.305c-4.042,2.134-8.173,4.065-12.481,5.604c-4.935,1.763-10.009,2.983-15.173,3.813
				c-4.921,0.791-9.883,0.867-14.848,0.522c-3.92-0.271-7.722-1.17-11.447-2.379c-3.02-0.981-5.659-2.678-7.88-4.897
				c-2.452-2.446-4.305-5.321-5.015-8.808c-0.245-1.202-0.551-2.395-0.773-3.602c-0.29-1.576-0.182-3.15,0.181-4.707
				c0.2-0.854,0.418-1.705,0.612-2.562c0.284-1.257,0.766-2.435,1.43-3.527c1.678-2.764,3.728-5.194,6.324-7.168
				c4.089-3.106,8.565-5.502,13.34-7.344c2.906-1.121,5.855-2.132,8.784-3.192c0.729-0.265,1.453-0.543,2.152-0.996
				c-0.188-0.006-0.377-0.021-0.566-0.021c-4.662,0.058-9.303-0.228-13.932-0.776c-7.311-0.869-14.46-2.427-21.331-5.091
				c-6.867-2.662-13.341-6.069-19.2-10.58c-4.423-3.403-7.898-7.594-10.47-12.538c-0.021-0.039-0.04-0.078-0.057-0.119
				c-1.638-3.836-2.676-7.806-2.548-12.009c0.033-1.092,0.219-2.185,0.409-3.262c0.175-0.994,0.443-1.972,0.681-2.951
				c0.366-1.513,1.039-2.871,1.894-4.174c1.304-1.985,2.981-3.556,4.971-4.822c1.046-0.666,2.141-1.196,3.353-1.485
				c1.963-0.467,3.906-0.981,5.942-1.117c1.726-0.112,3.433-0.018,5.119,0.236c4.564,0.688,9.039,1.795,13.421,3.239
				c3.458,1.142,6.884,2.38,10.32,3.589c2.276,0.801,4.534,1.661,6.905,2.153c3.012,0.625,6.05,1.082,9.11,1.385
				c0.084,0.009,0.172-0.019,0.316-0.032c-0.074-0.406-0.438-0.502-0.702-0.664c-2.968-1.804-5.812-3.789-8.61-5.842
				c-4.831-3.548-9.303-7.492-13.277-11.986c-2.129-2.408-4.015-5-5.743-7.707c-2.34-3.663-3.969-7.615-4.851-11.882
				c-0.392-1.897-0.759-3.789-0.705-5.735c0.018-0.656,0.031-1.326,0.167-1.964c0.365-1.715,0.784-3.419,1.205-5.123
				c0.094-0.38,0.25-0.754,0.437-1.099c1.35-2.489,2.913-4.8,5.284-6.465c1.332-0.935,2.628-1.93,4.202-2.425
				c3.065-0.966,6.169-1.736,9.42-1.672c1.763,0.034,3.493,0.286,5.213,0.676c2.83,0.641,5.621,1.378,8.264,2.615
				c2.035,0.953,3.974,2.061,5.827,3.326c2.727,1.861,5.279,3.934,7.68,6.202c6.208,5.864,13.147,10.68,20.835,14.408
				c2.689,1.304,5.438,2.458,8.31,3.303c2.166,0.637,4.393,0.843,6.633,0.935c0.742,0.03,1.484-0.053,2.176-0.288
				c0.373-1.188,0.334-2.706-0.126-4.023c-0.61-1.744-1.334-3.445-2.261-5.042c-1.014-1.746-2.041-3.49-3.176-5.158
				c-7.56-11.106-13.452-23.041-17.753-35.758c-2.311-6.833-3.967-13.838-5.145-20.953c-0.56-3.382-0.901-6.79-0.944-10.223
				c-0.024-1.887-0.125-3.775-0.088-5.662c0.053-2.677,0.193-5.354,0.518-8.014c0.399-3.271,1.034-6.5,1.767-9.713
				c1.4-6.144,3.355-12.093,6.057-17.792c3.527-7.438,8.073-14.192,13.665-20.23c2.63-2.841,5.53-5.396,8.616-7.742
				c4.734-3.599,9.733-6.768,15.096-9.346c7.187-3.455,14.668-6.074,22.435-7.888c3.809-0.89,7.644-1.632,11.536-2.019
				c2.007-0.2,4.03-0.268,6.047-0.333c1.625-0.053,3.25,0.01,4.877-0.015c6.315-0.097,12.521,0.768,18.656,2.207
				c3.418,0.801,6.823,1.639,10.155,2.767c7.119,2.411,13.752,5.764,19.882,10.119c2.651,1.885,5.245,3.842,7.639,6.051
				c3.072,2.837,5.888,5.913,8.451,9.217c3.426,4.417,6.508,9.054,9.037,14.051c3.051,6.026,5.288,12.341,6.807,18.913
				c0.613,2.651,1.181,5.314,1.677,7.989c0.707,3.807,1.004,7.659,1.067,11.529c0.017,0.921,0.103,1.842,0.099,2.762
				c-0.041,7.268-0.703,14.47-2.394,21.552c-0.916,3.842-1.843,7.685-2.896,11.49c-1.373,4.958-3.283,9.728-5.381,14.424
				c-3.58,8.018-7.15,16.041-10.714,24.066c-0.569,1.283-1.09,2.589-1.62,3.89c-0.935,2.277-1.214,4.661-1.144,7.101
				c0.014,0.437-0.007,0.882,0.303,1.312c0.224,0.017,0.479,0.064,0.736,0.052c1.362-0.069,2.704-0.267,4.012-0.688
				c4.324-1.398,8.386-3.36,12.271-5.709c4.724-2.856,8.942-6.356,12.949-10.128c1.438-1.355,2.789-2.805,4.235-4.149
				c3.371-3.13,7.039-5.824,11.429-7.378c2.655-0.94,5.395-1.583,8.186-1.93c1.925-0.239,3.865-0.164,5.771,0.257
				c1.371,0.303,2.736,0.636,4.095,0.998c1.625,0.434,3.145,1.117,4.516,2.099c0.998,0.715,2.062,1.379,2.928,2.237
				c2.561,2.539,4.617,5.407,5.355,9.042c0.115,0.559,0.267,1.11,0.406,1.663c0.635,2.518,0.643,5.04,0.059,7.566
				c-0.299,1.283-0.564,2.573-0.9,3.846c-0.627,2.394-1.594,4.654-2.885,6.762c-3.227,5.271-7.057,10.06-11.564,14.302
				c-4.229,3.979-8.738,7.616-13.468,10.985c-0.377,0.271-0.832,0.467-1.146,0.986c0.427,0,0.757,0.028,1.08-0.005
				c5.638-0.575,11.019-2.08,16.232-4.286c4.12-1.742,8.293-3.375,12.477-4.966c2.879-1.094,5.891-1.765,8.938-2.172
				c2.398-0.319,4.818-0.302,7.193,0.336c0.85,0.228,1.717,0.379,2.561,0.621c0.672,0.192,1.352,0.409,1.973,0.724
				c2.424,1.221,4.479,2.864,6.137,5.061c1.713,2.267,2.674,4.814,3.369,7.515c0.441,1.709,0.654,3.426,0.666,5.201
				c0.014,2.084-0.238,4.1-0.729,6.118c-0.812,3.326-2.212,6.382-4.105,9.216c-2.354,3.519-4.986,6.805-8.205,9.577
				c-4.184,3.604-8.783,6.562-13.826,8.837c-4.541,2.047-9.268,3.512-14.102,4.661c-3.632,0.865-7.285,1.625-10.99,2.082
				c-4.01,0.496-8.031,0.863-12.08,0.89c-0.262,0.002-0.521,0.022-0.781,0.037C287.185,257.873,287.159,257.955,287.136,258.035z
				 M270.708,212.498c0.17-0.178,0.242-0.299,0.348-0.357c0.346-0.195,0.691-0.385,1.053-0.545
				c5.189-2.307,10.127-5.07,14.812-8.277c6.359-4.354,12.316-9.191,17.621-14.805c2.693-2.85,5.082-5.938,7.104-9.303
				c1.32-2.196,2.336-4.521,2.959-7.012c0.561-2.236,0.814-4.487,0.416-6.784c-0.523-3.004-1.869-5.568-4.146-7.603
				c-2.736-2.45-6.04-3.5-9.646-3.704c-2.754-0.156-5.418,0.332-8.02,1.233c-3.846,1.333-7.176,3.488-10.057,6.337
				c-2.281,2.254-4.543,4.527-6.961,6.637c-4.713,4.116-9.732,7.799-15.277,10.725c-3.623,1.912-7.373,3.503-11.371,4.457
				c-1.887,0.451-3.789,0.778-5.734,0.683c-2.629-0.134-4.471-1.402-5.451-3.866c-0.129-0.324-0.234-0.662-0.33-0.999
				c-0.533-1.888-0.594-3.81-0.408-5.748c0.303-3.132,1.139-6.129,2.396-9c2.136-4.864,4.326-9.704,6.474-14.562
				c2.377-5.381,4.851-10.725,7.067-16.171c4.134-10.143,6.771-20.678,7.755-31.604c0.36-4.026,0.442-8.062,0.268-12.102
				c-0.047-1.096-0.069-2.195-0.151-3.289c-0.385-5.225-1.278-10.365-2.633-15.426c-2.722-10.172-7.154-19.512-13.562-27.896
				c-5.146-6.733-11.215-12.454-18.424-16.939c-6.839-4.255-14.166-7.341-21.974-9.321c-5.423-1.375-10.91-2.305-16.5-2.529
				c-2.588-0.104-5.185-0.042-7.774-0.043c-4.183-0.001-8.325,0.435-12.441,1.161c-4.854,0.856-9.579,2.192-14.224,3.824
				c-7.026,2.467-13.755,5.556-20.019,9.608c-7.08,4.581-13.199,10.191-18.18,17.015c-4.699,6.438-8.22,13.483-10.791,21.013
				c-1.78,5.212-2.979,10.56-3.629,16.027c-0.337,2.835-0.5,5.686-0.52,8.541c-0.011,1.667,0.057,3.335,0.09,5.003
				c0.055,2.813,0.295,5.614,0.69,8.398c0.99,6.975,2.633,13.799,4.931,20.456c4.307,12.477,10.094,24.219,17.568,35.116
				c1.467,2.138,2.821,4.347,3.943,6.691c1.065,2.226,1.971,4.509,2.364,6.959c0.317,1.977,0.263,3.94-0.424,5.85
				c-0.631,1.753-1.811,2.984-3.546,3.669c-0.447,0.176-0.913,0.312-1.379,0.432c-2.342,0.6-4.704,0.471-7.063,0.139
				c-4.116-0.578-8.042-1.807-11.831-3.496c-7.878-3.514-15.051-8.143-21.595-13.749c-1.901-1.628-3.725-3.345-5.601-5.001
				c-3.727-3.289-7.881-5.868-12.589-7.517c-4.019-1.407-8.116-1.863-12.311-0.945c-2.187,0.479-4.149,1.418-5.786,2.972
				c-2.431,2.308-3.502,5.208-3.614,8.499c-0.073,2.168,0.261,4.288,0.884,6.365c1.214,4.045,3.228,7.68,5.708,11.069
				c3.159,4.314,6.95,8.029,11.017,11.473c6.267,5.309,13.172,9.65,20.484,13.352c2.779,1.406,5.646,2.639,8.471,3.953
				c0.594,0.277,1.178,0.574,1.774,0.867c-0.081,0.121-0.11,0.215-0.172,0.25c-1.263,0.709-2.536,1.387-3.913,1.869
				c-3.608,1.268-7.338,1.756-11.136,1.754c-4.179,0-8.33-0.406-12.446-1.131c-3.288-0.578-6.557-1.244-9.714-2.357
				c-2.524-0.891-5.035-1.812-7.558-2.709c-4.304-1.521-8.628-2.984-13.109-3.92c-3.106-0.646-6.224-1.018-9.413-0.674
				c-4.735,0.51-8.082,3.4-9.054,8.053c-0.872,4.176-0.391,8.213,1.444,12.076c1.647,3.467,4.031,6.371,6.849,8.938
				c2.678,2.438,5.69,4.401,8.846,6.16c5.232,2.913,10.661,5.362,16.413,7.071c4.221,1.254,8.532,2.043,12.899,2.562
				c4.19,0.496,8.39,0.812,12.612,0.806c3.34-0.005,6.668-0.201,9.993-0.521c3.808-0.367,7.574-0.968,11.31-1.779
				c2.876-0.625,5.706-1.418,8.512-2.301c0.273-0.086,0.567-0.109,0.873-0.168c-0.001,0.549-0.343,0.795-0.625,1.053
				c-1.786,1.625-3.534,3.297-5.388,4.843c-6.403,5.332-13.508,9.454-21.382,12.225c-2.773,0.978-5.553,1.938-8.303,2.978
				c-3.579,1.353-7.044,2.951-10.298,4.984c-1.908,1.19-3.704,2.521-5.239,4.178c-2.877,3.104-4.337,6.683-3.556,10.963
				c0.613,3.354,2.137,6.201,4.854,8.349c1.464,1.158,3.107,1.978,4.848,2.613c2.825,1.034,5.761,1.562,8.748,1.782
				c4.301,0.315,8.603,0.267,12.888-0.254c4.988-0.604,9.84-1.785,14.561-3.513c3.923-1.437,7.706-3.182,11.413-5.103
				c5.747-2.977,11.221-6.375,16.347-10.334c6.219-4.803,11.815-10.227,16.579-16.491c0.157-0.205,0.351-0.392,0.554-0.552
				c0.079-0.062,0.231-0.03,0.46-0.055c-0.059,0.264-0.08,0.473-0.152,0.664c-0.34,0.903-0.67,1.812-1.046,2.7
				c-2.509,5.925-5.645,11.507-9.214,16.853c-5.201,7.789-11.394,14.711-18.313,21.002c-1.787,1.623-3.612,3.213-5.306,4.933
				c-2.301,2.332-4.147,5.008-5.314,8.094c-1.1,2.906-1.389,5.89-0.567,8.923c0.964,3.555,3.108,6.252,6.145,8.271
				c2.071,1.375,4.353,2.28,6.756,2.866c3.011,0.734,6.058,0.879,9.153,0.609c4.873-0.425,9.494-1.688,13.876-3.839
				c5.554-2.726,10.269-6.563,14.507-11.021c3.402-3.574,6.35-7.51,9.002-11.668c5.384-8.438,9.685-17.414,13.094-26.812
				c1.571-4.332,2.968-8.729,4.444-13.098c0.085-0.246,0.12-0.531,0.271-0.729c0.139-0.18,0.403-0.262,0.61-0.387
				c0.473,0.498,0.555,1.078,0.725,1.611c0.986,3.143,1.904,6.307,2.953,9.424c2.541,7.543,5.599,14.875,9.308,21.922
				c3.119,5.926,6.744,11.52,11.054,16.654c4.479,5.336,9.646,9.836,15.817,13.133c6.724,3.586,13.879,5.105,21.476,4.516
				c3.034-0.236,5.834-1.215,8.405-2.826c1.854-1.162,3.354-2.689,4.472-4.578c1.767-2.99,2.323-6.234,1.883-9.645
				c-0.319-2.455-1.077-4.793-2.155-7.023c-1.488-3.076-3.502-5.781-5.873-8.223c-1.896-1.953-3.828-3.873-5.772-5.779
				c-4.343-4.258-8.19-8.928-11.709-13.881c-4.548-6.4-8.343-13.213-11.205-20.531c-0.127-0.328-0.269-0.652-0.36-0.988
				c-0.046-0.156-0.058-0.389,0.028-0.498c0.119-0.148,0.344-0.217,0.59-0.355c0.654,0.768,1.285,1.49,1.899,2.229
				c4.621,5.517,9.839,10.396,15.632,14.657c9.297,6.845,19.455,12.078,30.267,16.063c7.887,2.908,16.041,4.142,24.44,3.642
				c2.635-0.155,5.237-0.543,7.774-1.31c2.502-0.756,4.83-1.871,6.922-3.444c4.049-3.05,5.797-7.759,3.879-12.994
				c-0.889-2.424-2.213-4.58-3.94-6.489c-1.692-1.871-3.672-3.396-5.791-4.746c-2.562-1.636-5.271-2.989-8.06-4.181
				c-4.237-1.808-8.498-3.565-12.758-5.323c-3.222-1.33-6.237-3.019-9.11-4.979c-3.815-2.606-7.322-5.604-10.859-8.563
				c-0.102-0.086-0.221-0.162-0.286-0.271c-0.099-0.162-0.328-0.315-0.072-0.591c1.088,0.24,2.188,0.529,3.31,0.72
				c3.332,0.565,6.672,1.086,10.006,1.642c3.604,0.6,7.242,0.812,10.89,0.825c3.029,0.013,6.056-0.106,9.08-0.315
				c4.737-0.328,9.437-0.937,14.078-1.935c5.988-1.289,11.764-3.202,17.244-5.975c6.135-3.104,11.381-7.269,15.51-12.798
				c1.852-2.479,3.355-5.146,4.377-8.073c0.375-1.078,0.76-2.164,0.779-3.322c0.021-1.403,0.014-2.812,0-4.217
				c-0.004-0.349-0.031-0.709-0.129-1.041c-0.322-1.095-0.613-2.205-1.037-3.261c-1.711-4.247-4.936-6.481-9.447-6.896
				c-3.605-0.329-7.107,0.236-10.475,1.502c-3.779,1.423-7.539,2.9-11.266,4.457c-4.912,2.058-9.918,3.779-15.172,4.742
				c-3.026,0.556-6.073,0.979-9.146,1.114c-2.498,0.109-5.006,0.029-7.51,0.035c-1.632,0.004-3.246-0.192-4.836-0.526
				C274.429,214.318,272.493,213.752,270.708,212.498z"/>
			<path fill="#CD6562" d="M270.708,212.498c1.785,1.254,3.721,1.82,5.701,2.238c1.59,0.334,3.205,0.531,4.836,0.527
				c2.504-0.008,5.012,0.072,7.51-0.035c3.07-0.139,6.117-0.562,9.146-1.115c5.254-0.963,10.26-2.688,15.172-4.742
				c3.725-1.557,7.484-3.035,11.264-4.457c3.367-1.266,6.869-1.832,10.477-1.502c4.514,0.412,7.734,2.646,9.447,6.895
				c0.424,1.055,0.715,2.166,1.035,3.26c0.1,0.332,0.125,0.693,0.131,1.041c0.014,1.406,0.021,2.812,0,4.219
				c-0.021,1.156-0.404,2.242-0.779,3.32c-1.021,2.93-2.525,5.596-4.377,8.074c-4.129,5.529-9.375,9.693-15.51,12.797
				c-5.48,2.771-11.258,4.688-17.244,5.977c-4.645,0.998-9.34,1.604-14.078,1.934c-3.025,0.209-6.051,0.328-9.08,0.316
				c-3.646-0.016-7.283-0.229-10.889-0.826c-3.334-0.557-6.674-1.074-10.006-1.643c-1.119-0.188-2.223-0.479-3.311-0.719
				c-0.256,0.273-0.023,0.428,0.071,0.59c0.065,0.107,0.187,0.186,0.286,0.271c3.537,2.959,7.043,5.957,10.859,8.562
				c2.873,1.963,5.891,3.65,9.111,4.98c4.26,1.758,8.52,3.518,12.758,5.324c2.789,1.189,5.498,2.545,8.059,4.18
				c2.119,1.352,4.1,2.875,5.791,4.746c1.729,1.91,3.055,4.066,3.941,6.49c1.918,5.236,0.17,9.945-3.879,12.994
				c-2.092,1.574-4.42,2.688-6.922,3.445c-2.537,0.766-5.141,1.15-7.775,1.309c-8.4,0.5-16.555-0.732-24.441-3.641
				c-10.811-3.986-20.969-9.223-30.266-16.064c-5.793-4.262-11.01-9.143-15.631-14.658c-0.615-0.736-1.246-1.461-1.9-2.229
				c-0.246,0.141-0.471,0.207-0.59,0.355c-0.086,0.109-0.074,0.344-0.029,0.498c0.096,0.336,0.234,0.66,0.361,0.988
				c2.863,7.316,6.658,14.131,11.205,20.529c3.518,4.953,7.367,9.623,11.709,13.881c1.945,1.906,3.877,3.826,5.773,5.779
				c2.371,2.441,4.385,5.146,5.873,8.223c1.078,2.23,1.836,4.568,2.156,7.023c0.439,3.41-0.117,6.654-1.883,9.646
				c-1.115,1.889-2.615,3.414-4.473,4.576c-2.572,1.611-5.371,2.592-8.406,2.826c-7.596,0.592-14.752-0.93-21.475-4.516
				c-6.174-3.295-11.342-7.795-15.818-13.131c-4.309-5.137-7.934-10.73-11.053-16.656c-3.709-7.047-6.768-14.379-9.309-21.922
				c-1.049-3.117-1.966-6.281-2.954-9.422c-0.168-0.535-0.252-1.115-0.725-1.613c-0.207,0.125-0.471,0.207-0.61,0.387
				c-0.151,0.197-0.187,0.482-0.271,0.73c-1.476,4.367-2.873,8.764-4.444,13.096c-3.409,9.4-7.71,18.375-13.094,26.814
				c-2.652,4.158-5.6,8.092-9.002,11.668c-4.238,4.457-8.953,8.297-14.507,11.021c-4.382,2.148-9.003,3.413-13.876,3.838
				c-3.095,0.27-6.142,0.125-9.153-0.609c-2.404-0.586-4.686-1.492-6.756-2.867c-3.037-2.018-5.181-4.715-6.145-8.27
				c-0.822-3.033-0.533-6.018,0.567-8.922c1.167-3.086,3.014-5.764,5.314-8.096c1.693-1.719,3.519-3.309,5.306-4.932
				c6.919-6.291,13.112-13.215,18.313-21.002c3.569-5.348,6.705-10.93,9.214-16.854c0.376-0.889,0.707-1.797,1.046-2.701
				c0.072-0.189,0.093-0.398,0.152-0.664c-0.229,0.023-0.381-0.008-0.46,0.057c-0.203,0.16-0.397,0.346-0.554,0.551
				c-4.764,6.268-10.36,11.688-16.579,16.492c-5.126,3.959-10.601,7.355-16.347,10.334c-3.707,1.92-7.489,3.666-11.413,5.104
				c-4.72,1.727-9.573,2.906-14.561,3.512c-4.285,0.52-8.586,0.57-12.888,0.254c-2.987-0.221-5.923-0.748-8.748-1.783
				c-1.741-0.637-3.383-1.455-4.848-2.613c-2.717-2.146-4.241-4.992-4.854-8.348c-0.781-4.281,0.679-7.857,3.556-10.963
				c1.535-1.658,3.331-2.986,5.239-4.178c3.254-2.033,6.719-3.633,10.298-4.984c2.75-1.039,5.53-2,8.303-2.977
				c7.874-2.771,14.979-6.895,21.382-12.227c1.854-1.545,3.602-3.217,5.388-4.842c0.283-0.26,0.624-0.504,0.625-1.055
				c-0.306,0.061-0.599,0.082-0.873,0.168c-2.806,0.885-5.636,1.678-8.512,2.303c-3.736,0.812-7.502,1.41-11.31,1.777
				c-3.324,0.32-6.652,0.52-9.993,0.521c-4.222,0.006-8.422-0.309-12.612-0.805c-4.367-0.52-8.678-1.308-12.899-2.562
				c-5.751-1.709-11.181-4.156-16.413-7.07c-3.156-1.759-6.168-3.723-8.846-6.16c-2.818-2.566-5.202-5.471-6.849-8.938
				c-1.835-3.862-2.316-7.901-1.444-12.075c0.972-4.652,4.318-7.543,9.054-8.054c3.189-0.344,6.307,0.024,9.413,0.674
				c4.481,0.935,8.805,2.396,13.109,3.921c2.522,0.896,5.034,1.817,7.558,2.709c3.157,1.112,6.427,1.778,9.714,2.356
				c4.116,0.726,8.267,1.131,12.446,1.131c3.797,0.002,7.528-0.485,11.136-1.754c1.376-0.481,2.65-1.16,3.913-1.869
				c0.062-0.035,0.091-0.129,0.172-0.25c-0.596-0.293-1.18-0.59-1.774-0.867c-2.825-1.315-5.692-2.547-8.471-3.952
				c-7.312-3.701-14.217-8.043-20.484-13.353c-4.067-3.442-7.858-7.158-11.017-11.474c-2.48-3.39-4.494-7.023-5.708-11.068
				c-0.623-2.077-0.957-4.197-0.884-6.365c0.111-3.29,1.183-6.19,3.614-8.499c1.637-1.554,3.6-2.494,5.786-2.972
				c4.195-0.918,8.292-0.462,12.311,0.945c4.708,1.648,8.862,4.228,12.589,7.517c1.876,1.657,3.7,3.374,5.601,5.001
				c6.544,5.606,13.716,10.234,21.595,13.749c3.789,1.688,7.715,2.918,11.831,3.496c2.36,0.332,4.721,0.461,7.063-0.14
				c0.466-0.119,0.932-0.256,1.379-0.433c1.735-0.685,2.915-1.916,3.546-3.668c0.687-1.91,0.741-3.874,0.424-5.85
				c-0.393-2.45-1.298-4.734-2.364-6.959c-1.123-2.344-2.476-4.553-3.943-6.691c-7.475-10.896-13.261-22.639-17.568-35.116
				c-2.298-6.657-3.941-13.481-4.931-20.456c-0.395-2.784-0.635-5.584-0.69-8.398c-0.033-1.668-0.101-3.336-0.09-5.003
				c0.02-2.855,0.183-5.706,0.52-8.541c0.65-5.467,1.849-10.815,3.629-16.027c2.571-7.53,6.092-14.575,10.791-21.013
				c4.981-6.824,11.1-12.435,18.18-17.015c6.264-4.053,12.993-7.141,20.019-9.608c4.645-1.631,9.37-2.967,14.224-3.824
				c4.116-0.726,8.258-1.163,12.441-1.161c2.592,0,5.188-0.062,7.774,0.043c5.59,0.225,11.078,1.154,16.5,2.529
				c7.807,1.98,15.135,5.066,21.973,9.321c7.209,4.486,13.279,10.206,18.426,16.939c6.404,8.384,10.84,17.723,13.561,27.896
				c1.354,5.061,2.248,10.201,2.635,15.426c0.082,1.094,0.104,2.193,0.15,3.289c0.178,4.04,0.096,8.076-0.27,12.102
				c-0.98,10.926-3.62,21.461-7.754,31.604c-2.219,5.446-4.689,10.79-7.066,16.171c-2.146,4.859-4.338,9.698-6.475,14.562
				c-1.26,2.871-2.096,5.867-2.396,9c-0.187,1.938-0.125,3.86,0.408,5.748c0.094,0.336,0.2,0.673,0.33,0.999
				c0.981,2.462,2.823,3.732,5.45,3.865c1.947,0.099,3.851-0.229,5.735-0.683c3.998-0.952,7.748-2.545,11.371-4.458
				c5.545-2.926,10.563-6.609,15.277-10.725c2.418-2.11,4.68-4.383,6.961-6.637c2.881-2.85,6.211-5.004,10.057-6.337
				c2.601-0.901,5.265-1.389,8.019-1.233c3.604,0.204,6.907,1.253,9.646,3.704c2.275,2.035,3.621,4.598,4.146,7.603
				c0.398,2.296,0.145,4.548-0.416,6.784c-0.623,2.49-1.641,4.815-2.959,7.012c-2.021,3.364-4.41,6.454-7.104,9.303
				c-5.305,5.61-11.262,10.451-17.621,14.806c-4.688,3.207-9.623,5.971-14.813,8.276c-0.358,0.16-0.706,0.351-1.052,0.545
				C270.95,212.199,270.878,212.32,270.708,212.498z"/>
		</g>
	</g>
	<g id="Layer_2">
		<path fill="#222222" d="M151.829,85.166c9.113,0,17,14.622,17,25.667s-6.554,26.999-15.667,26.999s-17.333-15.953-17.333-26.999
			S142.716,85.166,151.829,85.166z"/>
	</g>
	<g id="Layer_2_2_">
		<path fill="#222222" d="M207.499,85.166c9.113,0,17,14.622,17,25.667s-6.554,26.999-15.666,26.999
			c-9.113,0-17.334-15.953-17.334-26.999S198.386,85.166,207.499,85.166z"/>
	</g>
	<g id="Layer_4">
		<path fill="#222222" d="M171.496,138.5h20C191.496,138.5,183.496,158.5,171.496,138.5z"/>
	</g>
</g>
<g id="Layer_2_1_">
</g>
<g id="Layer_3">
</g>
</svg>
