<?xml version="1.0" encoding="utf-8"?>
<!-- Generator: Adobe Illustrator 16.0.0, SVG Export Plug-In . SVG Version: 6.00 Build 0)  -->
<!DOCTYPE svg PUBLIC "-//W3C//DTD SVG 1.1//EN" "http://www.w3.org/Graphics/SVG/1.1/DTD/svg11.dtd">
<svg version="1.1" id="Layer_1" xmlns="http://www.w3.org/2000/svg" xmlns:xlink="http://www.w3.org/1999/xlink" x="0px" y="0px"
	 width="342.51px" height="317px" viewBox="0 0 342.51 317" enable-background="new 0 0 342.51 317" xml:space="preserve">
<g id="Layer_3">
	<rect x="-0.49" fill="#F8F8F8" width="343" height="317"/>
</g>
<g id="Layer_2">
	<line fill="none" x1="59.509" y1="43" x2="59.509" y2="260"/>
	<line fill="none" x1="48.509" y1="39" x2="48.509" y2="256"/>
	<line fill="none" x1="48.509" y1="256" x2="296.509" y2="256"/>
	<text transform="matrix(1 0 0 1 26.8433 79.6836)" fill="#3B3B3B" font-family="'Avenir-Roman'" font-size="10">250</text>
	<text transform="matrix(1 0 0 1 26.8433 115.6836)" fill="#3B3B3B" font-family="'Avenir-Roman'" font-size="10">200</text>
	<text transform="matrix(1 0 0 1 26.8433 151.6836)" fill="#3B3B3B" font-family="'Avenir-Roman'" font-size="10">150</text>
	<text transform="matrix(1 0 0 1 26.8433 187.6836)" fill="#3B3B3B" font-family="'Avenir-Roman'" font-size="10">100</text>
	<text transform="matrix(1 0 0 1 26.8433 223.6836)" fill="#3B3B3B" font-family="'Avenir-Roman'" font-size="10">50</text>
	<text transform="matrix(1 0 0 1 18.5029 35.333)" font-family="'Avenir-Roman'" font-size="18">&gt;Social Profiles Found</text>
	<rect x="62.509" y="217" fill="#CD5452" width="34" height="39"/>
	<rect x="110.509" y="169" fill="#CD5452" width="34" height="87"/>
	<rect x="157.509" y="92" fill="#CD5452" width="34" height="164"/>
	<rect x="205.509" y="113" fill="#CD5452" width="34" height="143"/>
	<rect x="254.509" y="147" fill="#CD5452" width="34" height="109"/>
	
		<text transform="matrix(0.8362 -0.5484 0.5484 0.8362 46.4971 290.6445)" fill="#3B3B3B" font-family="'Avenir-Roman'" font-size="10">Facebook</text>
	
		<text transform="matrix(0.8362 -0.5484 0.5484 0.8362 107.8389 283.6367)" fill="#3B3B3B" font-family="'Avenir-Roman'" font-size="10">Twitter</text>
	
		<text transform="matrix(0.8362 -0.5484 0.5484 0.8362 149.2383 289.6426)" fill="#3B3B3B" font-family="'Avenir-Roman'" font-size="10">Linkedin</text>
	
		<text transform="matrix(0.8362 -0.5484 0.5484 0.8362 200.2432 286.6387)" fill="#3B3B3B" font-family="'Avenir-Roman'" font-size="10">GitHub</text>
	
		<text transform="matrix(0.8362 -0.5484 0.5484 0.8362 242.5684 290.6426)" fill="#3B3B3B" font-family="'Avenir-Roman'" font-size="10">AngelList</text>
</g>
<g id="Layer_4">
</g>
<g id="Layer_1_1_">
</g>
<g id="Layer_5">
</g>
</svg>
