<?xml version="1.0" encoding="utf-8"?>
<!-- Generator: Adobe Illustrator 16.0.0, SVG Export Plug-In . SVG Version: 6.00 Build 0)  -->
<!DOCTYPE svg PUBLIC "-//W3C//DTD SVG 1.1//EN" "http://www.w3.org/Graphics/SVG/1.1/DTD/svg11.dtd">
<svg version="1.1" xmlns="http://www.w3.org/2000/svg" xmlns:xlink="http://www.w3.org/1999/xlink" x="0px" y="0px"
	 width="342.51px" height="317px" viewBox="0 0 342.51 317" enable-background="new 0 0 342.51 317" xml:space="preserve">
<g id="Layer_1">
	<g id="Layer_3">
		<rect x="-0.49" fill="#F8F8F8" width="343" height="317"/>
	</g>
	<g id="Layer_4">
	</g>
	<g id="Layer_1_1_" display="none">
	</g>
	<g id="Layer_5" display="none">
	</g>
	<g id="Layer_2">
		<path fill="none" d="M-133.49,471"/>
		<path fill="none" d="M-133.49,254"/>
		<path fill="none" d="M265.51,453"/>
		<path fill="none" d="M265.51,236"/>
		<line fill="none" x1="49.51" y1="256" x2="297.51" y2="256"/>
		<text transform="matrix(1 0 0 1 19.5039 35.333)" font-family="'Avenir-Roman'" font-size="18">&gt;Percent of Valid Emails</text>
	</g>
</g>
<g id="Layer_2_1_">
	<path fill="#667E9F" d="M102.755,227.125c1.22-2.237,3.032-2.985,4.962-2.799c-0.114,0.102-0.219,0.193-0.337,0.299
		c-0.069,0.062-0.116,0.129-0.152,0.198c0.405-0.229,0.787-0.346,1.154-0.394c3.004,0.605,6.163,3.279,7.75,6.021
		c0.209,0.055,0.418,0.104,0.627,0.16c0.793,0.214,2.397,0.973,3.231,0.834c4.903-0.815,9.806,1.21,11.226,6.374
		c0.515,1.873,0.324,4.028-0.435,5.954c1.28,1.443,2.582,2.874,3.989,4.195c0.519,0.487,1.039,0.977,1.568,1.455
		c0.96,0.561,2.538,1.259,3.599,1.732c0.931,0.171,1.768,0.301,2.011,0.365c3.269,0.082,6.548,0.01,9.805-0.157
		c2.662-0.136,5.324-0.298,7.976-0.566c0.822-0.083,2.871-0.376,4.062-0.546c3.739-0.646,7.462-1.415,11.104-2.474
		c2.113-0.614,4.223-1.262,6.283-2.041c0.12-0.053,0.233-0.104,0.332-0.148c7.028-3.223,13.899-6.813,20.473-10.891
		c3.454-2.144,6.864-4.363,10.158-6.747c0.664-0.48,1.32-0.972,1.98-1.459c1.185-0.96,2.364-1.928,3.514-2.932
		c3.082-2.689,6.093-5.471,8.9-8.448c1.544-1.637,3.072-3.292,4.513-5.022c0.204-0.245,0.376-0.449,0.533-0.636
		c2.142-2.998,4.172-6.089,5.895-9.349c0.525-0.995,1.609-3.476,2.051-4.422c0.147-0.427,0.305-0.849,0.438-1.279
		c0.641-2.063,1.243-4.145,1.669-6.265c0.064-0.323,0.13-0.741,0.192-1.188c0.229-3.488,0.201-6.954-0.109-10.451
		c-0.159-1.799-0.069-3.561,0.231-5.267c-1.384-1.089-2.46-2.603-2.999-4.562c-1.235-4.49-20.963-6.127-16.07-7.046
		c4.758-0.894,10.521-1.158,14.5-3.75c3.753-2.444,27.738-11.08,31.879-12.064c-12.924-45.17-54.521-78.233-103.843-78.233
		c-59.647,0-108,48.353-108,108c0,26.229,9.353,50.271,24.901,68.98c1.483-1.519,13.933-10.296,20.704-14.935
		C102.744,227.53,102.618,227.376,102.755,227.125z"/>
	<path fill="#CD6562" d="M103.021,227.624c1.24,0.423,5.595-0.383,3.859,0.626c5.239,0.61-0.381-2.035,0.348-3.427
		c-0.033,0.019-0.065,0.031-0.098,0.052C106.568,225.216,105.045,226.237,103.021,227.624z"/>
	<circle fill="#F8F8F8" cx="164.755" cy="174" r="85"/>
</g>
<g id="Layer_3_1_">
	<path fill="#CD6562" d="M271.133,155.323c-7.489,3.406-14.878,5.927-22.654,9.644c0.341,2.302,0.525,4.648,0.525,7.033
		c0,1.686-0.089,3.354-0.261,5c0.172,1.646,0.261,3.314,0.261,5c0,6.391-1.271,12.527-3.568,18.172
		c-1.447,5.53-3.855,10.704-7.024,15.332c-2.397,4.567-5.495,8.728-9.137,12.339c-0.552,0.666-1.115,1.326-1.695,1.981
		c-6.133,6.928-14.518,13.285-23.529,17.764c-8.403,6.648-18.947,10.661-30.295,10.661c-1.356,0-2.697-0.072-4.029-0.185
		c-1.312,0.109-2.634,0.185-3.971,0.185c-4.763,0-9.381-0.718-13.764-2.027c-8.5-0.151-16.53-2.527-23.521-6.572
		c-8.308-2.197-15.806-6.563-21.848-12.425c-6.132,4.341-11.867,8.65-17.844,13.545c19.512,19.314,46.347,31.246,75.972,31.246
		c59.646,0,108-48.354,108-108C272.749,167.641,272.192,161.396,271.133,155.323z"/>
	<circle fill="#F8F8F8" cx="164.749" cy="174.016" r="85"/>
</g>
<g id="Layer_4_1_">
	<text transform="matrix(1 0 0 1 115.6724 174.9922)"><tspan x="0" y="0" fill="#667E9F" font-family="'MyriadPro-Regular'" font-size="48">Valid</tspan><tspan x="27.96" y="28.8" fill="#667E9F" font-family="'MyriadPro-Regular'" font-size="24">60%</tspan></text>
</g>
</svg>
